<svg xmlns="http://www.w3.org/2000/svg" viewBox="0 0 64 64"><defs><style>.cls-1{fill:none;}.cls-2{fill:#e8762c;}.cls-3{fill:#c72035;}.cls-4{fill:#59879b;}.cls-5{fill:#5b6591;}.cls-6{fill:#eb912c;}.cls-7{fill:#1f447e;}.cls-8{fill:#7099a6;}</style></defs><title>tableau-day</title><g id="invisi-border"><rect class="cls-1" width="64" height="64"/></g><g id="icon"><polygon class="cls-2" points="41.277 33.358 33.584 33.358 33.584 41.729 30.529 41.729 30.529 33.358 22.836 33.358 22.836 30.416 30.529 30.416 30.529 22.044 33.584 22.044 33.584 30.416 41.277 30.416 41.277 33.358"/><polygon class="cls-3" points="25.778 44.105 18.877 44.105 18.877 36.525 16.275 36.525 16.275 44.105 9.261 44.105 9.261 46.368 16.275 46.368 16.275 53.834 18.877 53.834 18.877 46.368 25.778 46.368 25.778 44.105"/><polygon class="cls-4" points="54.739 17.18 47.838 17.18 47.838 9.713 45.236 9.713 45.236 17.18 38.335 17.18 38.335 19.556 45.236 19.556 45.236 27.022 47.838 27.022 47.838 19.556 54.739 19.556 54.739 17.18"/><polygon class="cls-5" points="37.883 52.364 33.244 52.364 33.244 47.16 30.982 47.16 30.982 52.364 26.23 52.364 26.23 54.4 30.982 54.4 30.982 59.717 33.244 59.717 33.244 54.4 37.883 54.4 37.883 52.364"/><polygon class="cls-6" points="25.778 17.18 18.764 17.18 18.764 9.713 16.275 9.713 16.275 17.18 9.261 17.18 9.261 19.442 16.275 19.442 16.275 27.022 18.764 27.022 18.764 19.442 25.778 19.442 25.778 17.18"/><polygon class="cls-5" points="60.057 30.869 55.418 30.869 55.418 25.665 53.156 25.665 53.156 30.869 48.404 30.869 48.404 32.905 53.156 32.905 53.156 38.109 55.418 38.109 55.418 32.905 60.057 32.905 60.057 30.869"/><polygon class="cls-7" points="54.739 44.105 47.838 44.105 47.838 36.525 45.236 36.525 45.236 44.105 38.335 44.105 38.335 46.368 45.236 46.368 45.236 53.834 47.838 53.834 47.838 46.368 54.739 46.368 54.739 44.105"/><polygon class="cls-8" points="37.543 9.487 32.905 9.487 32.905 4.283 31.208 4.283 31.208 9.487 26.57 9.487 26.57 11.071 31.208 11.071 31.208 16.162 32.905 16.162 32.905 11.071 37.543 11.071 37.543 9.487"/><polygon class="cls-8" points="14.917 31.095 10.279 31.095 10.279 26.004 8.582 26.004 8.582 31.095 3.943 31.095 3.943 32.679 8.582 32.679 8.582 37.77 10.279 37.77 10.279 32.679 14.917 32.679 14.917 31.095"/></g></svg>