<?xml version="1.0" encoding="UTF-8"?>
<svg id="a" xmlns="http://www.w3.org/2000/svg" viewBox="0 0 64 64">
  <defs>
    <style>
      .cls-1 {
        fill: #396547;
      }

      .cls-1, .cls-2, .cls-3 {
        stroke-width: 0px;
      }

      .cls-2 {
        fill: #91db8b;
      }

      .cls-3 {
        fill: #fff;
      }
    </style>
  </defs>
  <path class="cls-2" d="M53.5,19H17.7l3,15h29.6l3.2-15Z"/>
  <path class="cls-1" d="M53.9,36.4l4.1-19v-.5c0-1.1-.9-2-2-2H16.9l-.9-4.3c-.2-.9-1-1.6-2-1.6h-6c-1.1,0-2,.9-2,2s.9,2,2,2h4.4l6.2,30.5c-2.1.9-3.6,3-3.6,5.5,0,3.3,2.7,6,6,6s6-2.7,6-6c0-.7-.1-1.4-.3-2h14.7c-.2.6-.3,1.3-.3,2,0,3.3,2.7,6,6,6s6-2.7,6-6c0-.7-.1-1.4-.3-2h1.3c1.1,0,2-.9,2-2s-.9-2-2-2h-31.6l-1-5h30.4c1,0,1.8-.6,2-1.6Z"/>
  <path class="cls-1" d="M47,51c1.1,0,2-.9,2-2s-.9-2-2-2-2,.9-2,2,.9,2,2,2Z"/>
  <path class="cls-2" d="M17.7,19h35.8l-3.2,15h-29.6l-3-15Z"/>
  <path class="cls-1" d="M21,51c1.1,0,2-.9,2-2s-.9-2-2-2-2,.9-2,2,.9,2,2,2Z"/>
  <path class="cls-3" d="M21,51c1.1,0,2-.9,2-2s-.9-2-2-2-2,.9-2,2,.9,2,2,2Z"/>
  <path class="cls-3" d="M47,51c1.1,0,2-.9,2-2s-.9-2-2-2-2,.9-2,2,.9,2,2,2Z"/>
</svg>