<?xml version="1.0" encoding="utf-8"?>
<!-- Generator: Adobe Illustrator 27.7.0, SVG Export Plug-In . SVG Version: 6.00 Build 0)  -->
<svg version="1.1" id="a" xmlns="http://www.w3.org/2000/svg" xmlns:xlink="http://www.w3.org/1999/xlink" x="0px" y="0px"
	 viewBox="0 0 64 64" style="enable-background:new 0 0 64 64;" xml:space="preserve">
<style type="text/css">
	.st0{display:none;fill:#70BF75;}
	.st1{display:none;fill:#396547;}
	.st2{display:none;fill:#FFFFFF;}
	.st3{fill:#8A8ED1;}
	.st4{fill:#FFFFFF;}
	.st5{fill:#200D38;}
</style>
<polygon class="st0" points="53.5,19 17.7,19 20.7,34 50.3,34 "/>
<path class="st1" d="M53.9,36.4l4.1-19c0-0.1,0-0.3,0-0.5c0-1.1-0.9-2-2-1.9H16.9L16,10.6c-0.2-1-1-1.6-2-1.6H8c-1.1,0-2,0.9-2,2
	s0.9,2,2,2h4.4l6.2,30.5c-2.1,0.9-3.6,3-3.6,5.5c0,3.3,2.7,6,6,6s6-2.7,6-6c0-0.7-0.1-1.4-0.4-2h14.7c-0.2,0.6-0.3,1.3-0.3,2
	c0,3.3,2.7,6,6,6s6-2.7,6-6c0-0.7-0.1-1.4-0.3-2H54c1.1,0,2-0.9,2-2s-0.9-2-2-2H22.6l-1-5H52C52.9,38,53.7,37.4,53.9,36.4z M49,49
	c0,1.1-0.9,2-2,2s-2-0.9-2-2s0.9-2,2-2S49,47.9,49,49z M17.7,19h35.8l-3.2,15H20.7L17.7,19z M23,49c0,1.1-0.9,2-2,2s-2-0.9-2-2
	s0.9-2,2-2S23,47.9,23,49z"/>
<circle class="st2" cx="21" cy="49" r="2"/>
<circle class="st2" cx="47" cy="49" r="2"/>
<g>
	<path class="st3" d="M32,9.2C19.4,9.2,9.1,19.5,9.1,32.2c0,7.5,3.7,14.3,9.3,18.4c0.7-4.4,3.4-8.1,7.2-10.1
		c-2.5-1.9-4.1-4.9-4.1-8.3c0-5.8,4.7-10.5,10.5-10.5s10.5,4.7,10.5,10.5c0,3.4-1.6,6.4-4.1,8.3c3.8,2,6.5,5.7,7.2,10.1
		c5.7-4.2,9.3-10.9,9.3-18.4C54.9,19.5,44.6,9.2,32,9.2L32,9.2z"/>
	<path class="st3" d="M15.8,22.9c0.7-1.1,2.1-1.5,3.3-0.9c1.1,0.6,1.5,2.1,0.9,3.3l0,0c-0.4,0.8-1.2,1.2-2.1,1.2
		c-0.4,0-0.8-0.1-1.2-0.3C15.6,25.5,15.2,24,15.8,22.9L15.8,22.9z"/>
	<path class="st3" d="M13.4,32.2c0-1.3,1.1-2.4,2.4-2.4c1.3,0,2.4,1.1,2.4,2.4c0,1.3-1.1,2.4-2.4,2.4h0
		C14.4,34.6,13.4,33.5,13.4,32.2z"/>
	<path class="st3" d="M19.2,42.4c-0.4,0.2-0.8,0.3-1.2,0.3c-0.8,0-1.6-0.4-2.1-1.2c-0.7-1.1-0.3-2.6,0.9-3.3
		c1.1-0.7,2.6-0.3,3.3,0.9C20.7,40.3,20.3,41.7,19.2,42.4z"/>
	<path class="st3" d="M25,20.2c-0.4,0.2-0.8,0.3-1.2,0.3c-0.8,0-1.6-0.4-2.1-1.2c-0.7-1.1-0.3-2.6,0.9-3.3c1.1-0.7,2.6-0.3,3.3,0.9
		C26.5,18,26.2,19.5,25,20.2z"/>
	<path class="st3" d="M32,18.3L32,18.3c-1.4,0-2.5-1.1-2.5-2.4s1.1-2.4,2.4-2.4H32c1.3,0,2.4,1.1,2.4,2.4S33.3,18.3,32,18.3z"/>
	<path class="st3" d="M42.2,19.3c-0.4,0.8-1.3,1.2-2.1,1.2c-0.4,0-0.8-0.1-1.2-0.3c-1.1-0.7-1.5-2.1-0.9-3.3
		c0.7-1.1,2.1-1.5,3.3-0.9C42.5,16.7,42.8,18.1,42.2,19.3z"/>
	<path class="st3" d="M44.9,21.9c1.1-0.7,2.6-0.3,3.3,0.9c0.7,1.1,0.3,2.6-0.9,3.3c-0.4,0.2-0.8,0.3-1.2,0.3c-0.8,0-1.6-0.4-2.1-1.2
		C43.3,24.1,43.7,22.6,44.9,21.9z"/>
	<path class="st3" d="M48.2,41.4c-0.4,0.8-1.2,1.2-2.1,1.2c-0.4,0-0.8-0.1-1.2-0.3c-1.1-0.7-1.5-2.1-0.9-3.3
		c0.7-1.1,2.1-1.5,3.3-0.9C48.4,38.8,48.8,40.3,48.2,41.4z"/>
	<path class="st3" d="M48.2,34.5c-1.3,0-2.4-1.1-2.4-2.4c0-1.3,1.1-2.4,2.4-2.4c1.3,0,2.4,1.1,2.4,2.4S49.6,34.5,48.2,34.5z"/>
	<circle class="st4" cx="32" cy="32.2" r="6.7"/>
	<path class="st4" d="M32,42.7c-5.5,0-10,4.5-10,10v0.1c3,1.5,6.4,2.3,10,2.3c3.6,0,6.9-0.8,9.9-2.3v-0.1
		C41.9,47.2,37.5,42.7,32,42.7z"/>
	<circle class="st5" cx="32" cy="32.2" r="26.7"/>
	<path class="st4" d="M41.9,52.8c-3,1.5-6.4,2.3-9.9,2.3s-6.9-0.8-10-2.3v-0.1c0-5.5,4.5-10,10-10s10,4.5,10,10
		C41.9,52.7,41.9,52.8,41.9,52.8z"/>
	<circle class="st4" cx="32" cy="32.2" r="6.7"/>
	<path class="st3" d="M45.6,50.6c-0.7-4.4-3.4-8.1-7.2-10.1c2.5-1.9,4.1-4.9,4.1-8.3c0-5.8-4.7-10.5-10.5-10.5s-10.5,4.7-10.5,10.5
		c0,3.4,1.6,6.4,4.1,8.3c-3.8,2-6.5,5.7-7.2,10.1c-5.6-4.2-9.3-10.9-9.3-18.4C9.1,19.5,19.4,9.2,32,9.2s22.9,10.3,22.9,22.9
		C54.9,39.7,51.2,46.4,45.6,50.6L45.6,50.6z"/>
	<path class="st4" d="M41.3,16c-1.1-0.7-2.6-0.3-3.3,0.9c-0.7,1.1-0.3,2.6,0.9,3.3c0.4,0.2,0.8,0.3,1.2,0.3c0.8,0,1.6-0.4,2.1-1.2
		C42.8,18.1,42.5,16.7,41.3,16z"/>
	<path class="st4" d="M15.8,34.6c1.3,0,2.4-1.1,2.4-2.4c0-1.3-1.1-2.4-2.4-2.4c-1.3,0-2.4,1.1-2.4,2.4
		C13.4,33.5,14.4,34.6,15.8,34.6L15.8,34.6z"/>
	<path class="st4" d="M46.1,26.4c0.4,0,0.8-0.1,1.2-0.3c1.1-0.7,1.5-2.1,0.9-3.3c-0.7-1.1-2.1-1.5-3.3-0.9c-1.1,0.7-1.5,2.1-0.9,3.3
		C44.4,26,45.2,26.4,46.1,26.4z"/>
	<path class="st4" d="M16.7,26.1c0.4,0.2,0.8,0.3,1.2,0.3c0.8,0,1.6-0.4,2.1-1.2l0,0c0.6-1.1,0.3-2.6-0.9-3.3
		c-1.1-0.7-2.6-0.3-3.3,0.9C15.2,24,15.6,25.5,16.7,26.1L16.7,26.1z"/>
	<path class="st4" d="M47.3,38.2c-1.1-0.7-2.6-0.3-3.3,0.9c-0.7,1.1-0.3,2.6,0.9,3.3c0.4,0.2,0.8,0.3,1.2,0.3c0.8,0,1.6-0.4,2.1-1.2
		C48.8,40.3,48.4,38.8,47.3,38.2z"/>
	<path class="st4" d="M48.2,29.7c-1.3,0-2.4,1.1-2.4,2.4c0,1.3,1.1,2.4,2.4,2.4c1.3,0,2.4-1.1,2.4-2.4
		C50.6,30.8,49.6,29.7,48.2,29.7z"/>
	<path class="st4" d="M32,13.5h-0.1c-1.3,0-2.4,1.1-2.4,2.4c0,1.3,1.1,2.4,2.4,2.4H32c1.3,0,2.4-1.1,2.4-2.4S33.3,13.5,32,13.5z"/>
	<path class="st4" d="M22.6,16c-1.1,0.7-1.5,2.1-0.9,3.3c0.4,0.8,1.2,1.2,2.1,1.2c0.4,0,0.8-0.1,1.2-0.3c1.1-0.7,1.5-2.1,0.9-3.3
		C25.2,15.8,23.8,15.4,22.6,16z"/>
	<path class="st4" d="M16.7,38.3c-1.1,0.7-1.5,2.1-0.9,3.3c0.4,0.8,1.2,1.2,2.1,1.2c0.4,0,0.8-0.1,1.2-0.3c1.1-0.7,1.5-2.1,0.9-3.3
		C19.4,38,17.9,37.6,16.7,38.3z"/>
</g>
</svg>
