<?xml version="1.0" encoding="UTF-8"?>
<svg id="a" xmlns="http://www.w3.org/2000/svg" viewBox="0 0 64 64">
  <defs>
    <style>
      .cls-1 {
        fill: #7f8ced;
      }

      .cls-1, .cls-2, .cls-3 {
        stroke-width: 0px;
      }

      .cls-2 {
        fill: #200647;
      }

      .cls-3 {
        fill: #fff;
      }
    </style>
  </defs>
  <path class="cls-2" d="M47.13,22.54h-7.47l6.43-14.37c0-.19.09-.47.09-.76,0-1.04-.85-1.89-1.89-1.89h-20.8c-.85,0-1.61.57-1.8,1.42l-6.62,24.58c0,.19-.09.28-.09.47,0,1.04.85,1.89,1.89,1.89h7.09l-5.11,22.22c0,.09-.09.28-.09.47,0,1.04.85,1.89,1.89,1.89.57,0,1.13-.28,1.42-.66l26.48-32.15c.28-.38.47-.76.47-1.23,0-1.04-.85-1.89-1.89-1.89Z"/>
  <path class="cls-1" d="M34.84,24.44c0-.28.09-.57.19-.76l6.34-14.37h-16.45l-5.58,20.8h7c1.04,0,1.89.85,1.89,1.89,0,.19,0,.28-.09.47l-3.88,16.74,18.91-22.88h-6.43c-1.04,0-1.89-.85-1.89-1.89Z"/>
  <path class="cls-3" d="M29.64,12.24c-1.04-.28-2.08.28-2.36,1.32l-2.84,10.4c0,.19-.09.38-.09.47,0,1.04.85,1.89,1.89,1.89.85,0,1.61-.57,1.8-1.42l2.84-10.4c.38-.95-.19-1.99-1.23-2.27Z"/>
</svg>