<?xml version="1.0" encoding="UTF-8"?>
<svg id="a" xmlns="http://www.w3.org/2000/svg" viewBox="0 0 64 64">
  <defs>
    <style>
      .cls-1 {
        fill: #d17dfe;
      }

      .cls-1, .cls-2, .cls-3 {
        stroke-width: 0px;
      }

      .cls-2 {
        fill: #481a54;
      }

      .cls-3 {
        fill: #fff;
      }
    </style>
  </defs>
  <path class="cls-2" d="M55.5,5.43H8.5c-1.12,0-2.04.92-2.04,2.04v40.87c0,1.12.92,2.04,2.04,2.04h4.09v6.13c0,1.12.92,2.04,2.04,2.04h34.74c1.12,0,2.04-.92,2.04-2.04v-6.13h4.09c1.12,0,2.04-.92,2.04-2.04V7.48c0-1.12-.92-2.04-2.04-2.04Z"/>
  <path class="cls-1" d="M53.46,46.31H10.54V9.52h42.92v36.79Z"/>
  <path class="cls-3" d="M47.33,50.39h-30.66v4.09h30.66v-4.09Z"/>
  <path class="cls-3" d="M47.33,42.22c1.12,0,2.04-.92,2.04-2.04V15.65c0-1.12-.92-2.04-2.04-2.04s-2.04.92-2.04,2.04v24.52c0,1.12.92,2.04,2.04,2.04Z"/>
  <path class="cls-2" d="M16.67,29.96h2.25c.2,1.02.61,1.94,1.23,2.86l-1.63,1.63c-.41.41-.61.92-.61,1.43,0,1.12.92,2.04,2.04,2.04.51,0,1.02-.2,1.43-.61l1.63-1.63c.82.51,1.84.92,2.86,1.23v2.25c0,1.12.92,2.04,2.04,2.04s2.04-.92,2.04-2.04v-2.25c1.02-.2,1.94-.61,2.86-1.23l1.63,1.63c.41.41.92.61,1.43.61s1.02-.2,1.43-.61c.82-.82.82-2.04,0-2.86l-1.63-1.63c.51-.82.92-1.84,1.23-2.86h2.25c1.12,0,2.04-.92,2.04-2.04s-.92-2.04-2.04-2.04h-2.25c-.2-1.02-.61-2.04-1.23-2.86l1.63-1.63c.82-.82.82-2.04,0-2.86s-2.04-.82-2.86,0l-1.63,1.63c-.82-.51-1.84-.92-2.86-1.12v-2.35c0-1.12-.92-2.04-2.04-2.04s-2.04.92-2.04,2.04v2.25c-1.02.2-1.94.61-2.76,1.12l-1.63-1.63c-.82-.82-2.04-.82-2.86,0s-.82,2.04,0,2.86l1.63,1.63c-.61.92-1.02,1.94-1.33,2.96h-2.25c-1.12,0-2.04.92-2.04,2.04s.92,2.04,2.04,2.04Z"/>
  <path class="cls-3" d="M33.02,27.91c0-2.86-2.25-5.11-5.11-5.11s-5.11,2.25-5.11,5.11c0,1.43.61,2.66,1.53,3.58.92.92,2.25,1.53,3.58,1.53,1.43,0,2.66-.61,3.58-1.53.92-.92,1.53-2.15,1.53-3.58Z"/>
</svg>