<?xml version="1.0" encoding="UTF-8"?>
<svg xmlns="http://www.w3.org/2000/svg" xmlns:xlink="http://www.w3.org/1999/xlink" width="20px" height="20px" viewBox="0 0 20 20" version="1.1">
<g id="surface1">
<path style=" stroke:none;fill-rule:evenodd;fill:rgb(10.588235%,11.764706%,13.333333%);fill-opacity:1;" d="M -0.0078125 -0.0078125 C 6.660156 -0.0078125 13.324219 -0.0078125 19.992188 -0.0078125 C 19.992188 6.660156 19.992188 13.324219 19.992188 19.992188 C 13.324219 19.992188 6.660156 19.992188 -0.0078125 19.992188 C -0.0078125 13.324219 -0.0078125 6.660156 -0.0078125 -0.0078125 Z M -0.0078125 -0.0078125 "/>
<path style=" stroke:none;fill-rule:evenodd;fill:rgb(99.607843%,99.607843%,99.607843%);fill-opacity:1;" d="M 11.695312 16.179688 C 11.703125 15.457031 11.703125 14.730469 11.695312 14.007812 C 11.671875 13.617188 11.527344 13.28125 11.257812 13 C 11.683594 12.945312 12.101562 12.851562 12.507812 12.71875 C 13.5 12.34375 14.09375 11.632812 14.28125 10.585938 C 14.378906 10.070312 14.390625 9.554688 14.3125 9.039062 C 14.207031 8.5625 13.988281 8.140625 13.664062 7.78125 C 13.867188 7.175781 13.84375 6.582031 13.601562 5.992188 C 13.582031 5.980469 13.5625 5.972656 13.539062 5.96875 C 13.296875 5.949219 13.0625 5.984375 12.835938 6.078125 C 12.433594 6.234375 12.058594 6.433594 11.710938 6.679688 C 10.574219 6.367188 9.441406 6.367188 8.304688 6.679688 C 7.855469 6.355469 7.359375 6.125 6.820312 5.984375 C 6.691406 5.964844 6.558594 5.960938 6.429688 5.96875 C 6.171875 6.5625 6.144531 7.167969 6.351562 7.78125 C 5.785156 8.4375 5.558594 9.203125 5.671875 10.070312 C 5.761719 11.589844 6.546875 12.527344 8.023438 12.875 C 8.265625 12.925781 8.511719 12.964844 8.757812 13 C 8.632812 13.113281 8.535156 13.246094 8.46875 13.398438 C 8.402344 13.566406 8.347656 13.738281 8.304688 13.914062 C 7.925781 14.089844 7.535156 14.128906 7.132812 14.03125 C 6.878906 13.945312 6.667969 13.796875 6.5 13.585938 C 6.390625 13.429688 6.28125 13.273438 6.171875 13.117188 C 6.023438 12.949219 5.847656 12.816406 5.648438 12.71875 C 5.433594 12.632812 5.222656 12.628906 5.007812 12.703125 C 4.976562 12.738281 4.96875 12.777344 4.984375 12.820312 C 5.015625 12.882812 5.0625 12.9375 5.117188 12.984375 C 5.277344 13.074219 5.421875 13.183594 5.546875 13.320312 C 5.761719 13.582031 5.929688 13.875 6.046875 14.195312 C 6.234375 14.550781 6.523438 14.777344 6.914062 14.875 C 7.1875 14.941406 7.460938 14.960938 7.742188 14.9375 C 7.925781 14.921875 8.109375 14.898438 8.289062 14.867188 C 8.300781 15.316406 8.300781 15.761719 8.296875 16.210938 C 8.261719 16.355469 8.171875 16.441406 8.023438 16.46875 C 7.960938 16.480469 7.898438 16.480469 7.835938 16.46875 C 6.074219 15.855469 4.757812 14.722656 3.890625 13.070312 C 3.132812 11.507812 2.964844 9.882812 3.390625 8.195312 C 3.980469 6.195312 5.207031 4.726562 7.070312 3.796875 C 8.828125 3.007812 10.617188 2.941406 12.429688 3.59375 C 14.347656 4.367188 15.679688 5.71875 16.421875 7.648438 C 17.058594 9.515625 16.941406 11.332031 16.078125 13.101562 C 15.210938 14.746094 13.894531 15.867188 12.132812 16.46875 C 11.898438 16.5 11.753906 16.402344 11.695312 16.179688 Z M 11.695312 16.179688 "/>
<path style=" stroke:none;fill-rule:evenodd;fill:rgb(7.45098%,7.843137%,9.019608%);fill-opacity:1;" d="M 11.695312 14.007812 C 11.703125 14.730469 11.703125 15.457031 11.695312 16.179688 C 11.675781 15.472656 11.675781 14.75 11.695312 14.007812 Z M 11.695312 14.007812 "/>
</g>
</svg>
