<?xml version="1.0" encoding="UTF-8"?>
<svg xmlns="http://www.w3.org/2000/svg" xmlns:xlink="http://www.w3.org/1999/xlink" width="25px" height="25px" viewBox="0 0 25 25" version="1.1">
<g id="surface1">
<path style=" stroke:none;fill-rule:evenodd;fill:rgb(10.588235%,11.764706%,13.333333%);fill-opacity:1;" d="M -0.0078125 -0.0078125 C 8.324219 -0.0078125 16.65625 -0.0078125 24.992188 -0.0078125 C 24.992188 8.324219 24.992188 16.65625 24.992188 24.992188 C 16.65625 24.992188 8.324219 24.992188 -0.0078125 24.992188 C -0.0078125 16.65625 -0.0078125 8.324219 -0.0078125 -0.0078125 Z M -0.0078125 -0.0078125 "/>
<path style=" stroke:none;fill-rule:evenodd;fill:rgb(99.607843%,99.607843%,99.607843%);fill-opacity:1;" d="M 14.617188 20.226562 C 14.628906 19.320312 14.628906 18.414062 14.617188 17.507812 C 14.589844 17.023438 14.40625 16.601562 14.070312 16.25 C 14.605469 16.183594 15.125 16.066406 15.632812 15.898438 C 16.875 15.429688 17.613281 14.542969 17.851562 13.234375 C 17.972656 12.589844 17.988281 11.945312 17.890625 11.296875 C 17.757812 10.703125 17.484375 10.175781 17.078125 9.726562 C 17.332031 8.972656 17.308594 8.226562 17 7.492188 C 16.976562 7.476562 16.953125 7.464844 16.921875 7.460938 C 16.621094 7.4375 16.328125 7.484375 16.046875 7.597656 C 15.542969 7.792969 15.074219 8.042969 14.640625 8.351562 C 13.21875 7.960938 11.800781 7.960938 10.382812 8.351562 C 9.816406 7.945312 9.199219 7.65625 8.523438 7.480469 C 8.363281 7.457031 8.199219 7.449219 8.039062 7.460938 C 7.714844 8.203125 7.683594 8.960938 7.9375 9.726562 C 7.230469 10.550781 6.949219 11.503906 7.089844 12.585938 C 7.203125 14.488281 8.179688 15.660156 10.03125 16.09375 C 10.332031 16.15625 10.640625 16.207031 10.945312 16.25 C 10.789062 16.390625 10.671875 16.554688 10.585938 16.75 C 10.503906 16.960938 10.433594 17.175781 10.382812 17.390625 C 9.910156 17.609375 9.421875 17.660156 8.914062 17.539062 C 8.597656 17.429688 8.335938 17.246094 8.125 16.984375 C 7.988281 16.789062 7.851562 16.59375 7.714844 16.398438 C 7.53125 16.183594 7.3125 16.019531 7.0625 15.898438 C 6.792969 15.792969 6.527344 15.785156 6.257812 15.878906 C 6.222656 15.921875 6.210938 15.96875 6.230469 16.023438 C 6.269531 16.105469 6.328125 16.171875 6.398438 16.230469 C 6.597656 16.339844 6.777344 16.480469 6.933594 16.648438 C 7.203125 16.980469 7.410156 17.34375 7.558594 17.742188 C 7.792969 18.1875 8.152344 18.46875 8.640625 18.59375 C 8.984375 18.675781 9.328125 18.699219 9.679688 18.671875 C 9.90625 18.648438 10.132812 18.621094 10.359375 18.585938 C 10.375 19.144531 10.378906 19.703125 10.371094 20.265625 C 10.328125 20.445312 10.214844 20.550781 10.03125 20.585938 C 9.953125 20.597656 9.875 20.597656 9.796875 20.585938 C 7.59375 19.820312 5.949219 18.402344 4.863281 16.335938 C 3.917969 14.382812 3.707031 12.351562 4.238281 10.242188 C 4.976562 7.742188 6.507812 5.910156 8.835938 4.746094 C 11.035156 3.757812 13.269531 3.675781 15.539062 4.492188 C 17.933594 5.457031 19.597656 7.148438 20.527344 9.5625 C 21.320312 11.890625 21.179688 14.164062 20.097656 16.375 C 19.011719 18.433594 17.367188 19.835938 15.164062 20.585938 C 14.875 20.625 14.691406 20.503906 14.617188 20.226562 Z M 14.617188 20.226562 "/>
<path style=" stroke:none;fill-rule:evenodd;fill:rgb(7.45098%,7.843137%,9.019608%);fill-opacity:1;" d="M 14.617188 17.507812 C 14.628906 18.414062 14.628906 19.320312 14.617188 20.226562 C 14.59375 19.34375 14.59375 18.4375 14.617188 17.507812 Z M 14.617188 17.507812 "/>
</g>
</svg>
