<?xml version="1.0" encoding="UTF-8"?>
<svg id="a" xmlns="http://www.w3.org/2000/svg" viewBox="0 0 64 64">
  <defs>
    <style>
      .cls-1 {
        fill: #d17dfe;
      }

      .cls-1, .cls-2, .cls-3 {
        stroke-width: 0px;
      }

      .cls-2 {
        fill: #481a54;
      }

      .cls-3 {
        fill: #fff;
      }
    </style>
  </defs>
  <path class="cls-2" d="M35.8,58.61h-7.6c-1.05,0-1.9-.86-1.9-1.9v-3.61c-1.81-.48-3.52-1.24-5.23-2.09l-2.57,2.57c-.76.76-1.9.76-2.66,0l-5.32-5.42c-.76-.76-.76-1.9,0-2.66l2.57-2.57c-.95-1.62-1.62-3.42-2.09-5.23h-3.71c-1.05,0-1.9-.86-1.9-1.9v-7.6c0-1.05.86-1.9,1.9-1.9h3.61c.48-1.81,1.24-3.52,2.09-5.23l-2.57-2.57c-.76-.76-.76-1.9,0-2.66l5.42-5.32c.76-.76,1.9-.76,2.66,0l2.57,2.57c1.62-.95,3.42-1.62,5.23-2.09v-3.71c0-1.05.86-1.9,1.9-1.9h7.6c1.05,0,1.9.86,1.9,1.9v3.61c1.81.48,3.52,1.24,5.23,2.09l2.57-2.57c.76-.76,1.9-.76,2.66,0l5.42,5.32c.76.76.76,1.9,0,2.66l-2.57,2.66c.95,1.62,1.62,3.42,2.09,5.23h3.61c1.05,0,1.9.86,1.9,1.9v7.6c0,1.05-.86,1.9-1.9,1.9h-3.61c-.48,1.81-1.24,3.52-2.09,5.23l2.57,2.57c.76.76.76,1.9,0,2.66l-5.42,5.32c-.76.76-1.9.76-2.66,0l-2.57-2.47c-1.62.95-3.42,1.62-5.23,2.09v3.61c0,1.05-.86,1.9-1.9,1.9Z"/>
  <path class="cls-1" d="M51.58,30.1c-.95,0-1.71-.67-1.9-1.52-.48-2.38-1.43-4.66-2.76-6.65-.48-.76-.38-1.81.29-2.38l2.28-2.28-2.66-2.66-2.28,2.19c-.67.67-1.62.76-2.38.19-2-1.33-4.28-2.28-6.65-2.76-.95-.19-1.52-.95-1.52-1.9v-3.14h-3.8v3.23c0,.95-.67,1.71-1.52,1.9-2.38.48-4.66,1.43-6.65,2.76-.76.48-1.81.38-2.38-.29l-2.28-2.28-2.66,2.66,2.28,2.28c.67.67.76,1.62.19,2.38-1.33,2-2.28,4.28-2.76,6.65-.19.95-.95,1.52-1.9,1.52h-3.33v3.8h3.23c.95,0,1.71.67,1.9,1.52.48,2.38,1.43,4.66,2.76,6.65.48.76.38,1.81-.29,2.38l-2.28,2.28,2.66,2.66,2.28-2.28c.67-.67,1.62-.76,2.38-.19,2,1.33,4.28,2.28,6.65,2.76.95.19,1.52.95,1.52,1.9v3.14h3.8v-3.23c0-.95.67-1.71,1.52-1.9,2.38-.48,4.66-1.43,6.65-2.76.76-.48,1.81-.38,2.38.19l2.28,2.28,2.66-2.66-2.09-2c-.67-.67-.76-1.62-.19-2.38,1.33-2,2.28-4.28,2.76-6.65.19-.95.95-1.52,1.9-1.52h3.14v-3.8h-3.23v-.1Z"/>
  <path class="cls-3" d="M32,46.26c7.87,0,14.26-6.38,14.26-14.26s-6.38-14.26-14.26-14.26-14.26,6.38-14.26,14.26,6.38,14.26,14.26,14.26Z"/>
  <path class="cls-1" d="M32,42.45c5.77,0,10.45-4.68,10.45-10.45s-4.68-10.45-10.45-10.45-10.45,4.68-10.45,10.45,4.68,10.45,10.45,10.45Z"/>
  <path class="cls-2" d="M32,38.65c3.67,0,6.65-2.98,6.65-6.65s-2.98-6.65-6.65-6.65-6.65,2.98-6.65,6.65,2.98,6.65,6.65,6.65Z"/>
  <path class="cls-3" d="M32,34.85c1.57,0,2.85-1.28,2.85-2.85s-1.28-2.85-2.85-2.85-2.85,1.28-2.85,2.85,1.28,2.85,2.85,2.85Z"/>
</svg>