<?xml version="1.0" encoding="UTF-8"?><svg id="a" xmlns="http://www.w3.org/2000/svg" viewBox="0 0 64 64"><path d="M11,34.18l7.59-7.59c.78-.78,2.04-.78,2.82,0l6.59,6.53,11.17-11.12h-9.17c-1.1,0-2-.9-2-2s.9-2,2-2h14c1.1,0,2,.9,2,2v14c0,1.1-.9,2-2,2s-2-.9-2-2v-9.16l-12.53,12.52c-.78,.78-2.04,.78-2.82,0l-6.65-6.54-9,9v13.18h7v-6c0-1.1,.9-2,2-2s2,.9,2,2v6h8v-6c0-1.1,.9-2,2-2s2,.9,2,2v6h8v-6c0-1.1,.9-2,2-2s2,.9,2,2v6h7V11H11v23.18Z" fill="#04e1cb"/><path d="M26.65,37.36c.78,.78,2.04,.78,2.82,0l12.53-12.52v9.16c0,1.1,.9,2,2,2s2-.9,2-2v-14c0-1.1-.9-2-2-2h-14c-1.1,0-2,.9-2,2s.9,2,2,2h9.17l-11.17,11.12-6.59-6.53c-.78-.78-2.04-.78-2.82,0l-7.59,7.59v5.64l9-9,6.65,6.54Z" fill="#fff"/><path d="M55,7H9c-1.1,0-2,.9-2,2V55c0,1.1,.9,2,2,2H55c1.1,0,2-.9,2-2V9c0-1.1-.9-2-2-2Zm-2,46h-7v-6c0-1.1-.9-2-2-2s-2,.9-2,2v6h-8v-6c0-1.1-.9-2-2-2s-2,.9-2,2v6h-8v-6c0-1.1-.9-2-2-2s-2,.9-2,2v6h-7V11H53V53Z" fill="#0b827c"/></svg>