<?xml version="1.0" encoding="UTF-8"?>
<svg id="a" xmlns="http://www.w3.org/2000/svg" viewBox="0 0 64 64">
  <defs>
    <style>
      .cls-1 {
        fill: #ff538a;
      }

      .cls-1, .cls-2, .cls-3 {
        stroke-width: 0px;
      }

      .cls-2 {
        fill: #fff;
      }

      .cls-3 {
        fill: #8a033e;
      }
    </style>
  </defs>
  <path class="cls-1" d="M51.6,16.02c-3.83-3.64-9.76-3.64-13.5,0l-4.88,4.88c-.77.77-1.91.77-2.68,0l-4.88-4.88c-1.82-1.82-4.31-2.87-6.89-2.87-5.46,0-9.86,4.4-9.86,9.76,0,2.58,1.05,5.07,2.87,6.99l20.1,20.1,20.1-20.1c3.73-3.92,3.54-10.15-.38-13.88Z"/>
  <path class="cls-1" d="M19.45,20.8c-1.63,0-2.87,1.24-2.87,2.87,0,1.05-.86,1.91-1.91,1.91s-1.91-.86-1.91-1.91c0-3.73,2.97-6.7,6.7-6.7,1.05,0,1.91.86,1.91,1.91s-.86,1.91-1.91,1.91Z"/>
  <path class="cls-3" d="M54.67,13.34c-5.36-5.36-13.97-5.36-19.33,0l-3.54,3.54-3.54-3.54c-5.26-4.98-13.5-4.98-18.76,0-5.36,5.17-5.65,13.88-.38,19.33l21.44,21.44c.38.38.86.57,1.34.57s.96-.19,1.34-.57l21.44-21.44c5.36-5.36,5.36-13.97,0-19.33Z"/>
  <path class="cls-1" d="M31.89,49.99L11.79,29.89c-1.82-1.82-2.87-4.31-2.87-6.99,0-5.46,4.4-9.76,9.86-9.76,2.58,0,5.07,1.05,6.89,2.87l4.88,4.88c.77.77,1.91.77,2.68,0l4.88-4.88c3.83-3.64,9.76-3.64,13.5,0,3.92,3.73,4.12,9.95.38,13.88l-20.1,20.1Z"/>
  <path class="cls-2" d="M19.45,16.97c-3.73,0-6.7,2.97-6.7,6.7,0,1.05.86,1.91,1.91,1.91s1.91-.86,1.91-1.91c0-1.63,1.24-2.87,2.87-2.87,1.05,0,1.91-.86,1.91-1.91s-.86-1.91-1.91-1.91Z"/>
</svg>