<?xml version="1.0" encoding="UTF-8"?>
<svg xmlns="http://www.w3.org/2000/svg" xmlns:xlink="http://www.w3.org/1999/xlink" width="25px" height="25px" viewBox="0 0 25 21" version="1.1">
<g id="surface1">
<path style=" stroke:none;fill-rule:evenodd;fill:rgb(1.960784%,23.529412%,41.568627%);fill-opacity:1;" d="M 24.34375 13.289062 C 24.351562 13.382812 24.34375 13.476562 24.316406 13.566406 C 24.300781 13.410156 24.253906 13.261719 24.171875 13.125 C 23.964844 13.320312 23.871094 13.558594 23.886719 13.84375 C 23.828125 13.84375 23.773438 13.84375 23.714844 13.84375 C 23.714844 13.917969 23.714844 13.992188 23.714844 14.066406 C 23.625 14.058594 23.554688 14.09375 23.515625 14.175781 C 23.253906 14.023438 22.976562 14.039062 22.6875 14.230469 C 23.089844 14.226562 23.488281 14.261719 23.886719 14.339844 C 23.921875 14.195312 23.921875 14.058594 23.886719 13.925781 C 23.953125 13.898438 24 13.851562 24.03125 13.789062 C 24.167969 13.832031 24.3125 13.90625 24.457031 14.007812 C 24.390625 14.105469 24.296875 14.140625 24.171875 14.121094 C 24.164062 14.179688 24.171875 14.234375 24.199219 14.285156 C 24.21875 14.265625 24.238281 14.25 24.257812 14.230469 C 24.316406 14.394531 24.441406 14.480469 24.628906 14.480469 C 24.191406 14.515625 23.753906 14.515625 23.316406 14.480469 C 23.238281 14.402344 23.140625 14.359375 23.03125 14.339844 C 22.824219 14.488281 22.59375 14.53125 22.347656 14.480469 C 22.414062 14.382812 22.511719 14.328125 22.632812 14.3125 C 22.40625 14.222656 22.40625 14.132812 22.632812 14.035156 C 22.5 14.007812 22.367188 14 22.230469 14.007812 C 22.222656 14.082031 22.242188 14.148438 22.289062 14.203125 C 21.777344 14.195312 21.261719 14.175781 20.746094 14.148438 C 20.824219 14.058594 20.921875 13.992188 21.03125 13.953125 C 20.425781 13.917969 19.816406 13.878906 19.207031 13.84375 C 19.503906 13.785156 19.503906 13.726562 19.207031 13.675781 C 19.214844 13.535156 19.261719 13.40625 19.347656 13.289062 C 19.570312 13.613281 19.863281 13.707031 20.234375 13.566406 C 20.320312 13.570312 20.375 13.535156 20.40625 13.457031 C 20.0625 12.71875 19.71875 11.980469 19.378906 11.246094 C 19.546875 11.335938 19.71875 11.425781 19.890625 11.523438 C 19.84375 11.59375 19.789062 11.660156 19.71875 11.714844 C 19.753906 11.800781 19.792969 11.882812 19.835938 11.964844 C 19.878906 11.894531 19.9375 11.839844 20.003906 11.796875 C 20.097656 11.886719 20.144531 11.976562 20.148438 12.074219 C 20.1875 11.910156 20.1875 11.742188 20.148438 11.578125 C 20.109375 11.613281 20.074219 11.652344 20.035156 11.6875 C 19.914062 11.542969 19.921875 11.414062 20.0625 11.300781 C 20.132812 11.332031 20.199219 11.367188 20.261719 11.410156 C 20.28125 11.375 20.300781 11.339844 20.320312 11.300781 C 20.359375 11.382812 20.425781 11.417969 20.519531 11.410156 C 20.546875 11.3125 20.578125 11.222656 20.605469 11.136719 C 20.523438 11.09375 20.441406 11.066406 20.347656 11.050781 C 20.386719 11.035156 20.425781 11.015625 20.460938 10.996094 C 20.351562 10.976562 20.257812 10.929688 20.175781 10.859375 C 20.296875 10.789062 20.417969 10.734375 20.546875 10.695312 C 20.625 10.707031 20.679688 10.746094 20.71875 10.804688 C 21.160156 10.707031 21.597656 10.667969 22.03125 10.695312 C 22.191406 10.753906 22.203125 10.816406 22.058594 10.886719 C 22.097656 10.90625 22.136719 10.921875 22.175781 10.941406 C 22.054688 10.949219 21.957031 10.992188 21.890625 11.082031 C 22.132812 11.136719 22.382812 11.152344 22.632812 11.136719 C 22.648438 11.003906 22.648438 10.882812 22.632812 10.777344 C 22.703125 10.78125 22.757812 10.769531 22.800781 10.75 C 22.679688 10.660156 22.542969 10.585938 22.402344 10.527344 C 22.71875 10.488281 23.035156 10.453125 23.34375 10.417969 C 23.769531 10.414062 24.199219 10.429688 24.628906 10.472656 C 24.628906 10.417969 24.628906 10.363281 24.628906 10.304688 C 24.039062 10.296875 23.449219 10.304688 22.859375 10.335938 C 22.722656 10.351562 22.589844 10.378906 22.460938 10.417969 C 22.421875 10.398438 22.382812 10.378906 22.347656 10.363281 C 22.324219 10.402344 22.3125 10.460938 22.316406 10.527344 C 22.222656 10.417969 22.128906 10.304688 22.03125 10.195312 C 21.835938 10.246094 21.648438 10.300781 21.460938 10.363281 C 21.347656 10.371094 21.261719 10.335938 21.203125 10.25 C 21.355469 10.25 21.507812 10.25 21.660156 10.25 C 20.042969 5.714844 16.929688 2.566406 12.328125 0.800781 C 8.441406 2.207031 5.589844 4.710938 3.765625 8.316406 C 3.480469 8.949219 3.222656 9.59375 2.996094 10.25 C 3.148438 10.25 3.300781 10.25 3.453125 10.25 C 3.53125 10.25 3.605469 10.25 3.679688 10.25 C 3.699219 10.351562 3.660156 10.425781 3.566406 10.472656 C 3.5 10.375 3.40625 10.320312 3.28125 10.304688 C 3.226562 10.324219 3.167969 10.34375 3.109375 10.363281 C 3.21875 10.425781 3.332031 10.46875 3.453125 10.5 C 3.15625 10.605469 2.851562 10.578125 2.539062 10.417969 C 2.46875 10.480469 2.46875 10.546875 2.539062 10.609375 C 2.289062 10.695312 2.171875 10.613281 2.199219 10.363281 C 1.550781 10.304688 0.90625 10.292969 0.257812 10.335938 C 0.226562 10.421875 0.261719 10.496094 0.371094 10.554688 C 0.3125 10.632812 0.300781 10.714844 0.34375 10.804688 C 0.476562 10.746094 0.503906 10.664062 0.429688 10.554688 C 0.445312 10.546875 0.464844 10.535156 0.484375 10.527344 C 0.582031 10.707031 0.546875 10.847656 0.371094 10.941406 C 0.460938 11.042969 0.496094 11.164062 0.484375 11.300781 C 0.484375 11.40625 0.464844 11.496094 0.429688 11.578125 C 0.292969 11.136719 0.160156 10.691406 0.0273438 10.25 C 0.75 10.25 1.472656 10.25 2.199219 10.25 C 3.582031 5.917969 6.359375 2.722656 10.53125 0.664062 C 11.117188 0.410156 11.71875 0.199219 12.328125 0.0273438 C 17.402344 1.863281 20.78125 5.269531 22.460938 10.25 C 23.222656 10.25 23.980469 10.25 24.742188 10.25 C 24.511719 10.957031 24.300781 11.664062 24.117188 12.378906 C 24.199219 12.683594 24.273438 12.984375 24.34375 13.289062 Z M 24.34375 13.289062 "/>
<path style=" stroke:none;fill-rule:evenodd;fill:rgb(96.470588%,98.823529%,99.215686%);fill-opacity:1;" d="M 21.203125 10.25 C 19.949219 6.796875 17.722656 4.097656 14.527344 2.15625 C 13.820312 1.769531 13.089844 1.429688 12.328125 1.132812 C 11.277344 1.507812 10.277344 1.996094 9.332031 2.597656 C 9.132812 2.746094 8.941406 2.902344 8.761719 3.066406 C 8.011719 3.578125 7.320312 4.167969 6.679688 4.835938 C 5.535156 6.054688 4.621094 7.417969 3.9375 8.925781 C 3.757812 9.363281 3.597656 9.804688 3.453125 10.25 C 3.300781 10.25 3.148438 10.25 2.996094 10.25 C 3.222656 9.59375 3.480469 8.949219 3.765625 8.316406 C 5.589844 4.710938 8.441406 2.207031 12.328125 0.800781 C 16.929688 2.566406 20.042969 5.714844 21.660156 10.25 C 21.507812 10.25 21.355469 10.25 21.203125 10.25 Z M 21.203125 10.25 "/>
<path style=" stroke:none;fill-rule:evenodd;fill:rgb(47.45098%,73.333333%,90.196078%);fill-opacity:1;" d="M 12.355469 2.957031 C 12.28125 3.039062 12.199219 3.109375 12.101562 3.175781 C 11.710938 2.796875 11.28125 2.75 10.816406 3.039062 C 10.570312 3.332031 10.53125 3.644531 10.703125 3.980469 C 10.429688 4.105469 10.277344 4.320312 10.246094 4.613281 C 10.359375 5.089844 10.664062 5.304688 11.160156 5.25 C 11.355469 5.695312 11.699219 5.839844 12.1875 5.691406 C 12.378906 5.609375 12.492188 5.46875 12.527344 5.277344 C 12.757812 5.328125 12.988281 5.328125 13.214844 5.277344 C 13.355469 5.234375 13.429688 5.140625 13.441406 5 C 14.132812 5.082031 14.550781 4.796875 14.699219 4.144531 C 14.652344 3.757812 14.445312 3.472656 14.070312 3.289062 C 14.261719 3.25 14.394531 3.3125 14.46875 3.480469 C 14.722656 3.632812 14.867188 3.570312 14.898438 3.289062 C 15.007812 3.347656 15.113281 3.410156 15.210938 3.480469 C 15.183594 3.507812 15.152344 3.535156 15.125 3.566406 C 15.097656 3.839844 15.085938 4.117188 15.097656 4.394531 C 14.960938 4.382812 14.828125 4.394531 14.699219 4.421875 C 14.597656 4.640625 14.484375 4.851562 14.355469 5.054688 C 14.277344 5.136719 14.183594 5.171875 14.070312 5.167969 C 14.070312 5.222656 14.070312 5.277344 14.070312 5.332031 C 13.707031 5.234375 13.476562 5.363281 13.382812 5.71875 C 13.117188 5.703125 12.847656 5.71875 12.585938 5.773438 C 12.613281 5.828125 12.652344 5.875 12.699219 5.914062 C 12.894531 5.96875 13.085938 6.03125 13.269531 6.105469 C 13.140625 6.171875 13.007812 6.226562 12.871094 6.273438 C 12.886719 6.441406 12.855469 6.609375 12.785156 6.769531 C 12.671875 6.605469 12.539062 6.457031 12.386719 6.328125 C 12.367188 6.398438 12.339844 6.460938 12.300781 6.519531 C 12.460938 6.636719 12.453125 6.738281 12.273438 6.824219 C 12.121094 6.496094 11.910156 6.460938 11.644531 6.714844 C 11.625 6.695312 11.605469 6.675781 11.585938 6.660156 C 11.523438 6.761719 11.492188 6.871094 11.5 6.992188 C 11.445312 6.992188 11.386719 6.992188 11.328125 6.992188 C 11.347656 7.15625 11.273438 7.230469 11.101562 7.210938 C 11.023438 7.445312 10.871094 7.617188 10.644531 7.738281 C 10.589844 7.773438 10.53125 7.773438 10.472656 7.738281 C 10.417969 7.65625 10.34375 7.609375 10.246094 7.597656 C 10.144531 7.453125 10.03125 7.324219 9.902344 7.210938 C 9.355469 6.503906 8.796875 5.804688 8.21875 5.113281 C 7.691406 5.859375 7.207031 6.632812 6.765625 7.433594 C 6.179688 8.363281 5.605469 9.304688 5.050781 10.25 C 4.59375 10.25 4.136719 10.25 3.679688 10.25 C 3.605469 10.25 3.53125 10.25 3.453125 10.25 C 3.597656 9.804688 3.757812 9.363281 3.9375 8.925781 C 4.621094 7.417969 5.535156 6.054688 6.679688 4.835938 C 7.320312 4.167969 8.011719 3.578125 8.761719 3.066406 C 9.199219 2.890625 9.625 2.707031 10.046875 2.515625 C 10.191406 2.609375 10.351562 2.664062 10.53125 2.679688 C 10.53125 2.625 10.53125 2.570312 10.53125 2.515625 C 10.445312 2.527344 10.371094 2.511719 10.300781 2.460938 C 10.417969 2.359375 10.539062 2.265625 10.671875 2.183594 C 10.769531 2.300781 10.894531 2.382812 11.042969 2.429688 C 10.871094 2.519531 10.796875 2.65625 10.816406 2.847656 C 11.136719 2.789062 11.460938 2.78125 11.785156 2.820312 C 11.863281 2.855469 11.917969 2.910156 11.957031 2.984375 C 12.089844 3.003906 12.226562 2.992188 12.355469 2.957031 Z M 12.355469 2.957031 "/>
<path style=" stroke:none;fill-rule:evenodd;fill:rgb(10.980392%,59.607843%,82.745098%);fill-opacity:1;" d="M 12.355469 2.957031 C 12.785156 2.871094 13.125 3 13.382812 3.34375 C 13.605469 3.234375 13.835938 3.214844 14.070312 3.289062 C 14.445312 3.472656 14.652344 3.757812 14.699219 4.144531 C 14.550781 4.796875 14.132812 5.082031 13.441406 5 C 13.429688 5.140625 13.355469 5.234375 13.214844 5.277344 C 12.988281 5.328125 12.757812 5.328125 12.527344 5.277344 C 12.492188 5.46875 12.378906 5.609375 12.1875 5.691406 C 11.699219 5.839844 11.355469 5.695312 11.160156 5.25 C 10.664062 5.304688 10.359375 5.089844 10.246094 4.613281 C 10.277344 4.320312 10.429688 4.105469 10.703125 3.980469 C 10.53125 3.644531 10.570312 3.332031 10.816406 3.039062 C 11.28125 2.75 11.710938 2.796875 12.101562 3.175781 C 12.199219 3.109375 12.28125 3.039062 12.355469 2.957031 Z M 12.355469 2.957031 "/>
<path style=" stroke:none;fill-rule:evenodd;fill:rgb(47.843137%,73.333333%,89.803922%);fill-opacity:1;" d="M 21.203125 10.25 C 20.746094 10.25 20.292969 10.25 19.835938 10.25 C 19.796875 10.25 19.757812 10.25 19.71875 10.25 C 19.683594 10.125 19.609375 10.035156 19.492188 9.976562 C 18.832031 9.046875 18.15625 8.128906 17.464844 7.210938 C 17.417969 7.140625 17.351562 7.101562 17.265625 7.101562 C 17.273438 7.066406 17.292969 7.039062 17.324219 7.019531 C 16.890625 6.464844 16.460938 5.902344 16.039062 5.332031 C 15.917969 5.261719 15.792969 5.261719 15.667969 5.332031 C 15.320312 5.878906 14.957031 6.414062 14.582031 6.933594 C 14.234375 7.429688 13.882812 7.925781 13.527344 8.425781 C 13.335938 8.214844 13.152344 7.992188 12.984375 7.765625 C 12.664062 7.390625 12.332031 7.019531 11.984375 6.660156 C 11.644531 6.925781 11.332031 7.21875 11.042969 7.542969 C 10.875 7.679688 10.714844 7.824219 10.558594 7.984375 C 10.445312 7.863281 10.339844 7.734375 10.246094 7.597656 C 10.34375 7.609375 10.417969 7.65625 10.472656 7.738281 C 10.53125 7.773438 10.589844 7.773438 10.644531 7.738281 C 10.871094 7.617188 11.023438 7.445312 11.101562 7.210938 C 11.273438 7.230469 11.347656 7.15625 11.328125 6.992188 C 11.386719 6.992188 11.445312 6.992188 11.5 6.992188 C 11.492188 6.871094 11.523438 6.761719 11.585938 6.660156 C 11.605469 6.675781 11.625 6.695312 11.644531 6.714844 C 11.910156 6.460938 12.121094 6.496094 12.273438 6.824219 C 12.453125 6.738281 12.460938 6.636719 12.300781 6.519531 C 12.339844 6.460938 12.367188 6.398438 12.386719 6.328125 C 12.539062 6.457031 12.671875 6.605469 12.785156 6.769531 C 12.855469 6.609375 12.886719 6.441406 12.871094 6.273438 C 13.007812 6.226562 13.140625 6.171875 13.269531 6.105469 C 13.085938 6.03125 12.894531 5.96875 12.699219 5.914062 C 12.652344 5.875 12.613281 5.828125 12.585938 5.773438 C 12.847656 5.71875 13.117188 5.703125 13.382812 5.71875 C 13.476562 5.363281 13.707031 5.234375 14.070312 5.332031 C 14.070312 5.277344 14.070312 5.222656 14.070312 5.167969 C 14.183594 5.171875 14.277344 5.136719 14.355469 5.054688 C 14.484375 4.851562 14.597656 4.640625 14.699219 4.421875 C 14.828125 4.394531 14.960938 4.382812 15.097656 4.394531 C 15.085938 4.117188 15.097656 3.839844 15.125 3.566406 C 15.152344 3.535156 15.183594 3.507812 15.210938 3.480469 C 15.113281 3.410156 15.007812 3.347656 14.898438 3.289062 C 14.867188 3.570312 14.722656 3.632812 14.46875 3.480469 C 14.394531 3.3125 14.261719 3.25 14.070312 3.289062 C 13.835938 3.214844 13.605469 3.234375 13.382812 3.34375 C 13.125 3 12.785156 2.871094 12.355469 2.957031 C 12.226562 2.992188 12.089844 3.003906 11.957031 2.984375 C 11.917969 2.910156 11.863281 2.855469 11.785156 2.820312 C 11.460938 2.78125 11.136719 2.789062 10.816406 2.847656 C 10.796875 2.65625 10.871094 2.519531 11.042969 2.429688 C 10.894531 2.382812 10.769531 2.300781 10.671875 2.183594 C 10.539062 2.265625 10.417969 2.359375 10.300781 2.460938 C 10.371094 2.511719 10.445312 2.527344 10.53125 2.515625 C 10.53125 2.570312 10.53125 2.625 10.53125 2.679688 C 10.351562 2.664062 10.191406 2.609375 10.046875 2.515625 C 9.625 2.707031 9.199219 2.890625 8.761719 3.066406 C 8.941406 2.902344 9.132812 2.746094 9.332031 2.597656 C 10.277344 1.996094 11.277344 1.507812 12.328125 1.132812 C 13.089844 1.429688 13.820312 1.769531 14.527344 2.15625 C 17.722656 4.097656 19.949219 6.796875 21.203125 10.25 Z M 21.203125 10.25 "/>
<path style=" stroke:none;fill-rule:evenodd;fill:rgb(80.784314%,82.745098%,84.313725%);fill-opacity:1;" d="M 9.902344 7.210938 C 9.730469 7.332031 9.550781 7.441406 9.359375 7.542969 C 9.085938 7.417969 8.800781 7.304688 8.503906 7.210938 C 8.109375 7.445312 7.71875 7.683594 7.335938 7.929688 C 7.140625 7.761719 6.953125 7.597656 6.765625 7.433594 C 7.207031 6.632812 7.691406 5.859375 8.21875 5.113281 C 8.796875 5.804688 9.355469 6.503906 9.902344 7.210938 Z M 9.902344 7.210938 "/>
<path style=" stroke:none;fill-rule:evenodd;fill:rgb(80.784314%,83.137255%,85.098039%);fill-opacity:1;" d="M 17.265625 7.101562 C 17.089844 7.183594 16.917969 7.277344 16.753906 7.378906 C 16.457031 7.1875 16.171875 6.984375 15.894531 6.769531 C 15.625 6.910156 15.351562 7.039062 15.070312 7.15625 C 14.898438 7.089844 14.738281 7.015625 14.582031 6.933594 C 14.957031 6.414062 15.320312 5.878906 15.667969 5.332031 C 15.792969 5.261719 15.917969 5.261719 16.039062 5.332031 C 16.460938 5.902344 16.890625 6.464844 17.324219 7.019531 C 17.292969 7.039062 17.273438 7.066406 17.265625 7.101562 Z M 17.265625 7.101562 "/>
<path style=" stroke:none;fill-rule:evenodd;fill:rgb(28.235294%,28.627451%,48.627451%);fill-opacity:1;" d="M 17.265625 7.101562 C 17.351562 7.101562 17.417969 7.140625 17.464844 7.210938 C 18.15625 8.128906 18.832031 9.046875 19.492188 9.976562 C 19.609375 10.035156 19.683594 10.125 19.71875 10.25 C 14.832031 10.25 9.941406 10.25 5.050781 10.25 C 5.605469 9.304688 6.179688 8.363281 6.765625 7.433594 C 6.953125 7.597656 7.140625 7.761719 7.335938 7.929688 C 7.71875 7.683594 8.109375 7.445312 8.503906 7.210938 C 8.800781 7.304688 9.085938 7.417969 9.359375 7.542969 C 9.550781 7.441406 9.730469 7.332031 9.902344 7.210938 C 10.03125 7.324219 10.144531 7.453125 10.246094 7.597656 C 10.339844 7.734375 10.445312 7.863281 10.558594 7.984375 C 10.714844 7.824219 10.875 7.679688 11.042969 7.542969 C 11.179688 7.71875 11.339844 7.867188 11.53125 7.984375 C 11.675781 7.917969 11.828125 7.863281 11.984375 7.820312 C 12.144531 7.917969 12.316406 7.992188 12.5 8.039062 C 12.65625 7.9375 12.816406 7.84375 12.984375 7.765625 C 13.152344 7.992188 13.335938 8.214844 13.527344 8.425781 C 13.882812 7.925781 14.234375 7.429688 14.582031 6.933594 C 14.738281 7.015625 14.898438 7.089844 15.070312 7.15625 C 15.351562 7.039062 15.625 6.910156 15.894531 6.769531 C 16.171875 6.984375 16.457031 7.1875 16.753906 7.378906 C 16.917969 7.277344 17.089844 7.183594 17.265625 7.101562 Z M 17.265625 7.101562 "/>
<path style=" stroke:none;fill-rule:evenodd;fill:rgb(80.784314%,82.745098%,84.705882%);fill-opacity:1;" d="M 12.984375 7.765625 C 12.816406 7.84375 12.65625 7.9375 12.5 8.039062 C 12.316406 7.992188 12.144531 7.917969 11.984375 7.820312 C 11.828125 7.863281 11.675781 7.917969 11.53125 7.984375 C 11.339844 7.867188 11.179688 7.71875 11.042969 7.542969 C 11.332031 7.21875 11.644531 6.925781 11.984375 6.660156 C 12.332031 7.019531 12.664062 7.390625 12.984375 7.765625 Z M 12.984375 7.765625 "/>
<path style=" stroke:none;fill-rule:evenodd;fill:rgb(29.411765%,27.843137%,49.803922%);fill-opacity:1;" d="M 19.492188 9.976562 C 19.480469 10.046875 19.5 10.113281 19.550781 10.167969 C 14.753906 10.207031 9.960938 10.207031 5.164062 10.167969 C 5.292969 10.15625 5.417969 10.128906 5.535156 10.085938 C 10.09375 10.082031 14.660156 10.101562 19.234375 10.140625 C 19.285156 10.035156 19.371094 9.976562 19.492188 9.976562 Z M 19.492188 9.976562 "/>
<path style=" stroke:none;fill-rule:evenodd;fill:rgb(0.784314%,23.921569%,42.352941%);fill-opacity:1;" d="M 19.378906 11.246094 C 19.121094 11.15625 18.875 11.175781 18.636719 11.300781 C 18.464844 11.722656 18.273438 12.128906 18.066406 12.515625 C 17.988281 12.507812 17.910156 12.519531 17.835938 12.542969 C 17.878906 12.664062 17.859375 12.785156 17.78125 12.902344 C 17.679688 12.808594 17.605469 12.699219 17.550781 12.574219 C 17.519531 12.582031 17.488281 12.601562 17.464844 12.628906 C 17.445312 12.425781 17.425781 12.222656 17.410156 12.019531 C 17.34375 11.894531 17.257812 11.875 17.152344 11.964844 C 17.019531 11.933594 16.886719 11.90625 16.753906 11.882812 C 16.933594 11.871094 17.105469 11.84375 17.265625 11.796875 C 17.34375 11.773438 17.382812 11.71875 17.378906 11.632812 C 17.375 11.496094 17.355469 11.359375 17.324219 11.21875 C 16.707031 11.210938 16.097656 11.222656 15.496094 11.246094 C 15.460938 11.253906 15.433594 11.269531 15.410156 11.300781 C 15.382812 12.074219 15.371094 12.847656 15.382812 13.621094 C 16.050781 13.605469 16.714844 13.621094 17.378906 13.675781 C 17.078125 13.734375 16.773438 13.75 16.46875 13.734375 C 16.46875 13.789062 16.46875 13.84375 16.46875 13.898438 C 16.871094 13.894531 17.269531 13.867188 17.664062 13.816406 C 17.785156 13.832031 17.800781 13.878906 17.722656 13.953125 C 17.566406 13.980469 17.433594 14.046875 17.324219 14.148438 C 16.640625 14.128906 16.03125 14.140625 15.496094 14.175781 C 15.457031 14.15625 15.421875 14.136719 15.382812 14.121094 C 15.433594 13.910156 15.339844 13.800781 15.097656 13.789062 C 15.085938 13.652344 15.125 13.53125 15.210938 13.429688 C 15.195312 12.683594 15.136719 11.953125 15.039062 11.246094 C 14.835938 11.195312 14.628906 11.175781 14.410156 11.191406 C 14.429688 11.46875 14.410156 11.746094 14.355469 12.019531 C 14.070312 12.074219 13.785156 12.09375 13.5 12.074219 C 13.503906 11.816406 13.515625 11.558594 13.527344 11.300781 C 13.316406 11.25 13.097656 11.230469 12.871094 11.246094 C 12.769531 11.628906 12.71875 12.035156 12.726562 12.460938 C 12.6875 12.492188 12.660156 12.527344 12.644531 12.574219 C 12.726562 12.867188 12.746094 13.160156 12.699219 13.457031 C 12.625 13.28125 12.578125 13.09375 12.558594 12.902344 C 12.378906 12.796875 12.367188 12.679688 12.527344 12.542969 C 12.390625 12.246094 12.21875 12.246094 12.015625 12.542969 C 12.097656 12.558594 12.171875 12.585938 12.242188 12.628906 C 12.308594 12.679688 12.308594 12.726562 12.242188 12.765625 C 11.933594 12.808594 11.628906 12.800781 11.328125 12.738281 C 11.328125 12.277344 11.328125 11.816406 11.328125 11.355469 C 11.328125 11.300781 11.328125 11.246094 11.328125 11.191406 C 11.089844 11.148438 10.851562 11.074219 10.617188 10.96875 C 10.695312 10.855469 10.761719 10.726562 10.816406 10.582031 C 10.628906 10.554688 10.476562 10.609375 10.359375 10.75 C 10.308594 10.703125 10.289062 10.648438 10.300781 10.582031 C 10.226562 10.582031 10.148438 10.582031 10.074219 10.582031 C 10.0625 10.71875 10.101562 10.839844 10.1875 10.941406 C 10.15625 11.054688 10.082031 11.101562 9.960938 11.082031 C 9.976562 10.957031 9.941406 10.855469 9.847656 10.777344 C 9.996094 10.59375 9.9375 10.539062 9.675781 10.609375 C 9.753906 10.75 9.714844 10.863281 9.558594 10.941406 C 9.410156 10.9375 9.257812 10.929688 9.105469 10.914062 C 9.125 11.027344 9.125 11.128906 9.105469 11.21875 C 9.230469 11.347656 9.296875 11.320312 9.304688 11.136719 C 9.339844 11.171875 9.378906 11.210938 9.417969 11.246094 C 9.445312 11.910156 9.457031 12.570312 9.445312 13.234375 C 9.386719 13.242188 9.328125 13.234375 9.273438 13.207031 C 9.101562 13.027344 8.949219 12.835938 8.820312 12.628906 C 8.617188 12.164062 8.410156 11.703125 8.191406 11.246094 C 7.941406 11.171875 7.695312 11.171875 7.449219 11.246094 C 7.390625 11.246094 7.335938 11.246094 7.277344 11.246094 C 7.277344 11.449219 7.183594 11.578125 6.992188 11.632812 C 7.003906 11.566406 6.984375 11.511719 6.933594 11.46875 C 6.914062 11.496094 6.898438 11.523438 6.878906 11.550781 C 6.933594 11.632812 6.992188 11.714844 7.050781 11.796875 C 6.898438 12.101562 6.859375 12.09375 6.933594 11.769531 C 6.746094 11.71875 6.707031 11.773438 6.820312 11.9375 C 6.828125 12.027344 6.789062 12.09375 6.707031 12.128906 C 6.59375 12.039062 6.476562 11.945312 6.363281 11.855469 C 6.285156 12.015625 6.304688 12.160156 6.421875 12.296875 C 6.316406 12.351562 6.238281 12.4375 6.191406 12.542969 C 6.121094 12.589844 6.046875 12.617188 5.964844 12.628906 C 6.375 12.15625 6.335938 11.722656 5.851562 11.328125 C 5.722656 11.273438 5.589844 11.246094 5.449219 11.246094 C 5.449219 11.226562 5.449219 11.210938 5.449219 11.191406 C 5.207031 11.152344 4.921875 11.113281 4.59375 11.082031 C 4.621094 11.027344 4.660156 10.980469 4.707031 10.941406 C 4.574219 10.910156 4.441406 10.921875 4.308594 10.96875 C 4.144531 10.914062 3.992188 10.878906 3.851562 10.859375 C 3.816406 10.894531 3.777344 10.933594 3.738281 10.96875 C 3.386719 10.949219 3.042969 10.894531 2.710938 10.804688 C 2.636719 10.835938 2.5625 10.863281 2.484375 10.886719 C 2.636719 10.921875 2.636719 10.960938 2.484375 10.996094 C 2.273438 11.050781 2.0625 11.109375 1.855469 11.164062 C 1.945312 11.175781 2.019531 11.203125 2.082031 11.246094 C 1.96875 11.246094 1.855469 11.246094 1.742188 11.246094 C 1.742188 11.410156 1.742188 11.578125 1.742188 11.742188 C 1.96875 11.742188 2.199219 11.742188 2.425781 11.742188 C 2.476562 12.335938 2.488281 12.925781 2.453125 13.511719 C 2.667969 13.566406 2.886719 13.582031 3.109375 13.566406 C 3.109375 13.511719 3.109375 13.457031 3.109375 13.402344 C 3.15625 12.894531 3.1875 12.378906 3.195312 11.855469 C 3.441406 12.066406 3.679688 12.066406 3.910156 11.855469 C 3.980469 11.660156 3.980469 11.46875 3.910156 11.273438 C 3.917969 11.214844 3.945312 11.167969 3.996094 11.136719 C 4.0625 11.421875 4.089844 11.714844 4.082031 12.019531 C 4.0625 12.296875 4.042969 12.574219 4.023438 12.847656 C 3.941406 13.136719 3.875 13.136719 3.824219 12.847656 C 3.785156 12.796875 3.734375 12.785156 3.679688 12.820312 C 3.773438 12.941406 3.820312 13.078125 3.824219 13.234375 C 3.84375 13.199219 3.863281 13.160156 3.882812 13.125 C 3.890625 13.292969 3.9375 13.453125 4.023438 13.59375 C 4.003906 13.613281 3.984375 13.632812 3.96875 13.648438 C 4.066406 13.675781 4.160156 13.710938 4.253906 13.761719 C 4.058594 13.8125 3.886719 13.894531 3.738281 14.007812 C 3.746094 13.933594 3.738281 13.859375 3.710938 13.789062 C 3.695312 13.914062 3.667969 14.03125 3.625 14.148438 C 3.359375 14.183594 3.089844 14.183594 2.824219 14.148438 C 2.75 14.109375 2.75 14.074219 2.824219 14.035156 C 2.988281 13.972656 3.160156 13.9375 3.339844 13.925781 C 3.417969 13.878906 3.410156 13.847656 3.308594 13.84375 C 3.054688 13.882812 2.800781 13.914062 2.539062 13.925781 C 2.476562 14.105469 2.359375 14.175781 2.199219 14.148438 C 2.230469 14.226562 2.246094 14.296875 2.253906 14.367188 C 2.136719 14.386719 2.023438 14.414062 1.910156 14.453125 C 1.78125 14.371094 1.65625 14.277344 1.542969 14.175781 C 1.347656 14.226562 1.148438 14.246094 0.941406 14.230469 C 0.988281 13.765625 0.941406 13.304688 0.800781 12.847656 C 0.78125 12.867188 0.761719 12.886719 0.742188 12.902344 C 0.71875 12.792969 0.671875 12.703125 0.597656 12.628906 C 0.660156 12.484375 0.667969 12.339844 0.628906 12.183594 C 0.535156 11.988281 0.46875 11.785156 0.429688 11.578125 C 0.464844 11.496094 0.484375 11.40625 0.484375 11.300781 C 0.496094 11.164062 0.460938 11.042969 0.371094 10.941406 C 0.546875 10.847656 0.582031 10.707031 0.484375 10.527344 C 0.464844 10.535156 0.445312 10.546875 0.429688 10.554688 C 0.503906 10.664062 0.476562 10.746094 0.34375 10.804688 C 0.300781 10.714844 0.3125 10.632812 0.371094 10.554688 C 0.261719 10.496094 0.226562 10.421875 0.257812 10.335938 C 0.90625 10.292969 1.550781 10.304688 2.199219 10.363281 C 2.171875 10.613281 2.289062 10.695312 2.539062 10.609375 C 2.46875 10.546875 2.46875 10.480469 2.539062 10.417969 C 2.851562 10.578125 3.15625 10.605469 3.453125 10.5 C 3.332031 10.46875 3.21875 10.425781 3.109375 10.363281 C 3.167969 10.34375 3.226562 10.324219 3.28125 10.304688 C 3.40625 10.320312 3.5 10.375 3.566406 10.472656 C 3.660156 10.425781 3.699219 10.351562 3.679688 10.25 C 4.136719 10.25 4.59375 10.25 5.050781 10.25 C 5.070312 10.289062 5.085938 10.324219 5.109375 10.363281 C 5.238281 10.40625 5.371094 10.433594 5.507812 10.445312 C 10.207031 10.464844 14.90625 10.480469 19.605469 10.5 C 19.53125 10.585938 19.550781 10.648438 19.664062 10.695312 C 19.839844 10.582031 19.898438 10.433594 19.835938 10.25 C 20.292969 10.25 20.746094 10.25 21.203125 10.25 C 21.261719 10.335938 21.347656 10.371094 21.460938 10.363281 C 21.648438 10.300781 21.835938 10.246094 22.03125 10.195312 C 22.128906 10.304688 22.222656 10.417969 22.316406 10.527344 C 22.3125 10.460938 22.324219 10.402344 22.347656 10.363281 C 22.382812 10.378906 22.421875 10.398438 22.460938 10.417969 C 22.589844 10.378906 22.722656 10.351562 22.859375 10.335938 C 23.449219 10.304688 24.039062 10.296875 24.628906 10.304688 C 24.628906 10.363281 24.628906 10.417969 24.628906 10.472656 C 24.199219 10.429688 23.769531 10.414062 23.34375 10.417969 C 23.035156 10.453125 22.71875 10.488281 22.402344 10.527344 C 22.542969 10.585938 22.679688 10.660156 22.800781 10.75 C 22.757812 10.769531 22.703125 10.78125 22.632812 10.777344 C 22.648438 10.882812 22.648438 11.003906 22.632812 11.136719 C 22.382812 11.152344 22.132812 11.136719 21.890625 11.082031 C 21.957031 10.992188 22.054688 10.949219 22.175781 10.941406 C 22.136719 10.921875 22.097656 10.90625 22.058594 10.886719 C 22.203125 10.816406 22.191406 10.753906 22.03125 10.695312 C 21.597656 10.667969 21.160156 10.707031 20.71875 10.804688 C 20.679688 10.746094 20.625 10.707031 20.546875 10.695312 C 20.417969 10.734375 20.296875 10.789062 20.175781 10.859375 C 20.257812 10.929688 20.351562 10.976562 20.460938 10.996094 C 20.425781 11.015625 20.386719 11.035156 20.347656 11.050781 C 20.441406 11.066406 20.523438 11.09375 20.605469 11.136719 C 20.578125 11.222656 20.546875 11.3125 20.519531 11.410156 C 20.425781 11.417969 20.359375 11.382812 20.320312 11.300781 C 20.300781 11.339844 20.28125 11.375 20.261719 11.410156 C 20.199219 11.367188 20.132812 11.332031 20.0625 11.300781 C 19.921875 11.414062 19.914062 11.542969 20.035156 11.6875 C 20.074219 11.652344 20.109375 11.613281 20.148438 11.578125 C 20.1875 11.742188 20.1875 11.910156 20.148438 12.074219 C 20.144531 11.976562 20.097656 11.886719 20.003906 11.796875 C 19.9375 11.839844 19.878906 11.894531 19.835938 11.964844 C 19.792969 11.882812 19.753906 11.800781 19.71875 11.714844 C 19.789062 11.660156 19.84375 11.59375 19.890625 11.523438 C 19.71875 11.425781 19.546875 11.335938 19.378906 11.246094 Z M 19.378906 11.246094 "/>
<path style=" stroke:none;fill-rule:evenodd;fill:rgb(0.392157%,24.705882%,41.568627%);fill-opacity:1;" d="M 5.050781 10.25 C 9.941406 10.25 14.832031 10.25 19.71875 10.25 C 19.757812 10.25 19.796875 10.25 19.835938 10.25 C 19.898438 10.433594 19.839844 10.582031 19.664062 10.695312 C 19.550781 10.648438 19.53125 10.585938 19.605469 10.5 C 14.90625 10.480469 10.207031 10.464844 5.507812 10.445312 C 5.371094 10.433594 5.238281 10.40625 5.109375 10.363281 C 5.085938 10.324219 5.070312 10.289062 5.050781 10.25 Z M 5.050781 10.25 "/>
<path style=" stroke:none;fill-rule:evenodd;fill:rgb(95.686275%,97.254902%,97.647059%);fill-opacity:1;" d="M 3.109375 13.402344 C 3.109375 13.457031 3.109375 13.511719 3.109375 13.566406 C 2.886719 13.582031 2.667969 13.566406 2.453125 13.511719 C 2.488281 12.925781 2.476562 12.335938 2.425781 11.742188 C 2.199219 11.742188 1.96875 11.742188 1.742188 11.742188 C 1.742188 11.578125 1.742188 11.410156 1.742188 11.246094 C 1.855469 11.246094 1.96875 11.246094 2.082031 11.246094 C 2.628906 11.207031 3.179688 11.199219 3.738281 11.21875 C 3.84375 11.375 3.882812 11.546875 3.851562 11.742188 C 3.605469 11.757812 3.367188 11.773438 3.140625 11.796875 C 3.109375 12.332031 3.101562 12.867188 3.109375 13.402344 Z M 3.109375 13.402344 "/>
<path style=" stroke:none;fill-rule:evenodd;fill:rgb(74.509804%,82.352941%,87.058824%);fill-opacity:1;" d="M 11.328125 11.191406 C 11.328125 11.246094 11.328125 11.300781 11.328125 11.355469 C 11.125 11.304688 10.917969 11.289062 10.703125 11.300781 C 10.703125 11.539062 10.703125 11.78125 10.703125 12.019531 C 10.636719 11.773438 10.628906 11.515625 10.671875 11.246094 C 10.890625 11.246094 11.109375 11.226562 11.328125 11.191406 Z M 11.328125 11.191406 "/>
<path style=" stroke:none;fill-rule:evenodd;fill:rgb(95.686275%,97.254902%,98.039216%);fill-opacity:1;" d="M 17.265625 11.796875 C 16.902344 11.808594 16.539062 11.789062 16.179688 11.742188 C 16.179688 11.855469 16.179688 11.964844 16.179688 12.074219 C 16.542969 12.066406 16.90625 12.074219 17.265625 12.101562 C 17.320312 12.273438 17.339844 12.445312 17.324219 12.628906 C 16.941406 12.628906 16.5625 12.628906 16.179688 12.628906 C 16.179688 12.738281 16.179688 12.847656 16.179688 12.960938 C 16.582031 12.949219 16.980469 12.960938 17.378906 12.988281 C 17.453125 13.160156 17.453125 13.335938 17.378906 13.511719 C 16.753906 13.566406 16.125 13.585938 15.496094 13.566406 C 15.496094 12.792969 15.496094 12.019531 15.496094 11.246094 C 16.097656 11.222656 16.707031 11.210938 17.324219 11.21875 C 17.355469 11.359375 17.375 11.496094 17.378906 11.632812 C 17.382812 11.71875 17.34375 11.773438 17.265625 11.796875 Z M 17.265625 11.796875 "/>
<path style=" stroke:none;fill-rule:evenodd;fill:rgb(96.862745%,98.431373%,98.431373%);fill-opacity:1;" d="M 20.863281 11.191406 C 21.300781 11.203125 21.738281 11.230469 22.175781 11.273438 C 22.394531 11.335938 22.59375 11.4375 22.773438 11.578125 C 23.179688 12.25 23.09375 12.847656 22.515625 13.375 C 21.949219 13.566406 21.367188 13.613281 20.777344 13.511719 C 20.765625 13.132812 20.757812 12.757812 20.746094 12.378906 C 20.75 11.96875 20.789062 11.574219 20.863281 11.191406 Z M 20.863281 11.191406 "/>
<path style=" stroke:none;fill-rule:evenodd;fill:rgb(96.470588%,97.647059%,98.039216%);fill-opacity:1;" d="M 15.039062 11.246094 C 15.050781 12 15.039062 12.757812 15.011719 13.511719 C 14.816406 13.566406 14.617188 13.582031 14.410156 13.566406 C 14.367188 13.257812 14.347656 12.941406 14.355469 12.628906 C 14.203125 12.628906 14.050781 12.628906 13.898438 12.628906 C 13.769531 12.613281 13.644531 12.632812 13.527344 12.683594 C 13.519531 12.972656 13.511719 13.257812 13.5 13.539062 C 13.289062 13.566406 13.082031 13.578125 12.871094 13.566406 C 12.871094 12.792969 12.871094 12.019531 12.871094 11.246094 C 13.097656 11.230469 13.316406 11.25 13.527344 11.300781 C 13.515625 11.558594 13.503906 11.816406 13.5 12.074219 C 13.785156 12.09375 14.070312 12.074219 14.355469 12.019531 C 14.410156 11.746094 14.429688 11.46875 14.410156 11.191406 C 14.628906 11.175781 14.835938 11.195312 15.039062 11.246094 Z M 15.039062 11.246094 "/>
<path style=" stroke:none;fill-rule:evenodd;fill:rgb(96.862745%,98.431373%,98.431373%);fill-opacity:1;" d="M 19.378906 11.246094 C 19.71875 11.980469 20.0625 12.71875 20.40625 13.457031 C 20.375 13.535156 20.320312 13.570312 20.234375 13.566406 C 20.0625 13.578125 19.890625 13.566406 19.71875 13.539062 C 19.6875 13.414062 19.632812 13.304688 19.550781 13.207031 C 19.210938 13.125 18.867188 13.109375 18.523438 13.152344 C 18.4375 13.269531 18.378906 13.398438 18.351562 13.539062 C 18.121094 13.566406 17.894531 13.578125 17.664062 13.566406 C 17.753906 13.195312 17.886719 12.847656 18.066406 12.515625 C 18.273438 12.128906 18.464844 11.722656 18.636719 11.300781 C 18.875 11.175781 19.121094 11.15625 19.378906 11.246094 Z M 19.378906 11.246094 "/>
<path style=" stroke:none;fill-rule:evenodd;fill:rgb(3.137255%,16.470588%,28.627451%);fill-opacity:1;" d="M 22.230469 12.683594 C 22.363281 12.074219 22.113281 11.796875 21.488281 11.855469 C 21.488281 12.203125 21.488281 12.554688 21.488281 12.902344 C 21.640625 12.902344 21.792969 12.902344 21.945312 12.902344 C 21.789062 12.957031 21.617188 12.976562 21.433594 12.960938 C 21.414062 12.558594 21.433594 12.164062 21.488281 11.769531 C 22.195312 11.726562 22.445312 12.03125 22.230469 12.683594 Z M 22.230469 12.683594 "/>
<path style=" stroke:none;fill-rule:evenodd;fill:rgb(1.176471%,23.921569%,41.960784%);fill-opacity:1;" d="M 22.230469 12.683594 C 22.1875 12.816406 22.09375 12.890625 21.945312 12.902344 C 21.792969 12.902344 21.640625 12.902344 21.488281 12.902344 C 21.488281 12.554688 21.488281 12.203125 21.488281 11.855469 C 22.113281 11.796875 22.363281 12.074219 22.230469 12.683594 Z M 22.230469 12.683594 "/>
<path style=" stroke:none;fill-rule:evenodd;fill:rgb(5.098039%,20.392157%,36.470588%);fill-opacity:1;" d="M 18.921875 12.019531 C 18.996094 12.011719 19.0625 12.027344 19.121094 12.074219 C 19.136719 12.234375 19.183594 12.378906 19.265625 12.515625 C 19.246094 12.5625 19.21875 12.597656 19.179688 12.628906 C 19.035156 12.59375 18.894531 12.554688 18.75 12.515625 C 18.839844 12.363281 18.898438 12.195312 18.921875 12.019531 Z M 18.921875 12.019531 "/>
<path style=" stroke:none;fill-rule:evenodd;fill:rgb(1.568627%,23.921569%,41.176471%);fill-opacity:1;" d="M 11.328125 11.191406 C 11.109375 11.226562 10.890625 11.246094 10.671875 11.246094 C 10.628906 11.515625 10.636719 11.773438 10.703125 12.019531 C 10.675781 12.539062 10.675781 13.042969 10.703125 13.539062 C 11.292969 13.578125 11.882812 13.578125 12.472656 13.539062 C 12.515625 13.351562 12.515625 13.15625 12.472656 12.960938 C 12.089844 12.960938 11.710938 12.960938 11.328125 12.960938 C 11.328125 12.886719 11.328125 12.8125 11.328125 12.738281 C 11.628906 12.800781 11.933594 12.808594 12.242188 12.765625 C 12.308594 12.726562 12.308594 12.679688 12.242188 12.628906 C 12.171875 12.585938 12.097656 12.558594 12.015625 12.542969 C 12.21875 12.246094 12.390625 12.246094 12.527344 12.542969 C 12.367188 12.679688 12.378906 12.796875 12.558594 12.902344 C 12.578125 13.09375 12.625 13.28125 12.699219 13.457031 C 12.746094 13.160156 12.726562 12.867188 12.644531 12.574219 C 12.660156 12.527344 12.6875 12.492188 12.726562 12.460938 C 12.71875 12.035156 12.769531 11.628906 12.871094 11.246094 C 12.871094 12.019531 12.871094 12.792969 12.871094 13.566406 C 13.082031 13.578125 13.289062 13.566406 13.5 13.539062 C 13.511719 13.257812 13.519531 12.972656 13.527344 12.683594 C 13.644531 12.632812 13.769531 12.613281 13.898438 12.628906 C 13.941406 12.671875 14 12.699219 14.070312 12.710938 C 14.03125 12.765625 13.992188 12.820312 13.957031 12.875 C 14.058594 12.941406 14.164062 13.003906 14.269531 13.070312 C 14.273438 13.296875 14.320312 13.507812 14.410156 13.707031 C 14.265625 13.804688 14.210938 13.945312 14.242188 14.121094 C 14.363281 14.113281 14.480469 14.078125 14.582031 14.007812 C 14.730469 14.039062 14.882812 14.046875 15.039062 14.035156 C 15.066406 14.058594 15.085938 14.085938 15.097656 14.121094 C 14.660156 14.183594 14.222656 14.191406 13.785156 14.148438 C 13.867188 14.109375 13.90625 14.042969 13.898438 13.953125 C 13.671875 13.917969 13.574219 14.007812 13.613281 14.230469 C 15.023438 14.300781 16.441406 14.339844 17.867188 14.339844 C 19.246094 14.339844 20.625 14.320312 22.003906 14.285156 C 22.140625 14.3125 22.179688 14.378906 22.117188 14.480469 C 22.1875 14.492188 22.246094 14.519531 22.289062 14.5625 C 19.300781 14.5625 16.316406 14.5625 13.328125 14.5625 C 13.082031 14.5625 12.832031 14.5625 12.585938 14.5625 C 9.21875 14.5625 5.851562 14.5625 2.484375 14.5625 C 2.332031 14.5625 2.179688 14.5625 2.027344 14.5625 C 2.042969 14.976562 2.027344 15.382812 1.96875 15.777344 C 1.914062 16.398438 1.894531 17.0625 1.910156 17.765625 C 1.703125 17.78125 1.492188 17.796875 1.285156 17.824219 C 1.304688 17.074219 1.285156 16.339844 1.226562 15.613281 C 1.265625 15.261719 1.285156 14.914062 1.285156 14.5625 C 0.867188 14.5625 0.445312 14.5625 0.0273438 14.5625 C 0.234375 13.921875 0.425781 13.277344 0.597656 12.628906 C 0.671875 12.703125 0.71875 12.792969 0.742188 12.902344 C 0.761719 12.886719 0.78125 12.867188 0.800781 12.847656 C 0.941406 13.304688 0.988281 13.765625 0.941406 14.230469 C 1.148438 14.246094 1.347656 14.226562 1.542969 14.175781 C 1.65625 14.277344 1.78125 14.371094 1.910156 14.453125 C 2.023438 14.414062 2.136719 14.386719 2.253906 14.367188 C 2.246094 14.296875 2.230469 14.226562 2.199219 14.148438 C 2.359375 14.175781 2.476562 14.105469 2.539062 13.925781 C 2.800781 13.914062 3.054688 13.882812 3.308594 13.84375 C 3.410156 13.847656 3.417969 13.878906 3.339844 13.925781 C 3.160156 13.9375 2.988281 13.972656 2.824219 14.035156 C 2.75 14.074219 2.75 14.109375 2.824219 14.148438 C 3.089844 14.183594 3.359375 14.183594 3.625 14.148438 C 3.667969 14.03125 3.695312 13.914062 3.710938 13.789062 C 3.738281 13.859375 3.746094 13.933594 3.738281 14.007812 C 3.886719 13.894531 4.058594 13.8125 4.253906 13.761719 C 4.160156 13.710938 4.066406 13.675781 3.96875 13.648438 C 3.984375 13.632812 4.003906 13.613281 4.023438 13.59375 C 3.9375 13.453125 3.890625 13.292969 3.882812 13.125 C 3.863281 13.160156 3.84375 13.199219 3.824219 13.234375 C 3.820312 13.078125 3.773438 12.941406 3.679688 12.820312 C 3.734375 12.785156 3.785156 12.796875 3.824219 12.847656 C 3.875 13.136719 3.941406 13.136719 4.023438 12.847656 C 4.042969 12.574219 4.0625 12.296875 4.082031 12.019531 C 4.089844 11.714844 4.0625 11.421875 3.996094 11.136719 C 3.945312 11.167969 3.917969 11.214844 3.910156 11.273438 C 3.980469 11.46875 3.980469 11.660156 3.910156 11.855469 C 3.679688 12.066406 3.441406 12.066406 3.195312 11.855469 C 3.1875 12.378906 3.15625 12.894531 3.109375 13.402344 C 3.101562 12.867188 3.109375 12.332031 3.140625 11.796875 C 3.367188 11.773438 3.605469 11.757812 3.851562 11.742188 C 3.882812 11.546875 3.84375 11.375 3.738281 11.21875 C 3.179688 11.199219 2.628906 11.207031 2.082031 11.246094 C 2.019531 11.203125 1.945312 11.175781 1.855469 11.164062 C 2.0625 11.109375 2.273438 11.050781 2.484375 10.996094 C 2.636719 10.960938 2.636719 10.921875 2.484375 10.886719 C 2.5625 10.863281 2.636719 10.835938 2.710938 10.804688 C 3.042969 10.894531 3.386719 10.949219 3.738281 10.96875 C 3.777344 10.933594 3.816406 10.894531 3.851562 10.859375 C 3.992188 10.878906 4.144531 10.914062 4.308594 10.96875 C 4.441406 10.921875 4.574219 10.910156 4.707031 10.941406 C 4.660156 10.980469 4.621094 11.027344 4.59375 11.082031 C 4.921875 11.113281 5.207031 11.152344 5.449219 11.191406 C 5.03125 11.191406 4.613281 11.191406 4.195312 11.191406 C 4.15625 11.789062 4.15625 12.378906 4.195312 12.960938 C 4.144531 13.140625 4.136719 13.324219 4.167969 13.511719 C 4.378906 13.566406 4.597656 13.582031 4.824219 13.566406 C 4.824219 13.308594 4.824219 13.050781 4.824219 12.792969 C 4.925781 12.777344 5.019531 12.796875 5.109375 12.847656 C 5.269531 13.085938 5.441406 13.316406 5.621094 13.539062 C 5.867188 13.566406 6.117188 13.578125 6.363281 13.566406 C 6.183594 13.257812 5.976562 12.960938 5.734375 12.683594 C 5.804688 12.632812 5.878906 12.613281 5.964844 12.628906 C 6.046875 12.617188 6.121094 12.589844 6.191406 12.542969 C 6.238281 12.4375 6.316406 12.351562 6.421875 12.296875 C 6.304688 12.160156 6.285156 12.015625 6.363281 11.855469 C 6.476562 11.945312 6.59375 12.039062 6.707031 12.128906 C 6.789062 12.09375 6.828125 12.027344 6.820312 11.9375 C 6.707031 11.773438 6.746094 11.71875 6.933594 11.769531 C 6.859375 12.09375 6.898438 12.101562 7.050781 11.796875 C 6.992188 11.714844 6.933594 11.632812 6.878906 11.550781 C 6.898438 11.523438 6.914062 11.496094 6.933594 11.46875 C 6.984375 11.511719 7.003906 11.566406 6.992188 11.632812 C 7.183594 11.578125 7.277344 11.449219 7.277344 11.246094 C 7.335938 11.246094 7.390625 11.246094 7.449219 11.246094 C 7.132812 11.996094 6.789062 12.730469 6.421875 13.457031 C 6.433594 13.488281 6.453125 13.515625 6.476562 13.539062 C 6.6875 13.578125 6.898438 13.578125 7.105469 13.539062 C 7.15625 13.417969 7.214844 13.296875 7.277344 13.179688 C 7.636719 13.121094 8 13.121094 8.363281 13.179688 C 8.367188 13.300781 8.40625 13.410156 8.476562 13.511719 C 8.703125 13.566406 8.929688 13.585938 9.160156 13.566406 C 9.171875 13.472656 9.160156 13.382812 9.132812 13.289062 C 9.011719 13.074219 8.90625 12.855469 8.820312 12.628906 C 8.949219 12.835938 9.101562 13.027344 9.273438 13.207031 C 9.328125 13.234375 9.386719 13.242188 9.445312 13.234375 C 9.457031 12.570312 9.445312 11.910156 9.417969 11.246094 C 9.378906 11.210938 9.339844 11.171875 9.304688 11.136719 C 9.296875 11.320312 9.230469 11.347656 9.105469 11.21875 C 9.125 11.128906 9.125 11.027344 9.105469 10.914062 C 9.257812 10.929688 9.410156 10.9375 9.558594 10.941406 C 9.714844 10.863281 9.753906 10.75 9.675781 10.609375 C 9.9375 10.539062 9.996094 10.59375 9.847656 10.777344 C 9.941406 10.855469 9.976562 10.957031 9.960938 11.082031 C 10.082031 11.101562 10.15625 11.054688 10.1875 10.941406 C 10.101562 10.839844 10.0625 10.71875 10.074219 10.582031 C 10.148438 10.582031 10.226562 10.582031 10.300781 10.582031 C 10.289062 10.648438 10.308594 10.703125 10.359375 10.75 C 10.476562 10.609375 10.628906 10.554688 10.816406 10.582031 C 10.761719 10.726562 10.695312 10.855469 10.617188 10.96875 C 10.851562 11.074219 11.089844 11.148438 11.328125 11.191406 Z M 11.328125 11.191406 "/>
<path style=" stroke:none;fill-rule:evenodd;fill:rgb(96.470588%,98.039216%,98.431373%);fill-opacity:1;" d="M 11.328125 11.355469 C 11.328125 11.816406 11.328125 12.277344 11.328125 12.738281 C 11.328125 12.8125 11.328125 12.886719 11.328125 12.960938 C 11.710938 12.960938 12.089844 12.960938 12.472656 12.960938 C 12.515625 13.15625 12.515625 13.351562 12.472656 13.539062 C 11.882812 13.578125 11.292969 13.578125 10.703125 13.539062 C 10.675781 13.042969 10.675781 12.539062 10.703125 12.019531 C 10.703125 11.78125 10.703125 11.539062 10.703125 11.300781 C 10.917969 11.289062 11.125 11.304688 11.328125 11.355469 Z M 11.328125 11.355469 "/>
<path style=" stroke:none;fill-rule:evenodd;fill:rgb(83.137255%,88.627451%,92.54902%);fill-opacity:1;" d="M 5.449219 11.191406 C 5.449219 11.210938 5.449219 11.226562 5.449219 11.246094 C 5.054688 11.273438 4.65625 11.273438 4.253906 11.246094 C 4.234375 11.59375 4.253906 11.933594 4.308594 12.269531 C 4.207031 12.484375 4.167969 12.714844 4.195312 12.960938 C 4.15625 12.378906 4.15625 11.789062 4.195312 11.191406 C 4.613281 11.191406 5.03125 11.191406 5.449219 11.191406 Z M 5.449219 11.191406 "/>
<path style=" stroke:none;fill-rule:evenodd;fill:rgb(96.862745%,98.431373%,98.431373%);fill-opacity:1;" d="M 8.820312 12.628906 C 8.90625 12.855469 9.011719 13.074219 9.132812 13.289062 C 9.160156 13.382812 9.171875 13.472656 9.160156 13.566406 C 8.929688 13.585938 8.703125 13.566406 8.476562 13.511719 C 8.40625 13.410156 8.367188 13.300781 8.363281 13.179688 C 8 13.121094 7.636719 13.121094 7.277344 13.179688 C 7.214844 13.296875 7.15625 13.417969 7.105469 13.539062 C 6.898438 13.578125 6.6875 13.578125 6.476562 13.539062 C 6.453125 13.515625 6.433594 13.488281 6.421875 13.457031 C 6.789062 12.730469 7.132812 11.996094 7.449219 11.246094 C 7.695312 11.171875 7.941406 11.171875 8.191406 11.246094 C 8.410156 11.703125 8.617188 12.164062 8.820312 12.628906 Z M 8.820312 12.628906 "/>
<path style=" stroke:none;fill-rule:evenodd;fill:rgb(5.882353%,20.392157%,36.078431%);fill-opacity:1;" d="M 7.734375 11.964844 C 7.789062 11.960938 7.839844 11.976562 7.875 12.019531 C 7.933594 12.199219 8 12.375 8.078125 12.542969 C 8.046875 12.582031 8.007812 12.609375 7.960938 12.628906 C 7.835938 12.578125 7.699219 12.5625 7.5625 12.574219 C 7.609375 12.367188 7.664062 12.164062 7.734375 11.964844 Z M 7.734375 11.964844 "/>
<path style=" stroke:none;fill-rule:evenodd;fill:rgb(94.509804%,96.470588%,97.254902%);fill-opacity:1;" d="M 9.558594 11.191406 C 9.796875 11.160156 10.015625 11.199219 10.21875 11.300781 C 10.261719 12.039062 10.253906 12.777344 10.1875 13.511719 C 9.96875 13.582031 9.75 13.582031 9.53125 13.511719 C 9.484375 12.734375 9.496094 11.960938 9.558594 11.191406 Z M 9.558594 11.191406 "/>
<path style=" stroke:none;fill-rule:evenodd;fill:rgb(97.647059%,98.823529%,98.823529%);fill-opacity:1;" d="M 5.449219 11.246094 C 5.589844 11.246094 5.722656 11.273438 5.851562 11.328125 C 6.335938 11.722656 6.375 12.15625 5.964844 12.628906 C 5.878906 12.613281 5.804688 12.632812 5.734375 12.683594 C 5.976562 12.960938 6.183594 13.257812 6.363281 13.566406 C 6.117188 13.578125 5.867188 13.566406 5.621094 13.539062 C 5.441406 13.316406 5.269531 13.085938 5.109375 12.847656 C 5.019531 12.796875 4.925781 12.777344 4.824219 12.792969 C 4.824219 13.050781 4.824219 13.308594 4.824219 13.566406 C 4.597656 13.582031 4.378906 13.566406 4.167969 13.511719 C 4.136719 13.324219 4.144531 13.140625 4.195312 12.960938 C 4.167969 12.714844 4.207031 12.484375 4.308594 12.269531 C 4.253906 11.933594 4.234375 11.59375 4.253906 11.246094 C 4.65625 11.273438 5.054688 11.273438 5.449219 11.246094 Z M 5.449219 11.246094 "/>
<path style=" stroke:none;fill-rule:evenodd;fill:rgb(2.745098%,21.960784%,39.607843%);fill-opacity:1;" d="M 4.824219 11.742188 C 5.03125 11.734375 5.242188 11.742188 5.449219 11.769531 C 5.621094 11.960938 5.601562 12.128906 5.394531 12.269531 C 5.222656 12.304688 5.050781 12.304688 4.878906 12.269531 C 4.824219 12.097656 4.808594 11.925781 4.824219 11.742188 Z M 4.824219 11.742188 "/>
<path style=" stroke:none;fill-rule:evenodd;fill:rgb(98.039216%,99.215686%,98.431373%);fill-opacity:1;" d="M 2.484375 14.5625 C 2.484375 14.710938 2.484375 14.855469 2.484375 15.003906 C 2.382812 15.863281 2.34375 16.730469 2.367188 17.601562 C 2.796875 17.777344 3.234375 17.941406 3.679688 18.097656 C 5.035156 18.660156 6.441406 19.082031 7.90625 19.371094 C 8.414062 19.492188 8.9375 19.566406 9.476562 19.589844 C 10.390625 19.546875 11.035156 19.121094 11.414062 18.320312 C 11.460938 18.125 11.453125 17.941406 11.386719 17.765625 C 11.328125 17.496094 11.203125 17.257812 11.015625 17.046875 C 10.691406 16.769531 10.386719 16.476562 10.101562 16.164062 C 10.070312 16.046875 10.042969 15.925781 10.015625 15.804688 C 10.050781 15.621094 10.125 15.464844 10.246094 15.335938 C 10.984375 15.097656 11.746094 14.996094 12.527344 15.03125 C 12.875 14.921875 12.894531 14.785156 12.585938 14.617188 C 12.585938 14.597656 12.585938 14.582031 12.585938 14.5625 C 12.832031 14.5625 13.082031 14.5625 13.328125 14.5625 C 13.390625 14.667969 13.464844 14.757812 13.554688 14.839844 C 13.675781 15.113281 13.601562 15.324219 13.328125 15.472656 C 12.789062 15.71875 12.21875 15.847656 11.617188 15.859375 C 11.363281 15.933594 11.324219 16.0625 11.5 16.246094 C 12.390625 16.433594 13.140625 16.851562 13.753906 17.492188 C 14.265625 18.1875 14.371094 18.933594 14.070312 19.730469 C 14.46875 19.730469 14.867188 19.710938 15.269531 19.671875 C 17.113281 19.433594 18.898438 18.992188 20.632812 18.347656 C 21.210938 18.070312 21.800781 17.820312 22.402344 17.601562 C 22.414062 16.605469 22.375 15.609375 22.289062 14.617188 C 22.289062 14.597656 22.289062 14.582031 22.289062 14.5625 C 22.421875 14.5625 22.554688 14.5625 22.6875 14.5625 C 22.792969 15.648438 22.8125 16.734375 22.746094 17.824219 C 18.40625 19.925781 13.820312 20.632812 8.988281 19.949219 C 6.535156 19.59375 4.203125 18.882812 1.996094 17.824219 C 1.96875 17.140625 1.960938 16.460938 1.96875 15.777344 C 2.027344 15.382812 2.042969 14.976562 2.027344 14.5625 C 2.179688 14.5625 2.332031 14.5625 2.484375 14.5625 Z M 2.484375 14.5625 "/>
<path style=" stroke:none;fill-rule:evenodd;fill:rgb(40%,59.215686%,44.313725%);fill-opacity:1;" d="M 13.328125 14.5625 C 16.316406 14.5625 19.300781 14.5625 22.289062 14.5625 C 22.289062 14.582031 22.289062 14.597656 22.289062 14.617188 C 19.359375 14.609375 16.429688 14.617188 13.5 14.644531 C 13.546875 14.699219 13.566406 14.765625 13.554688 14.839844 C 13.464844 14.757812 13.390625 14.667969 13.328125 14.5625 Z M 13.328125 14.5625 "/>
<path style=" stroke:none;fill-rule:evenodd;fill:rgb(40%,59.215686%,44.313725%);fill-opacity:1;" d="M 2.484375 14.5625 C 5.851562 14.5625 9.21875 14.5625 12.585938 14.5625 C 12.585938 14.582031 12.585938 14.597656 12.585938 14.617188 C 9.238281 14.617188 5.886719 14.617188 2.539062 14.617188 C 2.558594 14.757812 2.539062 14.886719 2.484375 15.003906 C 2.484375 14.855469 2.484375 14.710938 2.484375 14.5625 Z M 2.484375 14.5625 "/>
<path style=" stroke:none;fill-rule:evenodd;fill:rgb(41.176471%,60.784314%,34.117647%);fill-opacity:1;" d="M 12.585938 14.617188 C 12.894531 14.785156 12.875 14.921875 12.527344 15.03125 C 11.746094 14.996094 10.984375 15.097656 10.246094 15.335938 C 10.074219 15.347656 10 15.441406 10.015625 15.613281 C 9.941406 15.613281 9.863281 15.613281 9.789062 15.613281 C 9.792969 15.691406 9.773438 15.765625 9.730469 15.832031 C 9.8125 15.894531 9.898438 15.949219 9.988281 16 C 9.996094 16.164062 10.054688 16.3125 10.160156 16.441406 C 10.648438 16.820312 11.058594 17.261719 11.386719 17.765625 C 11.453125 17.941406 11.460938 18.125 11.414062 18.320312 C 11.035156 19.121094 10.390625 19.546875 9.476562 19.589844 C 8.9375 19.566406 8.414062 19.492188 7.90625 19.371094 C 7.851562 19.253906 7.753906 19.1875 7.621094 19.175781 C 7.238281 19.101562 6.859375 19.027344 6.476562 18.957031 C 6.460938 18.9375 6.441406 18.917969 6.421875 18.898438 C 6.554688 18.859375 6.667969 18.796875 6.765625 18.707031 C 6.613281 18.632812 6.460938 18.558594 6.308594 18.484375 C 6.261719 18.503906 6.222656 18.53125 6.191406 18.570312 C 6.277344 18.601562 6.355469 18.648438 6.421875 18.707031 C 6.390625 18.746094 6.351562 18.773438 6.308594 18.789062 C 6.035156 18.824219 5.765625 18.796875 5.507812 18.707031 C 5.519531 18.640625 5.5 18.585938 5.449219 18.539062 C 5.378906 18.570312 5.300781 18.589844 5.222656 18.597656 C 5.09375 18.542969 4.960938 18.503906 4.824219 18.484375 C 4.824219 18.429688 4.824219 18.375 4.824219 18.320312 C 4.445312 18.25 4.066406 18.179688 3.679688 18.097656 C 3.234375 17.941406 2.796875 17.777344 2.367188 17.601562 C 2.34375 16.730469 2.382812 15.863281 2.484375 15.003906 C 2.539062 14.886719 2.558594 14.757812 2.539062 14.617188 C 5.886719 14.617188 9.238281 14.617188 12.585938 14.617188 Z M 12.585938 14.617188 "/>
<path style=" stroke:none;fill-rule:evenodd;fill:rgb(41.176471%,60.784314%,34.117647%);fill-opacity:1;" d="M 22.289062 14.617188 C 22.375 15.609375 22.414062 16.605469 22.402344 17.601562 C 21.800781 17.820312 21.210938 18.070312 20.632812 18.347656 C 18.898438 18.992188 17.113281 19.433594 15.269531 19.671875 C 14.867188 19.710938 14.46875 19.730469 14.070312 19.730469 C 14.371094 18.933594 14.265625 18.1875 13.753906 17.492188 C 13.140625 16.851562 12.390625 16.433594 11.5 16.246094 C 11.324219 16.0625 11.363281 15.933594 11.617188 15.859375 C 12.21875 15.847656 12.789062 15.71875 13.328125 15.472656 C 13.601562 15.324219 13.675781 15.113281 13.554688 14.839844 C 13.566406 14.765625 13.546875 14.699219 13.5 14.644531 C 16.429688 14.617188 19.359375 14.609375 22.289062 14.617188 Z M 22.289062 14.617188 "/>
<path style=" stroke:none;fill-rule:evenodd;fill:rgb(41.568627%,58.039216%,36.470588%);fill-opacity:1;" d="M 10.246094 15.335938 C 10.125 15.464844 10.050781 15.621094 10.015625 15.804688 C 10.042969 15.925781 10.070312 16.046875 10.101562 16.164062 C 10.386719 16.476562 10.691406 16.769531 11.015625 17.046875 C 11.203125 17.257812 11.328125 17.496094 11.386719 17.765625 C 11.058594 17.261719 10.648438 16.820312 10.160156 16.441406 C 10.054688 16.3125 9.996094 16.164062 9.988281 16 C 9.898438 15.949219 9.8125 15.894531 9.730469 15.832031 C 9.773438 15.765625 9.792969 15.691406 9.789062 15.613281 C 9.863281 15.613281 9.941406 15.613281 10.015625 15.613281 C 10 15.441406 10.074219 15.347656 10.246094 15.335938 Z M 10.246094 15.335938 "/>
<path style=" stroke:none;fill-rule:evenodd;fill:rgb(1.960784%,23.529412%,41.176471%);fill-opacity:1;" d="M 15.039062 11.246094 C 15.136719 11.953125 15.195312 12.683594 15.210938 13.429688 C 15.125 13.53125 15.085938 13.652344 15.097656 13.789062 C 15.339844 13.800781 15.433594 13.910156 15.382812 14.121094 C 15.421875 14.136719 15.457031 14.15625 15.496094 14.175781 C 16.03125 14.140625 16.640625 14.128906 17.324219 14.148438 C 17.433594 14.046875 17.566406 13.980469 17.722656 13.953125 C 17.800781 13.878906 17.785156 13.832031 17.664062 13.816406 C 17.269531 13.867188 16.871094 13.894531 16.46875 13.898438 C 16.46875 13.84375 16.46875 13.789062 16.46875 13.734375 C 16.773438 13.75 17.078125 13.734375 17.378906 13.675781 C 16.714844 13.621094 16.050781 13.605469 15.382812 13.621094 C 15.371094 12.847656 15.382812 12.074219 15.410156 11.300781 C 15.433594 11.269531 15.460938 11.253906 15.496094 11.246094 C 15.496094 12.019531 15.496094 12.792969 15.496094 13.566406 C 16.125 13.585938 16.753906 13.566406 17.378906 13.511719 C 17.453125 13.335938 17.453125 13.160156 17.378906 12.988281 C 16.980469 12.960938 16.582031 12.949219 16.179688 12.960938 C 16.179688 12.847656 16.179688 12.738281 16.179688 12.628906 C 16.5625 12.628906 16.941406 12.628906 17.324219 12.628906 C 17.339844 12.445312 17.320312 12.273438 17.265625 12.101562 C 16.90625 12.074219 16.542969 12.066406 16.179688 12.074219 C 16.179688 11.964844 16.179688 11.855469 16.179688 11.742188 C 16.539062 11.789062 16.902344 11.808594 17.265625 11.796875 C 17.105469 11.84375 16.933594 11.871094 16.753906 11.882812 C 16.886719 11.90625 17.019531 11.933594 17.152344 11.964844 C 17.257812 11.875 17.34375 11.894531 17.410156 12.019531 C 17.425781 12.222656 17.445312 12.425781 17.464844 12.628906 C 17.488281 12.601562 17.519531 12.582031 17.550781 12.574219 C 17.605469 12.699219 17.679688 12.808594 17.78125 12.902344 C 17.859375 12.785156 17.878906 12.664062 17.835938 12.542969 C 17.910156 12.519531 17.988281 12.507812 18.066406 12.515625 C 17.886719 12.847656 17.753906 13.195312 17.664062 13.566406 C 17.894531 13.578125 18.121094 13.566406 18.351562 13.539062 C 18.378906 13.398438 18.4375 13.269531 18.523438 13.152344 C 18.867188 13.109375 19.210938 13.125 19.550781 13.207031 C 19.632812 13.304688 19.6875 13.414062 19.71875 13.539062 C 19.890625 13.566406 20.0625 13.578125 20.234375 13.566406 C 19.863281 13.707031 19.570312 13.613281 19.347656 13.289062 C 19.261719 13.40625 19.214844 13.535156 19.207031 13.675781 C 19.503906 13.726562 19.503906 13.785156 19.207031 13.84375 C 19.816406 13.878906 20.425781 13.917969 21.03125 13.953125 C 20.921875 13.992188 20.824219 14.058594 20.746094 14.148438 C 21.261719 14.175781 21.777344 14.195312 22.289062 14.203125 C 22.242188 14.148438 22.222656 14.082031 22.230469 14.007812 C 22.367188 14 22.5 14.007812 22.632812 14.035156 C 22.40625 14.132812 22.40625 14.222656 22.632812 14.3125 C 22.511719 14.328125 22.414062 14.382812 22.347656 14.480469 C 22.59375 14.53125 22.824219 14.488281 23.03125 14.339844 C 23.140625 14.359375 23.238281 14.402344 23.316406 14.480469 C 23.753906 14.515625 24.191406 14.515625 24.628906 14.480469 C 24.441406 14.480469 24.316406 14.394531 24.257812 14.230469 C 24.238281 14.25 24.21875 14.265625 24.199219 14.285156 C 24.171875 14.234375 24.164062 14.179688 24.171875 14.121094 C 24.296875 14.140625 24.390625 14.105469 24.457031 14.007812 C 24.3125 13.90625 24.167969 13.832031 24.03125 13.789062 C 24 13.851562 23.953125 13.898438 23.886719 13.925781 C 23.921875 14.058594 23.921875 14.195312 23.886719 14.339844 C 23.488281 14.261719 23.089844 14.226562 22.6875 14.230469 C 22.976562 14.039062 23.253906 14.023438 23.515625 14.175781 C 23.554688 14.09375 23.625 14.058594 23.714844 14.066406 C 23.714844 13.992188 23.714844 13.917969 23.714844 13.84375 C 23.773438 13.84375 23.828125 13.84375 23.886719 13.84375 C 23.871094 13.558594 23.964844 13.320312 24.171875 13.125 C 24.253906 13.261719 24.300781 13.410156 24.316406 13.566406 C 24.34375 13.476562 24.351562 13.382812 24.34375 13.289062 C 24.496094 13.703125 24.632812 14.125 24.742188 14.5625 C 24.304688 14.550781 23.867188 14.5625 23.429688 14.589844 C 23.511719 15.367188 23.550781 16.148438 23.542969 16.9375 C 23.542969 17.410156 23.523438 17.882812 23.488281 18.347656 C 17.910156 21.070312 12.085938 21.660156 6.023438 20.117188 C 4.933594 19.820312 3.867188 19.46875 2.824219 19.066406 C 2.289062 18.820312 1.765625 18.554688 1.253906 18.265625 C 1.15625 17.382812 1.148438 16.496094 1.226562 15.613281 C 1.285156 16.339844 1.304688 17.074219 1.285156 17.824219 C 1.492188 17.796875 1.703125 17.78125 1.910156 17.765625 C 1.894531 17.0625 1.914062 16.398438 1.96875 15.777344 C 1.960938 16.460938 1.96875 17.140625 1.996094 17.824219 C 4.203125 18.882812 6.535156 19.59375 8.988281 19.949219 C 13.820312 20.632812 18.40625 19.925781 22.746094 17.824219 C 22.8125 16.734375 22.792969 15.648438 22.6875 14.5625 C 22.554688 14.5625 22.421875 14.5625 22.289062 14.5625 C 22.246094 14.519531 22.1875 14.492188 22.117188 14.480469 C 22.179688 14.378906 22.140625 14.3125 22.003906 14.285156 C 20.625 14.320312 19.246094 14.339844 17.867188 14.339844 C 16.441406 14.339844 15.023438 14.300781 13.613281 14.230469 C 13.574219 14.007812 13.671875 13.917969 13.898438 13.953125 C 13.90625 14.042969 13.867188 14.109375 13.785156 14.148438 C 14.222656 14.191406 14.660156 14.183594 15.097656 14.121094 C 15.085938 14.085938 15.066406 14.058594 15.039062 14.035156 C 14.882812 14.046875 14.730469 14.039062 14.582031 14.007812 C 14.480469 14.078125 14.363281 14.113281 14.242188 14.121094 C 14.210938 13.945312 14.265625 13.804688 14.410156 13.707031 C 14.320312 13.507812 14.273438 13.296875 14.269531 13.070312 C 14.164062 13.003906 14.058594 12.941406 13.957031 12.875 C 13.992188 12.820312 14.03125 12.765625 14.070312 12.710938 C 14 12.699219 13.941406 12.671875 13.898438 12.628906 C 14.050781 12.628906 14.203125 12.628906 14.355469 12.628906 C 14.347656 12.941406 14.367188 13.257812 14.410156 13.566406 C 14.617188 13.582031 14.816406 13.566406 15.011719 13.511719 C 15.039062 12.757812 15.050781 12 15.039062 11.246094 Z M 15.039062 11.246094 "/>
<path style=" stroke:none;fill-rule:evenodd;fill:rgb(41.960784%,59.215686%,36.078431%);fill-opacity:1;" d="M 3.679688 18.097656 C 4.066406 18.179688 4.445312 18.25 4.824219 18.320312 C 4.824219 18.375 4.824219 18.429688 4.824219 18.484375 C 4.960938 18.503906 5.09375 18.542969 5.222656 18.597656 C 5.300781 18.589844 5.378906 18.570312 5.449219 18.539062 C 5.5 18.585938 5.519531 18.640625 5.507812 18.707031 C 5.765625 18.796875 6.035156 18.824219 6.308594 18.789062 C 6.351562 18.773438 6.390625 18.746094 6.421875 18.707031 C 6.355469 18.648438 6.277344 18.601562 6.191406 18.570312 C 6.222656 18.53125 6.261719 18.503906 6.308594 18.484375 C 6.460938 18.558594 6.613281 18.632812 6.765625 18.707031 C 6.667969 18.796875 6.554688 18.859375 6.421875 18.898438 C 6.441406 18.917969 6.460938 18.9375 6.476562 18.957031 C 6.859375 19.027344 7.238281 19.101562 7.621094 19.175781 C 7.753906 19.1875 7.851562 19.253906 7.90625 19.371094 C 6.441406 19.082031 5.035156 18.660156 3.679688 18.097656 Z M 3.679688 18.097656 "/>
</g>
</svg>
