<svg xmlns="http://www.w3.org/2000/svg" version="1.1" width="23.05263157894737" height="20" style="shape-rendering:geometricPrecision; text-rendering:geometricPrecision; image-rendering:optimizeQuality; fill-rule:evenodd; clip-rule:evenodd" xmlns:xlink="http://www.w3.org/1999/xlink">
<g><path style="opacity:1" fill="#053c6a" d="M 426.5,240.5 C 426.66,242.199 426.494,243.866 426,245.5C 425.73,242.638 424.896,239.972 423.5,237.5C 419.865,241.014 418.198,245.348 418.5,250.5C 417.5,250.5 416.5,250.5 415.5,250.5C 415.5,251.833 415.5,253.167 415.5,254.5C 413.876,254.36 412.71,255.027 412,256.5C 407.411,253.73 402.577,254.063 397.5,257.5C 404.536,257.42 411.536,258.087 418.5,259.5C 419.136,256.894 419.136,254.394 418.5,252C 419.667,251.5 420.5,250.667 421,249.5C 423.447,250.31 425.947,251.643 428.5,253.5C 427.332,255.217 425.665,255.884 423.5,255.5C 423.351,256.552 423.517,257.552 424,258.5C 424.333,258.167 424.667,257.833 425,257.5C 426.047,260.499 428.213,261.999 431.5,262C 423.833,262.667 416.167,262.667 408.5,262C 407.107,260.637 405.441,259.804 403.5,259.5C 399.876,262.137 395.876,262.97 391.5,262C 392.716,260.26 394.382,259.26 396.5,259C 392.534,257.388 392.534,255.721 396.5,254C 394.19,253.503 391.857,253.337 389.5,253.5C 389.33,254.822 389.663,255.989 390.5,257C 381.522,256.858 372.522,256.525 363.5,256C 364.851,254.383 366.518,253.216 368.5,252.5C 357.833,251.833 347.167,251.167 336.5,250.5C 341.74,249.413 341.74,248.413 336.5,247.5C 336.643,244.903 337.477,242.569 339,240.5C 342.841,246.331 348.008,247.998 354.5,245.5C 355.995,245.585 356.995,244.919 357.5,243.5C 351.48,230.13 345.48,216.797 339.5,203.5C 342.466,205.11 345.466,206.777 348.5,208.5C 347.687,209.814 346.687,210.981 345.5,212C 346.09,213.509 346.756,215.009 347.5,216.5C 348.281,215.263 349.281,214.263 350.5,213.5C 352.087,215.085 352.92,216.752 353,218.5C 353.667,215.5 353.667,212.5 353,209.5C 352.333,210.167 351.667,210.833 351,211.5C 348.892,208.862 349.059,206.528 351.5,204.5C 352.748,205.04 353.915,205.707 355,206.5C 355.333,205.833 355.667,205.167 356,204.5C 356.71,205.973 357.876,206.64 359.5,206.5C 360.013,204.71 360.513,203.044 361,201.5C 359.601,200.773 358.101,200.273 356.5,200C 357.167,199.667 357.833,199.333 358.5,199C 356.579,198.64 354.912,197.806 353.5,196.5C 355.579,195.239 357.746,194.239 360,193.5C 361.326,193.755 362.326,194.422 363,195.5C 370.734,193.721 378.4,193.054 386,193.5C 388.825,194.584 388.992,195.751 386.5,197C 387.167,197.333 387.833,197.667 388.5,198C 386.381,198.098 384.714,198.931 383.5,200.5C 387.783,201.492 392.116,201.826 396.5,201.5C 396.784,199.123 396.784,196.956 396.5,195C 397.738,195.077 398.738,194.911 399.5,194.5C 397.316,192.908 394.982,191.574 392.5,190.5C 398.052,189.812 403.552,189.146 409,188.5C 416.449,188.43 423.949,188.763 431.5,189.5C 431.5,188.5 431.5,187.5 431.5,186.5C 421.161,186.334 410.828,186.5 400.5,187C 398.109,187.287 395.776,187.787 393.5,188.5C 392.833,188.167 392.167,187.833 391.5,187.5C 391.089,188.262 390.923,189.262 391,190.5C 389.333,188.5 387.667,186.5 386,184.5C 382.593,185.378 379.26,186.378 376,187.5C 373.992,187.693 372.492,187.026 371.5,185.5C 374.167,185.5 376.833,185.5 379.5,185.5C 351.142,103.411 296.642,46.4108 216,14.5C 147.904,39.9316 97.9042,85.2649 66,150.5C 60.9501,161.937 56.4501,173.603 52.5,185.5C 55.1667,185.5 57.8333,185.5 60.5,185.5C 61.8333,185.5 63.1667,185.5 64.5,185.5C 64.7778,187.346 64.1112,188.68 62.5,189.5C 61.3264,187.766 59.6597,186.766 57.5,186.5C 56.5,186.833 55.5,187.167 54.5,187.5C 56.3686,188.624 58.3686,189.457 60.5,190C 55.3088,191.923 49.9755,191.423 44.5,188.5C 43.269,189.651 43.269,190.817 44.5,192C 40.0826,193.568 38.0826,192.068 38.5,187.5C 27.1887,186.449 15.8554,186.283 4.5,187C 3.9394,188.566 4.60607,189.899 6.5,191C 5.44636,192.388 5.27969,193.888 6,195.5C 8.31632,194.478 8.81632,192.978 7.5,191C 7.83333,190.833 8.16667,190.667 8.5,190.5C 10.2143,193.77 9.54766,196.27 6.5,198C 8.04537,199.822 8.71204,201.989 8.5,204.5C 8.49319,206.369 8.15986,208.036 7.5,209.5C 5.16414,201.488 2.83081,193.488 0.5,185.5C 13.1667,185.5 25.8333,185.5 38.5,185.5C 62.7685,107.07 111.435,49.237 184.5,12C 194.787,7.43344 205.287,3.60011 216,0.5C 304.915,33.6946 364.082,95.3613 393.5,185.5C 406.833,185.5 420.167,185.5 433.5,185.5C 429.441,198.236 425.775,211.07 422.5,224C 423.94,229.485 425.274,234.985 426.5,240.5 Z"></path></g>
<g><path style="opacity:1" fill="#f6fcfd" d="M 371.5,185.5 C 349.518,123.015 310.518,74.182 254.5,39C 242.14,32.0047 229.306,25.838 216,20.5C 197.567,27.2999 180.067,36.1333 163.5,47C 159.975,49.698 156.642,52.5314 153.5,55.5C 140.387,64.7599 128.22,75.4265 117,87.5C 96.9581,109.594 80.9581,134.261 69,161.5C 65.8671,169.424 63.0338,177.424 60.5,185.5C 57.8333,185.5 55.1667,185.5 52.5,185.5C 56.4501,173.603 60.9501,161.937 66,150.5C 97.9042,85.2649 147.904,39.9316 216,14.5C 296.642,46.4108 351.142,103.411 379.5,185.5C 376.833,185.5 374.167,185.5 371.5,185.5 Z"></path></g>
<g><path style="opacity:1" fill="#79bbe6" d="M 216.5,53.5 C 215.199,54.9622 213.699,56.2956 212,57.5C 205.163,50.6245 197.663,49.7912 189.5,55C 185.172,60.2858 184.506,65.9525 187.5,72C 182.752,74.3137 180.085,78.1471 179.5,83.5C 181.528,92.1266 186.861,95.9599 195.5,95C 198.976,103.042 204.976,105.708 213.5,103C 216.857,101.488 218.857,98.9875 219.5,95.5C 223.524,96.4427 227.524,96.4427 231.5,95.5C 233.98,94.6927 235.313,93.026 235.5,90.5C 247.586,91.9647 254.92,86.798 257.5,75C 256.735,68.0318 253.069,62.8651 246.5,59.5C 249.864,58.7893 252.197,59.956 253.5,63C 257.965,65.7692 260.465,64.6025 261,59.5C 262.918,60.5418 264.751,61.7085 266.5,63C 266,63.5 265.5,64 265,64.5C 264.501,69.4889 264.334,74.4889 264.5,79.5C 262.143,79.3367 259.81,79.5034 257.5,80C 255.735,83.938 253.735,87.7714 251.5,91.5C 250.15,92.9501 248.484,93.6168 246.5,93.5C 246.5,94.5 246.5,95.5 246.5,96.5C 240.133,94.7362 236.133,97.0695 234.5,103.5C 229.786,103.173 225.12,103.507 220.5,104.5C 220.977,105.478 221.643,106.311 222.5,107C 225.908,107.98 229.242,109.147 232.5,110.5C 230.237,111.65 227.904,112.65 225.5,113.5C 225.742,116.594 225.242,119.594 224,122.5C 222.039,119.537 219.706,116.871 217,114.5C 216.691,115.766 216.191,116.933 215.5,118C 218.318,120.115 218.151,121.948 215,123.5C 212.338,117.572 208.671,116.906 204,121.5C 203.667,121.167 203.333,120.833 203,120.5C 201.872,122.345 201.372,124.345 201.5,126.5C 200.5,126.5 199.5,126.5 198.5,126.5C 198.833,129.5 197.5,130.833 194.5,130.5C 193.144,134.696 190.477,137.863 186.5,140C 185.5,140.667 184.5,140.667 183.5,140C 182.529,138.519 181.196,137.685 179.5,137.5C 177.717,134.9 175.717,132.566 173.5,130.5C 163.921,117.698 154.088,105.031 144,92.5C 134.735,106.029 126.235,120.029 118.5,134.5C 108.236,151.365 98.2357,168.365 88.5,185.5C 80.5,185.5 72.5,185.5 64.5,185.5C 63.1667,185.5 61.8333,185.5 60.5,185.5C 63.0338,177.424 65.8671,169.424 69,161.5C 80.9581,134.261 96.9581,109.594 117,87.5C 128.22,75.4265 140.387,64.7599 153.5,55.5C 161.137,52.3331 168.637,48.9998 176,45.5C 178.545,47.1858 181.378,48.1858 184.5,48.5C 184.5,47.5 184.5,46.5 184.5,45.5C 183.022,45.762 181.689,45.4287 180.5,44.5C 182.511,42.6588 184.678,40.9921 187,39.5C 188.7,41.6061 190.867,43.1061 193.5,44C 190.461,45.5771 189.128,48.0771 189.5,51.5C 195.13,50.4793 200.796,50.3127 206.5,51C 207.833,51.6667 208.833,52.6667 209.5,54C 211.847,54.3336 214.181,54.167 216.5,53.5 Z"></path></g>
<g><path style="opacity:1" fill="#1c98d3" d="M 216.5,53.5 C 223.964,51.9427 229.964,54.2761 234.5,60.5C 238.401,58.5188 242.401,58.1855 246.5,59.5C 253.069,62.8651 256.735,68.0318 257.5,75C 254.92,86.798 247.586,91.9647 235.5,90.5C 235.313,93.026 233.98,94.6927 231.5,95.5C 227.524,96.4427 223.524,96.4427 219.5,95.5C 218.857,98.9875 216.857,101.488 213.5,103C 204.976,105.708 198.976,103.042 195.5,95C 186.861,95.9599 181.528,92.1266 179.5,83.5C 180.085,78.1471 182.752,74.3137 187.5,72C 184.506,65.9525 185.172,60.2858 189.5,55C 197.663,49.7912 205.163,50.6245 212,57.5C 213.699,56.2956 215.199,54.9622 216.5,53.5 Z"></path></g>
<g><path style="opacity:1" fill="#7abbe5" d="M 371.5,185.5 C 363.5,185.5 355.5,185.5 347.5,185.5C 346.833,185.5 346.167,185.5 345.5,185.5C 344.876,183.246 343.543,181.579 341.5,180.5C 329.911,163.731 318.078,147.064 306,130.5C 305.184,129.177 304.017,128.511 302.5,128.5C 302.611,127.883 302.944,127.383 303.5,127C 295.893,116.97 288.393,106.804 281,96.5C 278.861,95.2309 276.695,95.2309 274.5,96.5C 268.405,106.366 262.072,116.033 255.5,125.5C 249.359,134.424 243.193,143.424 237,152.5C 233.619,148.625 230.453,144.625 227.5,140.5C 221.881,133.71 216.048,127.043 210,120.5C 204.009,125.325 198.509,130.658 193.5,136.5C 190.562,138.934 187.729,141.601 185,144.5C 182.983,142.316 181.15,139.982 179.5,137.5C 181.196,137.685 182.529,138.519 183.5,140C 184.5,140.667 185.5,140.667 186.5,140C 190.477,137.863 193.144,134.696 194.5,130.5C 197.5,130.833 198.833,129.5 198.5,126.5C 199.5,126.5 200.5,126.5 201.5,126.5C 201.372,124.345 201.872,122.345 203,120.5C 203.333,120.833 203.667,121.167 204,121.5C 208.671,116.906 212.338,117.572 215,123.5C 218.151,121.948 218.318,120.115 215.5,118C 216.191,116.933 216.691,115.766 217,114.5C 219.706,116.871 222.039,119.537 224,122.5C 225.242,119.594 225.742,116.594 225.5,113.5C 227.904,112.65 230.237,111.65 232.5,110.5C 229.242,109.147 225.908,107.98 222.5,107C 221.643,106.311 220.977,105.478 220.5,104.5C 225.12,103.507 229.786,103.173 234.5,103.5C 236.133,97.0695 240.133,94.7362 246.5,96.5C 246.5,95.5 246.5,94.5 246.5,93.5C 248.484,93.6168 250.15,92.9501 251.5,91.5C 253.735,87.7714 255.735,83.938 257.5,80C 259.81,79.5034 262.143,79.3367 264.5,79.5C 264.334,74.4889 264.501,69.4889 265,64.5C 265.5,64 266,63.5 266.5,63C 264.751,61.7085 262.918,60.5418 261,59.5C 260.465,64.6025 257.965,65.7692 253.5,63C 252.197,59.956 249.864,58.7893 246.5,59.5C 242.401,58.1855 238.401,58.5188 234.5,60.5C 229.964,54.2761 223.964,51.9427 216.5,53.5C 214.181,54.167 211.847,54.3336 209.5,54C 208.833,52.6667 207.833,51.6667 206.5,51C 200.796,50.3127 195.13,50.4793 189.5,51.5C 189.128,48.0771 190.461,45.5771 193.5,44C 190.867,43.1061 188.7,41.6061 187,39.5C 184.678,40.9921 182.511,42.6588 180.5,44.5C 181.689,45.4287 183.022,45.762 184.5,45.5C 184.5,46.5 184.5,47.5 184.5,48.5C 181.378,48.1858 178.545,47.1858 176,45.5C 168.637,48.9998 161.137,52.3331 153.5,55.5C 156.642,52.5314 159.975,49.698 163.5,47C 180.067,36.1333 197.567,27.2999 216,20.5C 229.306,25.838 242.14,32.0047 254.5,39C 310.518,74.182 349.518,123.015 371.5,185.5 Z"></path></g>
<g><path style="opacity:1" fill="#ced3d7" d="M 173.5,130.5 C 170.474,132.687 167.307,134.687 164,136.5C 159.164,134.202 154.164,132.202 149,130.5C 142.099,134.702 135.265,139.035 128.5,143.5C 125.121,140.449 121.788,137.449 118.5,134.5C 126.235,120.029 134.735,106.029 144,92.5C 154.088,105.031 163.921,117.698 173.5,130.5 Z"></path></g>
<g><path style="opacity:1" fill="#ced4d9" d="M 302.5,128.5 C 299.436,129.984 296.436,131.651 293.5,133.5C 288.322,130.078 283.322,126.411 278.5,122.5C 273.778,125.054 268.944,127.387 264,129.5C 261.054,128.275 258.22,126.942 255.5,125.5C 262.072,116.033 268.405,106.366 274.5,96.5C 276.695,95.2309 278.861,95.2309 281,96.5C 288.393,106.804 295.893,116.97 303.5,127C 302.944,127.383 302.611,127.883 302.5,128.5 Z"></path></g>
<g><path style="opacity:1" fill="#48497c" d="M 302.5,128.5 C 304.017,128.511 305.184,129.177 306,130.5C 318.078,147.064 329.911,163.731 341.5,180.5C 343.543,181.579 344.876,183.246 345.5,185.5C 259.833,185.5 174.167,185.5 88.5,185.5C 98.2357,168.365 108.236,151.365 118.5,134.5C 121.788,137.449 125.121,140.449 128.5,143.5C 135.265,139.035 142.099,134.702 149,130.5C 154.164,132.202 159.164,134.202 164,136.5C 167.307,134.687 170.474,132.687 173.5,130.5C 175.717,132.566 177.717,134.9 179.5,137.5C 181.15,139.982 182.983,142.316 185,144.5C 187.729,141.601 190.562,138.934 193.5,136.5C 195.855,139.689 198.688,142.355 202,144.5C 204.589,143.303 207.256,142.303 210,141.5C 212.801,143.307 215.801,144.64 219,145.5C 221.715,143.616 224.548,141.949 227.5,140.5C 230.453,144.625 233.619,148.625 237,152.5C 243.193,143.424 249.359,134.424 255.5,125.5C 258.22,126.942 261.054,128.275 264,129.5C 268.944,127.387 273.778,125.054 278.5,122.5C 283.322,126.411 288.322,130.078 293.5,133.5C 296.436,131.651 299.436,129.984 302.5,128.5 Z"></path></g>
<g><path style="opacity:1" fill="#ced3d8" d="M 227.5,140.5 C 224.548,141.949 221.715,143.616 219,145.5C 215.801,144.64 212.801,143.307 210,141.5C 207.256,142.303 204.589,143.303 202,144.5C 198.688,142.355 195.855,139.689 193.5,136.5C 198.509,130.658 204.009,125.325 210,120.5C 216.048,127.043 221.881,133.71 227.5,140.5 Z"></path></g>
<g><path style="opacity:1" fill="#4b477f" d="M 341.5,180.5 C 341.33,181.822 341.663,182.989 342.5,184C 258.5,184.667 174.5,184.667 90.5,184C 92.764,183.764 94.9307,183.264 97,182.5C 176.861,182.446 256.861,182.78 337,183.5C 337.908,181.561 339.408,180.561 341.5,180.5 Z"></path></g>
<g><path style="opacity:1" fill="#023d6c" d="M 339.5,203.5 C 335.014,201.864 330.68,202.197 326.5,204.5C 323.492,212.115 320.159,219.448 316.5,226.5C 315.127,226.343 313.793,226.51 312.5,227C 313.261,229.179 312.928,231.345 311.5,233.5C 309.766,231.766 308.432,229.766 307.5,227.5C 306.914,227.709 306.414,228.043 306,228.5C 305.667,224.833 305.333,221.167 305,217.5C 303.887,215.2 302.387,214.867 300.5,216.5C 298.181,215.936 295.847,215.436 293.5,215C 296.695,214.819 299.695,214.319 302.5,213.5C 303.88,213.038 304.547,212.038 304.5,210.5C 304.376,208.049 304.042,205.549 303.5,203C 292.72,202.887 282.053,203.054 271.5,203.5C 270.883,203.611 270.383,203.944 270,204.5C 269.5,218.496 269.333,232.496 269.5,246.5C 281.186,246.168 292.852,246.501 304.5,247.5C 299.208,248.495 293.875,248.828 288.5,248.5C 288.5,249.5 288.5,250.5 288.5,251.5C 295.588,251.452 302.588,250.952 309.5,250C 311.569,250.324 311.902,251.158 310.5,252.5C 307.783,252.999 305.449,254.165 303.5,256C 291.553,255.697 280.886,255.863 271.5,256.5C 270.833,256.167 270.167,255.833 269.5,255.5C 270.405,251.712 268.738,249.712 264.5,249.5C 264.321,247.046 264.987,244.879 266.5,243C 266.198,229.493 265.198,216.326 263.5,203.5C 259.936,202.577 256.269,202.244 252.5,202.5C 252.781,207.565 252.448,212.565 251.5,217.5C 246.544,218.494 241.544,218.827 236.5,218.5C 236.607,213.79 236.774,209.123 237,204.5C 233.27,203.54 229.437,203.207 225.5,203.5C 223.696,210.432 222.863,217.765 223,225.5C 222.308,226.025 221.808,226.692 221.5,227.5C 222.998,232.801 223.332,238.134 222.5,243.5C 221.182,240.302 220.349,236.968 220,233.5C 216.867,231.586 216.7,229.419 219.5,227C 217.065,221.603 214.065,221.603 210.5,227C 211.938,227.219 213.271,227.719 214.5,228.5C 215.641,229.425 215.641,230.259 214.5,231C 209.083,231.781 203.75,231.615 198.5,230.5C 198.5,222.167 198.5,213.833 198.5,205.5C 198.5,204.5 198.5,203.5 198.5,202.5C 194.26,201.725 190.093,200.392 186,198.5C 187.403,196.45 188.57,194.117 189.5,191.5C 186.245,191.014 183.578,192.014 181.5,194.5C 180.614,193.675 180.281,192.675 180.5,191.5C 179.167,191.5 177.833,191.5 176.5,191.5C 176.321,193.954 176.987,196.121 178.5,198C 177.968,200.02 176.635,200.853 174.5,200.5C 174.822,198.278 174.155,196.444 172.5,195C 175.115,191.686 174.115,190.686 169.5,192C 170.876,194.54 170.21,196.54 167.5,198C 164.881,197.917 162.214,197.75 159.5,197.5C 159.854,199.541 159.854,201.374 159.5,203C 161.744,205.349 162.911,204.849 163,201.5C 163.667,202.167 164.333,202.833 165,203.5C 165.5,215.495 165.667,227.495 165.5,239.5C 164.448,239.649 163.448,239.483 162.5,239C 159.46,235.74 156.794,232.24 154.5,228.5C 150.984,220.108 147.317,211.775 143.5,203.5C 139.167,202.167 134.833,202.167 130.5,203.5C 129.5,203.5 128.5,203.5 127.5,203.5C 127.501,207.206 125.835,209.539 122.5,210.5C 122.719,209.325 122.386,208.325 121.5,207.5C 121.167,208 120.833,208.5 120.5,209C 121.477,210.497 122.477,211.997 123.5,213.5C 120.875,218.976 120.208,218.809 121.5,213C 118.194,212.069 117.527,213.069 119.5,216C 119.612,217.662 118.946,218.829 117.5,219.5C 115.5,217.833 113.5,216.167 111.5,214.5C 110.091,217.397 110.424,220.063 112.5,222.5C 110.639,223.528 109.305,225.028 108.5,227C 107.255,227.791 105.922,228.291 104.5,228.5C 111.683,219.957 111.016,212.124 102.5,205C 100.26,204.023 97.9267,203.523 95.5,203.5C 95.5,203.167 95.5,202.833 95.5,202.5C 91.229,201.786 86.229,201.12 80.5,200.5C 80.9767,199.522 81.6433,198.689 82.5,198C 80.1339,197.438 77.8006,197.604 75.5,198.5C 72.6014,197.509 69.9348,196.842 67.5,196.5C 66.8333,197.167 66.1667,197.833 65.5,198.5C 59.3316,198.148 53.3316,197.148 47.5,195.5C 46.2054,196.098 44.8721,196.598 43.5,197C 46.1667,197.667 46.1667,198.333 43.5,199C 39.8333,200 36.1667,201 32.5,202C 34.0581,202.21 35.3915,202.71 36.5,203.5C 34.5,203.5 32.5,203.5 30.5,203.5C 30.5,206.5 30.5,209.5 30.5,212.5C 34.5,212.5 38.5,212.5 42.5,212.5C 43.3959,223.198 43.5626,233.865 43,244.5C 46.73,245.46 50.5633,245.793 54.5,245.5C 54.5,244.5 54.5,243.5 54.5,242.5C 55.3299,233.342 55.8299,224.009 56,214.5C 60.2807,218.339 64.4474,218.339 68.5,214.5C 69.723,211.003 69.723,207.503 68.5,204C 68.6301,202.941 69.1301,202.108 70,201.5C 71.1453,206.664 71.6453,211.998 71.5,217.5C 71.1667,222.5 70.8333,227.5 70.5,232.5C 69.0753,237.73 67.9086,237.73 67,232.5C 66.2825,231.549 65.4491,231.383 64.5,232C 66.1213,234.166 66.9546,236.666 67,239.5C 67.3333,238.833 67.6667,238.167 68,237.5C 68.1466,240.571 68.9799,243.404 70.5,246C 70.1667,246.333 69.8333,246.667 69.5,247C 71.2464,247.471 72.913,248.138 74.5,249C 71.1096,249.932 68.1096,251.432 65.5,253.5C 65.6567,252.127 65.49,250.793 65,249.5C 64.7638,251.764 64.2638,253.931 63.5,256C 58.8333,256.667 54.1667,256.667 49.5,256C 48.1667,255.333 48.1667,254.667 49.5,254C 52.3771,252.873 55.3771,252.206 58.5,252C 59.8882,251.111 59.7215,250.611 58,250.5C 53.539,251.247 49.039,251.747 44.5,252C 43.3646,255.207 41.3646,256.541 38.5,256C 39.0509,257.398 39.3842,258.732 39.5,260C 37.444,260.311 35.444,260.811 33.5,261.5C 31.1908,260.025 29.0241,258.358 27,256.5C 23.6064,257.456 20.1064,257.789 16.5,257.5C 17.3218,249.072 16.4885,240.739 14,232.5C 13.6667,232.833 13.3333,233.167 13,233.5C 12.6264,231.509 11.793,229.842 10.5,228.5C 11.5552,225.927 11.7218,223.261 11,220.5C 9.39147,216.939 8.2248,213.272 7.5,209.5C 8.15986,208.036 8.49319,206.369 8.5,204.5C 8.71204,201.989 8.04537,199.822 6.5,198C 9.54766,196.27 10.2143,193.77 8.5,190.5C 8.16667,190.667 7.83333,190.833 7.5,191C 8.81632,192.978 8.31632,194.478 6,195.5C 5.27969,193.888 5.44636,192.388 6.5,191C 4.60607,189.899 3.9394,188.566 4.5,187C 15.8554,186.283 27.1887,186.449 38.5,187.5C 38.0826,192.068 40.0826,193.568 44.5,192C 43.269,190.817 43.269,189.651 44.5,188.5C 49.9755,191.423 55.3088,191.923 60.5,190C 58.3686,189.457 56.3686,188.624 54.5,187.5C 55.5,187.167 56.5,186.833 57.5,186.5C 59.6597,186.766 61.3264,187.766 62.5,189.5C 64.1112,188.68 64.7778,187.346 64.5,185.5C 72.5,185.5 80.5,185.5 88.5,185.5C 88.8039,186.15 89.1373,186.817 89.5,187.5C 91.7662,188.314 94.0995,188.814 96.5,189C 178.833,189.333 261.167,189.667 343.5,190C 342.179,191.545 342.512,192.711 344.5,193.5C 347.6,191.467 348.6,188.8 347.5,185.5C 355.5,185.5 363.5,185.5 371.5,185.5C 372.492,187.026 373.992,187.693 376,187.5C 379.26,186.378 382.593,185.378 386,184.5C 387.667,186.5 389.333,188.5 391,190.5C 390.923,189.262 391.089,188.262 391.5,187.5C 392.167,187.833 392.833,188.167 393.5,188.5C 395.776,187.787 398.109,187.287 400.5,187C 410.828,186.5 421.161,186.334 431.5,186.5C 431.5,187.5 431.5,188.5 431.5,189.5C 423.949,188.763 416.449,188.43 409,188.5C 403.552,189.146 398.052,189.812 392.5,190.5C 394.982,191.574 397.316,192.908 399.5,194.5C 398.738,194.911 397.738,195.077 396.5,195C 396.784,196.956 396.784,199.123 396.5,201.5C 392.116,201.826 387.783,201.492 383.5,200.5C 384.714,198.931 386.381,198.098 388.5,198C 387.833,197.667 387.167,197.333 386.5,197C 388.992,195.751 388.825,194.584 386,193.5C 378.4,193.054 370.734,193.721 363,195.5C 362.326,194.422 361.326,193.755 360,193.5C 357.746,194.239 355.579,195.239 353.5,196.5C 354.912,197.806 356.579,198.64 358.5,199C 357.833,199.333 357.167,199.667 356.5,200C 358.101,200.273 359.601,200.773 361,201.5C 360.513,203.044 360.013,204.71 359.5,206.5C 357.876,206.64 356.71,205.973 356,204.5C 355.667,205.167 355.333,205.833 355,206.5C 353.915,205.707 352.748,205.04 351.5,204.5C 349.059,206.528 348.892,208.862 351,211.5C 351.667,210.833 352.333,210.167 353,209.5C 353.667,212.5 353.667,215.5 353,218.5C 352.92,216.752 352.087,215.085 350.5,213.5C 349.281,214.263 348.281,215.263 347.5,216.5C 346.756,215.009 346.09,213.509 345.5,212C 346.687,210.981 347.687,209.814 348.5,208.5C 345.466,206.777 342.466,205.11 339.5,203.5 Z"></path></g>
<g><path style="opacity:1" fill="#013f6a" d="M 88.5,185.5 C 174.167,185.5 259.833,185.5 345.5,185.5C 346.167,185.5 346.833,185.5 347.5,185.5C 348.6,188.8 347.6,191.467 344.5,193.5C 342.512,192.711 342.179,191.545 343.5,190C 261.167,189.667 178.833,189.333 96.5,189C 94.0995,188.814 91.7662,188.314 89.5,187.5C 89.1373,186.817 88.8039,186.15 88.5,185.5 Z"></path></g>
<g><path style="opacity:1" fill="#f4f8f9" d="M 54.5,242.5 C 54.5,243.5 54.5,244.5 54.5,245.5C 50.5633,245.793 46.73,245.46 43,244.5C 43.5626,233.865 43.3959,223.198 42.5,212.5C 38.5,212.5 34.5,212.5 30.5,212.5C 30.5,209.5 30.5,206.5 30.5,203.5C 32.5,203.5 34.5,203.5 36.5,203.5C 46.0521,202.815 55.7188,202.648 65.5,203C 67.3444,205.804 68.0111,208.97 67.5,212.5C 63.1355,212.731 58.9688,213.064 55,213.5C 54.5002,223.161 54.3335,232.828 54.5,242.5 Z"></path></g>
<g><path style="opacity:1" fill="#bed2de" d="M 198.5,202.5 C 198.5,203.5 198.5,204.5 198.5,205.5C 194.936,204.577 191.269,204.244 187.5,204.5C 187.5,208.833 187.5,213.167 187.5,217.5C 186.352,213.019 186.185,208.352 187,203.5C 190.793,203.473 194.626,203.14 198.5,202.5 Z"></path></g>
<g><path style="opacity:1" fill="#f4f8fa" d="M 302.5,213.5 C 296.131,213.653 289.797,213.32 283.5,212.5C 283.5,214.5 283.5,216.5 283.5,218.5C 289.842,218.334 296.175,218.5 302.5,219C 303.451,222.057 303.784,225.223 303.5,228.5C 296.833,228.5 290.167,228.5 283.5,228.5C 283.5,230.5 283.5,232.5 283.5,234.5C 290.508,234.334 297.508,234.5 304.5,235C 305.799,238.135 305.799,241.301 304.5,244.5C 293.52,245.499 282.52,245.832 271.5,245.5C 271.5,231.5 271.5,217.5 271.5,203.5C 282.053,203.054 292.72,202.887 303.5,203C 304.042,205.549 304.376,208.049 304.5,210.5C 304.547,212.038 303.88,213.038 302.5,213.5 Z"></path></g>
<g><path style="opacity:1" fill="#f7fbfb" d="M 365.5,202.5 C 373.181,202.723 380.847,203.223 388.5,204C 392.321,205.161 395.821,206.994 399,209.5C 406.097,221.652 404.597,232.486 394.5,242C 384.535,245.506 374.369,246.339 364,244.5C 363.833,237.667 363.667,230.833 363.5,224C 363.536,216.598 364.203,209.431 365.5,202.5 Z"></path></g>
<g><path style="opacity:1" fill="#f6f9fa" d="M 263.5,203.5 C 263.667,217.171 263.5,230.837 263,244.5C 259.606,245.456 256.106,245.789 252.5,245.5C 251.708,239.87 251.375,234.203 251.5,228.5C 248.833,228.5 246.167,228.5 243.5,228.5C 241.208,228.244 239.041,228.577 237,229.5C 236.888,234.76 236.721,239.927 236.5,245C 232.848,245.499 229.182,245.665 225.5,245.5C 225.5,231.5 225.5,217.5 225.5,203.5C 229.437,203.207 233.27,203.54 237,204.5C 236.774,209.123 236.607,213.79 236.5,218.5C 241.544,218.827 246.544,218.494 251.5,217.5C 252.448,212.565 252.781,207.565 252.5,202.5C 256.269,202.244 259.936,202.577 263.5,203.5 Z"></path></g>
<g><path style="opacity:1" fill="#f7fbfb" d="M 339.5,203.5 C 345.48,216.797 351.48,230.13 357.5,243.5C 356.995,244.919 355.995,245.585 354.5,245.5C 351.482,245.665 348.482,245.498 345.5,245C 344.944,242.763 343.944,240.763 342.5,239C 336.569,237.529 330.569,237.196 324.5,238C 323.009,240.097 322.009,242.43 321.5,245C 317.514,245.499 313.514,245.666 309.5,245.5C 311.027,238.796 313.36,232.463 316.5,226.5C 320.159,219.448 323.492,212.115 326.5,204.5C 330.68,202.197 335.014,201.864 339.5,203.5 Z"></path></g>
<g><path style="opacity:1" fill="#082a49" d="M 389.5,229.5 C 391.774,218.453 387.441,213.453 376.5,214.5C 376.5,220.833 376.5,227.167 376.5,233.5C 379.167,233.5 381.833,233.5 384.5,233.5C 381.713,234.477 378.713,234.81 375.5,234.5C 375.187,227.245 375.52,220.079 376.5,213C 388.879,212.21 393.213,217.71 389.5,229.5 Z"></path></g>
<g><path style="opacity:1" fill="#033d6b" d="M 389.5,229.5 C 388.735,231.929 387.069,233.262 384.5,233.5C 381.833,233.5 379.167,233.5 376.5,233.5C 376.5,227.167 376.5,220.833 376.5,214.5C 387.441,213.453 391.774,218.453 389.5,229.5 Z"></path></g>
<g><path style="opacity:1" fill="#0d345d" d="M 331.5,217.5 C 332.822,217.33 333.989,217.663 335,218.5C 335.269,221.352 336.103,224.018 337.5,226.5C 337.192,227.308 336.692,227.975 336,228.5C 333.527,227.88 331.027,227.214 328.5,226.5C 330.105,223.686 331.105,220.686 331.5,217.5 Z"></path></g>
<g><path style="opacity:1" fill="#043d69" d="M 198.5,202.5 C 194.626,203.14 190.793,203.473 187,203.5C 186.185,208.352 186.352,213.019 187.5,217.5C 187.063,226.884 187.063,236.05 187.5,245C 197.833,245.667 208.167,245.667 218.5,245C 219.266,241.582 219.266,238.082 218.5,234.5C 211.833,234.5 205.167,234.5 198.5,234.5C 198.5,233.167 198.5,231.833 198.5,230.5C 203.75,231.615 209.083,231.781 214.5,231C 215.641,230.259 215.641,229.425 214.5,228.5C 213.271,227.719 211.938,227.219 210.5,227C 214.065,221.603 217.065,221.603 219.5,227C 216.7,229.419 216.867,231.586 220,233.5C 220.349,236.968 221.182,240.302 222.5,243.5C 223.332,238.134 222.998,232.801 221.5,227.5C 221.808,226.692 222.308,226.025 223,225.5C 222.863,217.765 223.696,210.432 225.5,203.5C 225.5,217.5 225.5,231.5 225.5,245.5C 229.182,245.665 232.848,245.499 236.5,245C 236.721,239.927 236.888,234.76 237,229.5C 239.041,228.577 241.208,228.244 243.5,228.5C 244.263,229.268 245.263,229.768 246.5,230C 245.833,231 245.167,232 244.5,233C 246.333,234.167 248.167,235.333 250,236.5C 250.039,240.581 250.872,244.415 252.5,248C 249.96,249.813 248.96,252.313 249.5,255.5C 251.677,255.414 253.677,254.747 255.5,253.5C 258.105,254.036 260.772,254.202 263.5,254C 263.957,254.414 264.291,254.914 264.5,255.5C 256.855,256.665 249.188,256.831 241.5,256C 242.973,255.29 243.64,254.124 243.5,252.5C 239.5,251.833 237.833,253.5 238.5,257.5C 263.224,258.805 288.057,259.472 313,259.5C 337.208,259.495 361.375,259.162 385.5,258.5C 387.904,259.008 388.571,260.175 387.5,262C 388.737,262.232 389.737,262.732 390.5,263.5C 338.167,263.5 285.833,263.5 233.5,263.5C 229.167,263.5 224.833,263.5 220.5,263.5C 161.5,263.5 102.5,263.5 43.5,263.5C 40.8333,263.5 38.1667,263.5 35.5,263.5C 35.825,271.019 35.4916,278.352 34.5,285.5C 33.501,296.752 33.1677,308.752 33.5,321.5C 29.8212,321.724 26.1545,322.058 22.5,322.5C 22.8289,308.99 22.4956,295.656 21.5,282.5C 22.1904,276.19 22.5237,269.857 22.5,263.5C 15.1667,263.5 7.83333,263.5 0.5,263.5C 4.12403,251.918 7.45737,240.251 10.5,228.5C 11.793,229.842 12.6264,231.509 13,233.5C 13.3333,233.167 13.6667,232.833 14,232.5C 16.4885,240.739 17.3218,249.072 16.5,257.5C 20.1064,257.789 23.6064,257.456 27,256.5C 29.0241,258.358 31.1908,260.025 33.5,261.5C 35.444,260.811 37.444,260.311 39.5,260C 39.3842,258.732 39.0509,257.398 38.5,256C 41.3646,256.541 43.3646,255.207 44.5,252C 49.039,251.747 53.539,251.247 58,250.5C 59.7215,250.611 59.8882,251.111 58.5,252C 55.3771,252.206 52.3771,252.873 49.5,254C 48.1667,254.667 48.1667,255.333 49.5,256C 54.1667,256.667 58.8333,256.667 63.5,256C 64.2638,253.931 64.7638,251.764 65,249.5C 65.49,250.793 65.6567,252.127 65.5,253.5C 68.1096,251.432 71.1096,249.932 74.5,249C 72.913,248.138 71.2464,247.471 69.5,247C 69.8333,246.667 70.1667,246.333 70.5,246C 68.9799,243.404 68.1466,240.571 68,237.5C 67.6667,238.167 67.3333,238.833 67,239.5C 66.9546,236.666 66.1213,234.166 64.5,232C 65.4491,231.383 66.2825,231.549 67,232.5C 67.9086,237.73 69.0753,237.73 70.5,232.5C 70.8333,227.5 71.1667,222.5 71.5,217.5C 71.6453,211.998 71.1453,206.664 70,201.5C 69.1301,202.108 68.6301,202.941 68.5,204C 69.723,207.503 69.723,211.003 68.5,214.5C 64.4474,218.339 60.2807,218.339 56,214.5C 55.8299,224.009 55.3299,233.342 54.5,242.5C 54.3335,232.828 54.5002,223.161 55,213.5C 58.9688,213.064 63.1355,212.731 67.5,212.5C 68.0111,208.97 67.3444,205.804 65.5,203C 55.7188,202.648 46.0521,202.815 36.5,203.5C 35.3915,202.71 34.0581,202.21 32.5,202C 36.1667,201 39.8333,200 43.5,199C 46.1667,198.333 46.1667,197.667 43.5,197C 44.8721,196.598 46.2054,196.098 47.5,195.5C 53.3316,197.148 59.3316,198.148 65.5,198.5C 66.1667,197.833 66.8333,197.167 67.5,196.5C 69.9348,196.842 72.6014,197.509 75.5,198.5C 77.8006,197.604 80.1339,197.438 82.5,198C 81.6433,198.689 80.9767,199.522 80.5,200.5C 86.229,201.12 91.229,201.786 95.5,202.5C 88.1667,202.5 80.8333,202.5 73.5,202.5C 72.8118,213.338 72.8118,224.005 73.5,234.5C 72.6239,237.799 72.4572,241.132 73,244.5C 76.73,245.46 80.5633,245.793 84.5,245.5C 84.5,240.833 84.5,236.167 84.5,231.5C 86.288,231.215 87.9547,231.548 89.5,232.5C 92.3063,236.806 95.3063,240.973 98.5,245C 102.821,245.499 107.154,245.666 111.5,245.5C 108.355,239.898 104.688,234.565 100.5,229.5C 101.689,228.571 103.022,228.238 104.5,228.5C 105.922,228.291 107.255,227.791 108.5,227C 109.305,225.028 110.639,223.528 112.5,222.5C 110.424,220.063 110.091,217.397 111.5,214.5C 113.5,216.167 115.5,217.833 117.5,219.5C 118.946,218.829 119.612,217.662 119.5,216C 117.527,213.069 118.194,212.069 121.5,213C 120.208,218.809 120.875,218.976 123.5,213.5C 122.477,211.997 121.477,210.497 120.5,209C 120.833,208.5 121.167,208 121.5,207.5C 122.386,208.325 122.719,209.325 122.5,210.5C 125.835,209.539 127.501,207.206 127.5,203.5C 128.5,203.5 129.5,203.5 130.5,203.5C 124.938,217.052 118.938,230.386 112.5,243.5C 112.709,244.086 113.043,244.586 113.5,245C 117.167,245.667 120.833,245.667 124.5,245C 125.399,242.808 126.399,240.642 127.5,238.5C 133.828,237.404 140.161,237.404 146.5,238.5C 146.586,240.677 147.253,242.677 148.5,244.5C 152.445,245.491 156.445,245.824 160.5,245.5C 160.66,243.801 160.494,242.134 160,240.5C 157.868,236.59 156.035,232.59 154.5,228.5C 156.794,232.24 159.46,235.74 162.5,239C 163.448,239.483 164.448,239.649 165.5,239.5C 165.667,227.495 165.5,215.495 165,203.5C 164.333,202.833 163.667,202.167 163,201.5C 162.911,204.849 161.744,205.349 159.5,203C 159.854,201.374 159.854,199.541 159.5,197.5C 162.214,197.75 164.881,197.917 167.5,198C 170.21,196.54 170.876,194.54 169.5,192C 174.115,190.686 175.115,191.686 172.5,195C 174.155,196.444 174.822,198.278 174.5,200.5C 176.635,200.853 177.968,200.02 178.5,198C 176.987,196.121 176.321,193.954 176.5,191.5C 177.833,191.5 179.167,191.5 180.5,191.5C 180.281,192.675 180.614,193.675 181.5,194.5C 183.578,192.014 186.245,191.014 189.5,191.5C 188.57,194.117 187.403,196.45 186,198.5C 190.093,200.392 194.26,201.725 198.5,202.5 Z"></path></g>
<g><path style="opacity:1" fill="#f6fafb" d="M 198.5,205.5 C 198.5,213.833 198.5,222.167 198.5,230.5C 198.5,231.833 198.5,233.167 198.5,234.5C 205.167,234.5 211.833,234.5 218.5,234.5C 219.266,238.082 219.266,241.582 218.5,245C 208.167,245.667 197.833,245.667 187.5,245C 187.063,236.05 187.063,226.884 187.5,217.5C 187.5,213.167 187.5,208.833 187.5,204.5C 191.269,204.244 194.936,204.577 198.5,205.5 Z"></path></g>
<g><path style="opacity:1" fill="#d4e2ec" d="M 95.5,202.5 C 95.5,202.833 95.5,203.167 95.5,203.5C 88.5869,204.014 81.5869,204.014 74.5,203.5C 74.1903,209.758 74.5236,215.924 75.5,222C 73.6876,225.922 73.021,230.089 73.5,234.5C 72.8118,224.005 72.8118,213.338 73.5,202.5C 80.8333,202.5 88.1667,202.5 95.5,202.5 Z"></path></g>
<g><path style="opacity:1" fill="#f7fbfb" d="M 154.5,228.5 C 156.035,232.59 157.868,236.59 160,240.5C 160.494,242.134 160.66,243.801 160.5,245.5C 156.445,245.824 152.445,245.491 148.5,244.5C 147.253,242.677 146.586,240.677 146.5,238.5C 140.161,237.404 133.828,237.404 127.5,238.5C 126.399,240.642 125.399,242.808 124.5,245C 120.833,245.667 117.167,245.667 113.5,245C 113.043,244.586 112.709,244.086 112.5,243.5C 118.938,230.386 124.938,217.052 130.5,203.5C 134.833,202.167 139.167,202.167 143.5,203.5C 147.317,211.775 150.984,220.108 154.5,228.5 Z"></path></g>
<g><path style="opacity:1" fill="#0f345c" d="M 135.5,216.5 C 136.496,216.414 137.329,216.748 138,217.5C 138.975,220.76 140.142,223.927 141.5,227C 140.975,227.692 140.308,228.192 139.5,228.5C 137.253,227.626 134.92,227.292 132.5,227.5C 133.301,223.765 134.301,220.099 135.5,216.5 Z"></path></g>
<g><path style="opacity:1" fill="#f1f6f8" d="M 167.5,202.5 C 171.673,201.956 175.506,202.623 179,204.5C 179.815,217.879 179.648,231.212 178.5,244.5C 174.62,245.795 170.786,245.795 167,244.5C 166.186,230.425 166.352,216.425 167.5,202.5 Z"></path></g>
<g><path style="opacity:1" fill="#f9fcfc" d="M 95.5,203.5 C 97.9267,203.523 100.26,204.023 102.5,205C 111.016,212.124 111.683,219.957 104.5,228.5C 103.022,228.238 101.689,228.571 100.5,229.5C 104.688,234.565 108.355,239.898 111.5,245.5C 107.154,245.666 102.821,245.499 98.5,245C 95.3063,240.973 92.3063,236.806 89.5,232.5C 87.9547,231.548 86.288,231.215 84.5,231.5C 84.5,236.167 84.5,240.833 84.5,245.5C 80.5633,245.793 76.73,245.46 73,244.5C 72.4572,241.132 72.6239,237.799 73.5,234.5C 73.021,230.089 73.6876,225.922 75.5,222C 74.5236,215.924 74.1903,209.758 74.5,203.5C 81.5869,204.014 88.5869,204.014 95.5,203.5 Z"></path></g>
<g><path style="opacity:1" fill="#073865" d="M 84.5,212.5 C 88.1817,212.335 91.8484,212.501 95.5,213C 98.4704,216.444 98.1371,219.444 94.5,222C 91.5,222.667 88.5,222.667 85.5,222C 84.5495,218.943 84.2161,215.777 84.5,212.5 Z"></path></g>
<g><path style="opacity:1" fill="#fafdfb" d="M 43.5,263.5 C 43.5,266.167 43.5,268.833 43.5,271.5C 41.7308,287.058 41.0641,302.725 41.5,318.5C 48.9973,321.671 56.664,324.671 64.5,327.5C 88.1936,337.659 112.86,345.325 138.5,350.5C 147.392,352.712 156.558,354.046 166,354.5C 182.035,353.699 193.368,346.033 200,331.5C 200.808,327.973 200.641,324.64 199.5,321.5C 198.475,316.629 196.308,312.295 193,308.5C 187.306,303.473 181.973,298.14 177,292.5C 176.421,290.351 175.921,288.185 175.5,286C 176.056,282.691 177.39,279.857 179.5,277.5C 192.445,273.225 205.778,271.392 219.5,272C 225.565,270.015 225.899,267.515 220.5,264.5C 220.5,264.167 220.5,263.833 220.5,263.5C 224.833,263.5 229.167,263.5 233.5,263.5C 234.604,265.389 235.937,267.055 237.5,268.5C 239.6,273.476 238.267,277.309 233.5,280C 224.062,284.42 214.062,286.753 203.5,287C 199.072,288.299 198.405,290.633 201.5,294C 217.076,297.402 230.243,304.902 241,316.5C 249.952,329.105 251.786,342.605 246.5,357C 253.49,357.001 260.49,356.668 267.5,356C 299.798,351.677 331.131,343.677 361.5,332C 371.591,326.955 381.925,322.455 392.5,318.5C 392.707,300.461 392.04,282.461 390.5,264.5C 390.5,264.167 390.5,263.833 390.5,263.5C 392.833,263.5 395.167,263.5 397.5,263.5C 399.349,283.172 399.682,302.839 398.5,322.5C 322.478,360.527 242.145,373.36 157.5,361C 114.499,354.556 73.6659,341.723 35,322.5C 34.5001,310.171 34.3335,297.838 34.5,285.5C 35.4916,278.352 35.825,271.019 35.5,263.5C 38.1667,263.5 40.8333,263.5 43.5,263.5 Z"></path></g>
<g><path style="opacity:1" fill="#669771" d="M 233.5,263.5 C 285.833,263.5 338.167,263.5 390.5,263.5C 390.5,263.833 390.5,264.167 390.5,264.5C 339.166,264.333 287.832,264.5 236.5,265C 237.337,266.011 237.67,267.178 237.5,268.5C 235.937,267.055 234.604,265.389 233.5,263.5 Z"></path></g>
<g><path style="opacity:1" fill="#669771" d="M 43.5,263.5 C 102.5,263.5 161.5,263.5 220.5,263.5C 220.5,263.833 220.5,264.167 220.5,264.5C 161.833,264.5 103.167,264.5 44.5,264.5C 44.8016,267.059 44.4682,269.393 43.5,271.5C 43.5,268.833 43.5,266.167 43.5,263.5 Z"></path></g>
<g><path style="opacity:1" fill="#699b57" d="M 220.5,264.5 C 225.899,267.515 225.565,270.015 219.5,272C 205.778,271.392 192.445,273.225 179.5,277.5C 176.53,277.746 175.197,279.412 175.5,282.5C 174.167,282.5 172.833,282.5 171.5,282.5C 171.579,283.93 171.246,285.264 170.5,286.5C 171.914,287.624 173.414,288.624 175,289.5C 175.133,292.525 176.133,295.192 178,297.5C 186.587,304.342 193.754,312.342 199.5,321.5C 200.641,324.64 200.808,327.973 200,331.5C 193.368,346.033 182.035,353.699 166,354.5C 156.558,354.046 147.392,352.712 138.5,350.5C 137.547,348.39 135.881,347.223 133.5,347C 126.833,345.667 120.167,344.333 113.5,343C 113.167,342.667 112.833,342.333 112.5,342C 114.847,341.288 116.847,340.121 118.5,338.5C 115.833,337.167 113.167,335.833 110.5,334.5C 109.692,334.808 109.025,335.308 108.5,336C 110.002,336.583 111.335,337.416 112.5,338.5C 111.975,339.192 111.308,339.692 110.5,340C 105.707,340.651 101.04,340.151 96.5,338.5C 96.719,337.325 96.3857,336.325 95.5,335.5C 94.2278,336.046 92.8945,336.379 91.5,336.5C 89.223,335.522 86.8897,334.855 84.5,334.5C 84.5,333.5 84.5,332.5 84.5,331.5C 77.8799,330.264 71.2132,328.931 64.5,327.5C 56.664,324.671 48.9973,321.671 41.5,318.5C 41.0641,302.725 41.7308,287.058 43.5,271.5C 44.4682,269.393 44.8016,267.059 44.5,264.5C 103.167,264.5 161.833,264.5 220.5,264.5 Z"></path></g>
<g><path style="opacity:1" fill="#699b57" d="M 390.5,264.5 C 392.04,282.461 392.707,300.461 392.5,318.5C 381.925,322.455 371.591,326.955 361.5,332C 331.131,343.677 299.798,351.677 267.5,356C 260.49,356.668 253.49,357.001 246.5,357C 251.786,342.605 249.952,329.105 241,316.5C 230.243,304.902 217.076,297.402 201.5,294C 198.405,290.633 199.072,288.299 203.5,287C 214.062,286.753 224.062,284.42 233.5,280C 238.267,277.309 239.6,273.476 237.5,268.5C 237.67,267.178 237.337,266.011 236.5,265C 287.832,264.5 339.166,264.333 390.5,264.5 Z"></path></g>
<g><path style="opacity:1" fill="#6a945d" d="M 179.5,277.5 C 177.39,279.857 176.056,282.691 175.5,286C 175.921,288.185 176.421,290.351 177,292.5C 181.973,298.14 187.306,303.473 193,308.5C 196.308,312.295 198.475,316.629 199.5,321.5C 193.754,312.342 186.587,304.342 178,297.5C 176.133,295.192 175.133,292.525 175,289.5C 173.414,288.624 171.914,287.624 170.5,286.5C 171.246,285.264 171.579,283.93 171.5,282.5C 172.833,282.5 174.167,282.5 175.5,282.5C 175.197,279.412 176.53,277.746 179.5,277.5 Z"></path></g>
<g><path style="opacity:1" fill="#053c69" d="M 263.5,203.5 C 265.198,216.326 266.198,229.493 266.5,243C 264.987,244.879 264.321,247.046 264.5,249.5C 268.738,249.712 270.405,251.712 269.5,255.5C 270.167,255.833 270.833,256.167 271.5,256.5C 280.886,255.863 291.553,255.697 303.5,256C 305.449,254.165 307.783,252.999 310.5,252.5C 311.902,251.158 311.569,250.324 309.5,250C 302.588,250.952 295.588,251.452 288.5,251.5C 288.5,250.5 288.5,249.5 288.5,248.5C 293.875,248.828 299.208,248.495 304.5,247.5C 292.852,246.501 281.186,246.168 269.5,246.5C 269.333,232.496 269.5,218.496 270,204.5C 270.383,203.944 270.883,203.611 271.5,203.5C 271.5,217.5 271.5,231.5 271.5,245.5C 282.52,245.832 293.52,245.499 304.5,244.5C 305.799,241.301 305.799,238.135 304.5,235C 297.508,234.5 290.508,234.334 283.5,234.5C 283.5,232.5 283.5,230.5 283.5,228.5C 290.167,228.5 296.833,228.5 303.5,228.5C 303.784,225.223 303.451,222.057 302.5,219C 296.175,218.5 289.842,218.334 283.5,218.5C 283.5,216.5 283.5,214.5 283.5,212.5C 289.797,213.32 296.131,213.653 302.5,213.5C 299.695,214.319 296.695,214.819 293.5,215C 295.847,215.436 298.181,215.936 300.5,216.5C 302.387,214.867 303.887,215.2 305,217.5C 305.333,221.167 305.667,224.833 306,228.5C 306.414,228.043 306.914,227.709 307.5,227.5C 308.432,229.766 309.766,231.766 311.5,233.5C 312.928,231.345 313.261,229.179 312.5,227C 313.793,226.51 315.127,226.343 316.5,226.5C 313.36,232.463 311.027,238.796 309.5,245.5C 313.514,245.666 317.514,245.499 321.5,245C 322.009,242.43 323.009,240.097 324.5,238C 330.569,237.196 336.569,237.529 342.5,239C 343.944,240.763 344.944,242.763 345.5,245C 348.482,245.498 351.482,245.665 354.5,245.5C 348.008,247.998 342.841,246.331 339,240.5C 337.477,242.569 336.643,244.903 336.5,247.5C 341.74,248.413 341.74,249.413 336.5,250.5C 347.167,251.167 357.833,251.833 368.5,252.5C 366.518,253.216 364.851,254.383 363.5,256C 372.522,256.525 381.522,256.858 390.5,257C 389.663,255.989 389.33,254.822 389.5,253.5C 391.857,253.337 394.19,253.503 396.5,254C 392.534,255.721 392.534,257.388 396.5,259C 394.382,259.26 392.716,260.26 391.5,262C 395.876,262.97 399.876,262.137 403.5,259.5C 405.441,259.804 407.107,260.637 408.5,262C 416.167,262.667 423.833,262.667 431.5,262C 428.213,261.999 426.047,260.499 425,257.5C 424.667,257.833 424.333,258.167 424,258.5C 423.517,257.552 423.351,256.552 423.5,255.5C 425.665,255.884 427.332,255.217 428.5,253.5C 425.947,251.643 423.447,250.31 421,249.5C 420.5,250.667 419.667,251.5 418.5,252C 419.136,254.394 419.136,256.894 418.5,259.5C 411.536,258.087 404.536,257.42 397.5,257.5C 402.577,254.063 407.411,253.73 412,256.5C 412.71,255.027 413.876,254.36 415.5,254.5C 415.5,253.167 415.5,251.833 415.5,250.5C 416.5,250.5 417.5,250.5 418.5,250.5C 418.198,245.348 419.865,241.014 423.5,237.5C 424.896,239.972 425.73,242.638 426,245.5C 426.494,243.866 426.66,242.199 426.5,240.5C 429.2,247.95 431.533,255.617 433.5,263.5C 425.826,263.334 418.159,263.5 410.5,264C 411.933,278.071 412.6,292.238 412.5,306.5C 412.493,315.075 412.16,323.575 411.5,332C 313.766,381.287 211.766,391.954 105.5,364C 86.4396,358.647 67.7729,352.314 49.5,345C 40.0758,340.557 30.9091,335.723 22,330.5C 20.2622,314.511 20.0956,298.511 21.5,282.5C 22.4956,295.656 22.8289,308.99 22.5,322.5C 26.1545,322.058 29.8212,321.724 33.5,321.5C 33.1677,308.752 33.501,296.752 34.5,285.5C 34.3335,297.838 34.5001,310.171 35,322.5C 73.6659,341.723 114.499,354.556 157.5,361C 242.145,373.36 322.478,360.527 398.5,322.5C 399.682,302.839 399.349,283.172 397.5,263.5C 395.167,263.5 392.833,263.5 390.5,263.5C 389.737,262.732 388.737,262.232 387.5,262C 388.571,260.175 387.904,259.008 385.5,258.5C 361.375,259.162 337.208,259.495 313,259.5C 288.057,259.472 263.224,258.805 238.5,257.5C 237.833,253.5 239.5,251.833 243.5,252.5C 243.64,254.124 242.973,255.29 241.5,256C 249.188,256.831 256.855,256.665 264.5,255.5C 264.291,254.914 263.957,254.414 263.5,254C 260.772,254.202 258.105,254.036 255.5,253.5C 253.677,254.747 251.677,255.414 249.5,255.5C 248.96,252.313 249.96,249.813 252.5,248C 250.872,244.415 250.039,240.581 250,236.5C 248.167,235.333 246.333,234.167 244.5,233C 245.167,232 245.833,231 246.5,230C 245.263,229.768 244.263,229.268 243.5,228.5C 246.167,228.5 248.833,228.5 251.5,228.5C 251.375,234.203 251.708,239.87 252.5,245.5C 256.106,245.789 259.606,245.456 263,244.5C 263.5,230.837 263.667,217.171 263.5,203.5 Z"></path></g>
<g><path style="opacity:1" fill="#6b975c" d="M 64.5,327.5 C 71.2132,328.931 77.8799,330.264 84.5,331.5C 84.5,332.5 84.5,333.5 84.5,334.5C 86.8897,334.855 89.223,335.522 91.5,336.5C 92.8945,336.379 94.2278,336.046 95.5,335.5C 96.3857,336.325 96.719,337.325 96.5,338.5C 101.04,340.151 105.707,340.651 110.5,340C 111.308,339.692 111.975,339.192 112.5,338.5C 111.335,337.416 110.002,336.583 108.5,336C 109.025,335.308 109.692,334.808 110.5,334.5C 113.167,335.833 115.833,337.167 118.5,338.5C 116.847,340.121 114.847,341.288 112.5,342C 112.833,342.333 113.167,342.667 113.5,343C 120.167,344.333 126.833,345.667 133.5,347C 135.881,347.223 137.547,348.39 138.5,350.5C 112.86,345.325 88.1936,337.659 64.5,327.5 Z"></path></g>
</svg>