<svg xmlns="http://www.w3.org/2000/svg" version="1.1" width="20" height="11.56773211567732" style="shape-rendering:geometricPrecision; text-rendering:geometricPrecision; image-rendering:optimizeQuality; fill-rule:evenodd; clip-rule:evenodd" xmlns:xlink="http://www.w3.org/1999/xlink">
<g><path style="opacity:1" fill="#043d6a" d="M 537.5,240.5 C 537.66,242.199 537.494,243.866 537,245.5C 536.73,242.638 535.896,239.972 534.5,237.5C 530.865,241.014 529.198,245.348 529.5,250.5C 528.5,250.5 527.5,250.5 526.5,250.5C 526.5,251.833 526.5,253.167 526.5,254.5C 524.876,254.36 523.71,255.027 523,256.5C 518.411,253.73 513.577,254.063 508.5,257.5C 515.536,257.42 522.536,258.087 529.5,259.5C 530.136,256.894 530.136,254.394 529.5,252C 530.667,251.5 531.5,250.667 532,249.5C 534.447,250.31 536.947,251.643 539.5,253.5C 538.332,255.217 536.665,255.884 534.5,255.5C 534.351,256.552 534.517,257.552 535,258.5C 535.333,258.167 535.667,257.833 536,257.5C 537.047,260.499 539.213,261.999 542.5,262C 534.833,262.667 527.167,262.667 519.5,262C 518.107,260.637 516.441,259.804 514.5,259.5C 510.876,262.137 506.876,262.97 502.5,262C 503.716,260.26 505.382,259.26 507.5,259C 503.534,257.388 503.534,255.721 507.5,254C 505.19,253.503 502.857,253.337 500.5,253.5C 500.33,254.822 500.663,255.989 501.5,257C 492.522,256.858 483.522,256.525 474.5,256C 475.851,254.383 477.518,253.216 479.5,252.5C 468.833,251.833 458.167,251.167 447.5,250.5C 452.74,249.413 452.74,248.413 447.5,247.5C 447.643,244.903 448.477,242.569 450,240.5C 453.841,246.331 459.008,247.998 465.5,245.5C 466.995,245.585 467.995,244.919 468.5,243.5C 462.48,230.13 456.48,216.797 450.5,203.5C 453.466,205.11 456.466,206.777 459.5,208.5C 458.687,209.814 457.687,210.981 456.5,212C 457.09,213.509 457.756,215.009 458.5,216.5C 459.281,215.263 460.281,214.263 461.5,213.5C 463.087,215.085 463.92,216.752 464,218.5C 464.667,215.5 464.667,212.5 464,209.5C 463.333,210.167 462.667,210.833 462,211.5C 459.892,208.862 460.059,206.528 462.5,204.5C 463.748,205.04 464.915,205.707 466,206.5C 466.333,205.833 466.667,205.167 467,204.5C 467.71,205.973 468.876,206.64 470.5,206.5C 471.013,204.71 471.513,203.044 472,201.5C 470.601,200.773 469.101,200.273 467.5,200C 468.167,199.667 468.833,199.333 469.5,199C 467.579,198.64 465.912,197.806 464.5,196.5C 466.579,195.239 468.746,194.239 471,193.5C 472.326,193.755 473.326,194.422 474,195.5C 481.734,193.721 489.4,193.054 497,193.5C 499.825,194.584 499.992,195.751 497.5,197C 498.167,197.333 498.833,197.667 499.5,198C 497.381,198.098 495.714,198.931 494.5,200.5C 498.783,201.492 503.116,201.826 507.5,201.5C 507.784,199.123 507.784,196.956 507.5,195C 508.738,195.077 509.738,194.911 510.5,194.5C 508.316,192.908 505.982,191.574 503.5,190.5C 509.052,189.812 514.552,189.146 520,188.5C 527.449,188.43 534.949,188.763 542.5,189.5C 542.5,188.5 542.5,187.5 542.5,186.5C 532.161,186.334 521.828,186.5 511.5,187C 509.109,187.287 506.776,187.787 504.5,188.5C 503.833,188.167 503.167,187.833 502.5,187.5C 502.089,188.262 501.923,189.262 502,190.5C 500.333,188.5 498.667,186.5 497,184.5C 493.593,185.378 490.26,186.378 487,187.5C 484.992,187.693 483.492,187.026 482.5,185.5C 485.167,185.5 487.833,185.5 490.5,185.5C 462.142,103.411 407.642,46.4108 327,14.5C 258.904,39.9316 208.904,85.2649 177,150.5C 171.95,161.937 167.45,173.603 163.5,185.5C 166.167,185.5 168.833,185.5 171.5,185.5C 180.833,185.5 190.167,185.5 199.5,185.5C 285.167,185.5 370.833,185.5 456.5,185.5C 457.167,185.5 457.833,185.5 458.5,185.5C 459.6,188.8 458.6,191.467 455.5,193.5C 453.512,192.711 453.179,191.545 454.5,190C 372.167,189.667 289.833,189.333 207.5,189C 204.776,188.73 202.109,188.23 199.5,187.5C 198.304,187.846 198.304,188.346 199.5,189C 190.659,189.426 181.992,189.593 173.5,189.5C 172.326,187.766 170.66,186.766 168.5,186.5C 167.5,186.833 166.5,187.167 165.5,187.5C 167.369,188.624 169.369,189.457 171.5,190C 166.309,191.923 160.976,191.423 155.5,188.5C 154.269,189.651 154.269,190.817 155.5,192C 151.083,193.568 149.083,192.068 149.5,187.5C 138.189,186.449 126.855,186.283 115.5,187C 114.939,188.566 115.606,189.899 117.5,191C 116.446,192.388 116.28,193.888 117,195.5C 119.316,194.478 119.816,192.978 118.5,191C 118.833,190.833 119.167,190.667 119.5,190.5C 121.214,193.77 120.548,196.27 117.5,198C 119.045,199.822 119.712,201.989 119.5,204.5C 119.493,206.369 119.16,208.036 118.5,209.5C 116.164,201.488 113.831,193.488 111.5,185.5C 124.167,185.5 136.833,185.5 149.5,185.5C 173.769,107.07 222.435,49.237 295.5,12C 305.787,7.43344 316.287,3.60011 327,0.5C 415.915,33.6946 475.082,95.3613 504.5,185.5C 517.833,185.5 531.167,185.5 544.5,185.5C 540.441,198.236 536.775,211.07 533.5,224C 534.94,229.485 536.274,234.985 537.5,240.5 Z"></path></g>
<g><path style="opacity:1" fill="#f6fcfd" d="M 482.5,185.5 C 460.518,123.015 421.518,74.182 365.5,39C 353.14,32.0047 340.306,25.838 327,20.5C 308.567,27.2999 291.067,36.1333 274.5,47C 270.975,49.698 267.642,52.5314 264.5,55.5C 251.387,64.7599 239.22,75.4265 228,87.5C 207.958,109.594 191.958,134.261 180,161.5C 176.867,169.424 174.034,177.424 171.5,185.5C 168.833,185.5 166.167,185.5 163.5,185.5C 167.45,173.603 171.95,161.937 177,150.5C 208.904,85.2649 258.904,39.9316 327,14.5C 407.642,46.4108 462.142,103.411 490.5,185.5C 487.833,185.5 485.167,185.5 482.5,185.5 Z"></path></g>
<g><path style="opacity:1" fill="#79bbe6" d="M 327.5,53.5 C 326.199,54.9622 324.699,56.2956 323,57.5C 316.163,50.6245 308.663,49.7912 300.5,55C 296.172,60.2858 295.506,65.9525 298.5,72C 293.752,74.3137 291.085,78.1471 290.5,83.5C 292.528,92.1266 297.861,95.9599 306.5,95C 309.976,103.042 315.976,105.708 324.5,103C 327.857,101.488 329.857,98.9875 330.5,95.5C 334.524,96.4427 338.524,96.4427 342.5,95.5C 344.98,94.6927 346.313,93.026 346.5,90.5C 358.586,91.9647 365.92,86.798 368.5,75C 367.735,68.0318 364.069,62.8651 357.5,59.5C 360.864,58.7893 363.197,59.956 364.5,63C 368.965,65.7692 371.465,64.6025 372,59.5C 373.918,60.5418 375.751,61.7085 377.5,63C 377,63.5 376.5,64 376,64.5C 375.501,69.4889 375.334,74.4889 375.5,79.5C 373.143,79.3367 370.81,79.5034 368.5,80C 366.735,83.938 364.735,87.7714 362.5,91.5C 361.15,92.9501 359.484,93.6168 357.5,93.5C 357.5,94.5 357.5,95.5 357.5,96.5C 351.133,94.7362 347.133,97.0695 345.5,103.5C 340.786,103.173 336.12,103.507 331.5,104.5C 331.977,105.478 332.643,106.311 333.5,107C 336.908,107.98 340.242,109.147 343.5,110.5C 341.237,111.65 338.904,112.65 336.5,113.5C 336.742,116.594 336.242,119.594 335,122.5C 333.039,119.537 330.706,116.871 328,114.5C 327.691,115.766 327.191,116.933 326.5,118C 329.318,120.115 329.151,121.948 326,123.5C 323.338,117.572 319.671,116.906 315,121.5C 314.667,121.167 314.333,120.833 314,120.5C 312.872,122.345 312.372,124.345 312.5,126.5C 311.5,126.5 310.5,126.5 309.5,126.5C 309.833,129.5 308.5,130.833 305.5,130.5C 304.144,134.696 301.477,137.863 297.5,140C 296.5,140.667 295.5,140.667 294.5,140C 293.529,138.519 292.196,137.685 290.5,137.5C 288.717,134.9 286.717,132.566 284.5,130.5C 274.921,117.698 265.088,105.031 255,92.5C 245.735,106.029 237.235,120.029 229.5,134.5C 219.236,151.365 209.236,168.365 199.5,185.5C 190.167,185.5 180.833,185.5 171.5,185.5C 174.034,177.424 176.867,169.424 180,161.5C 191.958,134.261 207.958,109.594 228,87.5C 239.22,75.4265 251.387,64.7599 264.5,55.5C 272.137,52.3331 279.637,48.9998 287,45.5C 289.545,47.1858 292.378,48.1858 295.5,48.5C 295.5,47.5 295.5,46.5 295.5,45.5C 294.022,45.762 292.689,45.4287 291.5,44.5C 293.511,42.6588 295.678,40.9921 298,39.5C 299.7,41.6061 301.867,43.1061 304.5,44C 301.461,45.5771 300.128,48.0771 300.5,51.5C 306.13,50.4793 311.796,50.3127 317.5,51C 318.833,51.6667 319.833,52.6667 320.5,54C 322.847,54.3336 325.181,54.167 327.5,53.5 Z"></path></g>
<g><path style="opacity:1" fill="#1c98d3" d="M 327.5,53.5 C 334.964,51.9427 340.964,54.2761 345.5,60.5C 349.401,58.5188 353.401,58.1855 357.5,59.5C 364.069,62.8651 367.735,68.0318 368.5,75C 365.92,86.798 358.586,91.9647 346.5,90.5C 346.313,93.026 344.98,94.6927 342.5,95.5C 338.524,96.4427 334.524,96.4427 330.5,95.5C 329.857,98.9875 327.857,101.488 324.5,103C 315.976,105.708 309.976,103.042 306.5,95C 297.861,95.9599 292.528,92.1266 290.5,83.5C 291.085,78.1471 293.752,74.3137 298.5,72C 295.506,65.9525 296.172,60.2858 300.5,55C 308.663,49.7912 316.163,50.6245 323,57.5C 324.699,56.2956 326.199,54.9622 327.5,53.5 Z"></path></g>
<g><path style="opacity:1" fill="#7abbe5" d="M 482.5,185.5 C 474.5,185.5 466.5,185.5 458.5,185.5C 457.833,185.5 457.167,185.5 456.5,185.5C 455.876,183.246 454.543,181.579 452.5,180.5C 440.911,163.731 429.078,147.064 417,130.5C 416.184,129.177 415.017,128.511 413.5,128.5C 413.611,127.883 413.944,127.383 414.5,127C 406.893,116.97 399.393,106.804 392,96.5C 389.861,95.2309 387.695,95.2309 385.5,96.5C 379.405,106.366 373.072,116.033 366.5,125.5C 360.359,134.424 354.193,143.424 348,152.5C 344.619,148.625 341.453,144.625 338.5,140.5C 332.881,133.71 327.048,127.043 321,120.5C 315.009,125.325 309.509,130.658 304.5,136.5C 301.562,138.934 298.729,141.601 296,144.5C 293.983,142.316 292.15,139.982 290.5,137.5C 292.196,137.685 293.529,138.519 294.5,140C 295.5,140.667 296.5,140.667 297.5,140C 301.477,137.863 304.144,134.696 305.5,130.5C 308.5,130.833 309.833,129.5 309.5,126.5C 310.5,126.5 311.5,126.5 312.5,126.5C 312.372,124.345 312.872,122.345 314,120.5C 314.333,120.833 314.667,121.167 315,121.5C 319.671,116.906 323.338,117.572 326,123.5C 329.151,121.948 329.318,120.115 326.5,118C 327.191,116.933 327.691,115.766 328,114.5C 330.706,116.871 333.039,119.537 335,122.5C 336.242,119.594 336.742,116.594 336.5,113.5C 338.904,112.65 341.237,111.65 343.5,110.5C 340.242,109.147 336.908,107.98 333.5,107C 332.643,106.311 331.977,105.478 331.5,104.5C 336.12,103.507 340.786,103.173 345.5,103.5C 347.133,97.0695 351.133,94.7362 357.5,96.5C 357.5,95.5 357.5,94.5 357.5,93.5C 359.484,93.6168 361.15,92.9501 362.5,91.5C 364.735,87.7714 366.735,83.938 368.5,80C 370.81,79.5034 373.143,79.3367 375.5,79.5C 375.334,74.4889 375.501,69.4889 376,64.5C 376.5,64 377,63.5 377.5,63C 375.751,61.7085 373.918,60.5418 372,59.5C 371.465,64.6025 368.965,65.7692 364.5,63C 363.197,59.956 360.864,58.7893 357.5,59.5C 353.401,58.1855 349.401,58.5188 345.5,60.5C 340.964,54.2761 334.964,51.9427 327.5,53.5C 325.181,54.167 322.847,54.3336 320.5,54C 319.833,52.6667 318.833,51.6667 317.5,51C 311.796,50.3127 306.13,50.4793 300.5,51.5C 300.128,48.0771 301.461,45.5771 304.5,44C 301.867,43.1061 299.7,41.6061 298,39.5C 295.678,40.9921 293.511,42.6588 291.5,44.5C 292.689,45.4287 294.022,45.762 295.5,45.5C 295.5,46.5 295.5,47.5 295.5,48.5C 292.378,48.1858 289.545,47.1858 287,45.5C 279.637,48.9998 272.137,52.3331 264.5,55.5C 267.642,52.5314 270.975,49.698 274.5,47C 291.067,36.1333 308.567,27.2999 327,20.5C 340.306,25.838 353.14,32.0047 365.5,39C 421.518,74.182 460.518,123.015 482.5,185.5 Z"></path></g>
<g><path style="opacity:1" fill="#ced3d7" d="M 284.5,130.5 C 281.474,132.687 278.307,134.687 275,136.5C 270.164,134.202 265.164,132.202 260,130.5C 253.099,134.702 246.265,139.035 239.5,143.5C 236.121,140.449 232.788,137.449 229.5,134.5C 237.235,120.029 245.735,106.029 255,92.5C 265.088,105.031 274.921,117.698 284.5,130.5 Z"></path></g>
<g><path style="opacity:1" fill="#ced4d9" d="M 413.5,128.5 C 410.436,129.984 407.436,131.651 404.5,133.5C 399.322,130.078 394.322,126.411 389.5,122.5C 384.778,125.054 379.944,127.387 375,129.5C 372.054,128.275 369.22,126.942 366.5,125.5C 373.072,116.033 379.405,106.366 385.5,96.5C 387.695,95.2309 389.861,95.2309 392,96.5C 399.393,106.804 406.893,116.97 414.5,127C 413.944,127.383 413.611,127.883 413.5,128.5 Z"></path></g>
<g><path style="opacity:1" fill="#48497c" d="M 413.5,128.5 C 415.017,128.511 416.184,129.177 417,130.5C 429.078,147.064 440.911,163.731 452.5,180.5C 454.543,181.579 455.876,183.246 456.5,185.5C 370.833,185.5 285.167,185.5 199.5,185.5C 209.236,168.365 219.236,151.365 229.5,134.5C 232.788,137.449 236.121,140.449 239.5,143.5C 246.265,139.035 253.099,134.702 260,130.5C 265.164,132.202 270.164,134.202 275,136.5C 278.307,134.687 281.474,132.687 284.5,130.5C 286.717,132.566 288.717,134.9 290.5,137.5C 292.15,139.982 293.983,142.316 296,144.5C 298.729,141.601 301.562,138.934 304.5,136.5C 306.855,139.689 309.688,142.355 313,144.5C 315.589,143.303 318.256,142.303 321,141.5C 323.801,143.307 326.801,144.64 330,145.5C 332.715,143.616 335.548,141.949 338.5,140.5C 341.453,144.625 344.619,148.625 348,152.5C 354.193,143.424 360.359,134.424 366.5,125.5C 369.22,126.942 372.054,128.275 375,129.5C 379.944,127.387 384.778,125.054 389.5,122.5C 394.322,126.411 399.322,130.078 404.5,133.5C 407.436,131.651 410.436,129.984 413.5,128.5 Z"></path></g>
<g><path style="opacity:1" fill="#ced3d8" d="M 338.5,140.5 C 335.548,141.949 332.715,143.616 330,145.5C 326.801,144.64 323.801,143.307 321,141.5C 318.256,142.303 315.589,143.303 313,144.5C 309.688,142.355 306.855,139.689 304.5,136.5C 309.509,130.658 315.009,125.325 321,120.5C 327.048,127.043 332.881,133.71 338.5,140.5 Z"></path></g>
<g><path style="opacity:1" fill="#4b477f" d="M 452.5,180.5 C 452.33,181.822 452.663,182.989 453.5,184C 369.5,184.667 285.5,184.667 201.5,184C 203.764,183.764 205.931,183.264 208,182.5C 287.861,182.446 367.861,182.78 448,183.5C 448.908,181.561 450.408,180.561 452.5,180.5 Z"></path></g>
<g><path style="opacity:1" fill="#023d6c" d="M 450.5,203.5 C 446.014,201.864 441.68,202.197 437.5,204.5C 434.492,212.115 431.159,219.448 427.5,226.5C 426.127,226.343 424.793,226.51 423.5,227C 424.261,229.179 423.928,231.345 422.5,233.5C 420.766,231.766 419.432,229.766 418.5,227.5C 417.914,227.709 417.414,228.043 417,228.5C 416.667,224.833 416.333,221.167 416,217.5C 414.887,215.2 413.387,214.867 411.5,216.5C 409.181,215.936 406.847,215.436 404.5,215C 407.695,214.819 410.695,214.319 413.5,213.5C 414.88,213.038 415.547,212.038 415.5,210.5C 415.376,208.049 415.042,205.549 414.5,203C 403.72,202.887 393.053,203.054 382.5,203.5C 381.883,203.611 381.383,203.944 381,204.5C 380.5,218.496 380.333,232.496 380.5,246.5C 392.186,246.168 403.852,246.501 415.5,247.5C 410.208,248.495 404.875,248.828 399.5,248.5C 399.5,249.5 399.5,250.5 399.5,251.5C 406.588,251.452 413.588,250.952 420.5,250C 422.569,250.324 422.902,251.158 421.5,252.5C 418.783,252.999 416.449,254.165 414.5,256C 402.553,255.697 391.886,255.863 382.5,256.5C 381.833,256.167 381.167,255.833 380.5,255.5C 381.405,251.712 379.738,249.712 375.5,249.5C 375.321,247.046 375.987,244.879 377.5,243C 377.198,229.493 376.198,216.326 374.5,203.5C 370.936,202.577 367.269,202.244 363.5,202.5C 363.781,207.565 363.448,212.565 362.5,217.5C 357.544,218.494 352.544,218.827 347.5,218.5C 347.607,213.79 347.774,209.123 348,204.5C 344.27,203.54 340.437,203.207 336.5,203.5C 334.696,210.432 333.863,217.765 334,225.5C 333.308,226.025 332.808,226.692 332.5,227.5C 333.998,232.801 334.332,238.134 333.5,243.5C 332.182,240.302 331.349,236.968 331,233.5C 327.867,231.586 327.7,229.419 330.5,227C 328.065,221.603 325.065,221.603 321.5,227C 322.938,227.219 324.271,227.719 325.5,228.5C 326.641,229.425 326.641,230.259 325.5,231C 320.083,231.781 314.75,231.615 309.5,230.5C 309.5,222.167 309.5,213.833 309.5,205.5C 309.5,204.5 309.5,203.5 309.5,202.5C 305.26,201.725 301.093,200.392 297,198.5C 298.403,196.45 299.57,194.117 300.5,191.5C 297.245,191.014 294.578,192.014 292.5,194.5C 291.614,193.675 291.281,192.675 291.5,191.5C 290.167,191.5 288.833,191.5 287.5,191.5C 287.321,193.954 287.987,196.121 289.5,198C 288.968,200.02 287.635,200.853 285.5,200.5C 285.822,198.278 285.155,196.444 283.5,195C 286.115,191.686 285.115,190.686 280.5,192C 281.876,194.54 281.21,196.54 278.5,198C 275.881,197.917 273.214,197.75 270.5,197.5C 270.854,199.541 270.854,201.374 270.5,203C 272.744,205.349 273.911,204.849 274,201.5C 274.667,202.167 275.333,202.833 276,203.5C 276.5,215.495 276.667,227.495 276.5,239.5C 275.448,239.649 274.448,239.483 273.5,239C 270.46,235.74 267.794,232.24 265.5,228.5C 261.984,220.108 258.317,211.775 254.5,203.5C 250.167,202.167 245.833,202.167 241.5,203.5C 240.5,203.5 239.5,203.5 238.5,203.5C 238.501,207.206 236.835,209.539 233.5,210.5C 233.719,209.325 233.386,208.325 232.5,207.5C 232.167,208 231.833,208.5 231.5,209C 232.477,210.497 233.477,211.997 234.5,213.5C 231.875,218.976 231.208,218.809 232.5,213C 229.194,212.069 228.527,213.069 230.5,216C 230.612,217.662 229.946,218.829 228.5,219.5C 226.5,217.833 224.5,216.167 222.5,214.5C 221.091,217.397 221.424,220.063 223.5,222.5C 221.639,223.528 220.305,225.028 219.5,227C 218.255,227.791 216.922,228.291 215.5,228.5C 222.683,219.957 222.016,212.124 213.5,205C 211.26,204.023 208.927,203.523 206.5,203.5C 206.5,203.167 206.5,202.833 206.5,202.5C 202.229,201.786 197.229,201.12 191.5,200.5C 191.977,199.522 192.643,198.689 193.5,198C 191.134,197.438 188.801,197.604 186.5,198.5C 183.601,197.509 180.935,196.842 178.5,196.5C 177.833,197.167 177.167,197.833 176.5,198.5C 170.332,198.148 164.332,197.148 158.5,195.5C 157.205,196.098 155.872,196.598 154.5,197C 157.167,197.667 157.167,198.333 154.5,199C 150.833,200 147.167,201 143.5,202C 145.058,202.21 146.391,202.71 147.5,203.5C 145.5,203.5 143.5,203.5 141.5,203.5C 141.5,206.5 141.5,209.5 141.5,212.5C 145.5,212.5 149.5,212.5 153.5,212.5C 154.396,223.198 154.563,233.865 154,244.5C 157.73,245.46 161.563,245.793 165.5,245.5C 165.5,244.5 165.5,243.5 165.5,242.5C 166.33,233.342 166.83,224.009 167,214.5C 171.281,218.339 175.447,218.339 179.5,214.5C 180.723,211.003 180.723,207.503 179.5,204C 179.63,202.941 180.13,202.108 181,201.5C 182.145,206.664 182.645,211.998 182.5,217.5C 182.167,222.5 181.833,227.5 181.5,232.5C 180.075,237.73 178.909,237.73 178,232.5C 177.282,231.549 176.449,231.383 175.5,232C 177.121,234.166 177.955,236.666 178,239.5C 178.333,238.833 178.667,238.167 179,237.5C 179.147,240.571 179.98,243.404 181.5,246C 181.167,246.333 180.833,246.667 180.5,247C 182.246,247.471 183.913,248.138 185.5,249C 182.11,249.932 179.11,251.432 176.5,253.5C 176.657,252.127 176.49,250.793 176,249.5C 175.764,251.764 175.264,253.931 174.5,256C 169.833,256.667 165.167,256.667 160.5,256C 159.167,255.333 159.167,254.667 160.5,254C 163.377,252.873 166.377,252.206 169.5,252C 170.888,251.111 170.722,250.611 169,250.5C 164.539,251.247 160.039,251.747 155.5,252C 154.365,255.207 152.365,256.541 149.5,256C 150.051,257.398 150.384,258.732 150.5,260C 148.444,260.311 146.444,260.811 144.5,261.5C 142.191,260.025 140.024,258.358 138,256.5C 134.606,257.456 131.106,257.789 127.5,257.5C 128.322,249.072 127.488,240.739 125,232.5C 124.667,232.833 124.333,233.167 124,233.5C 123.626,231.509 122.793,229.842 121.5,228.5C 122.555,225.927 122.722,223.261 122,220.5C 120.391,216.939 119.225,213.272 118.5,209.5C 119.16,208.036 119.493,206.369 119.5,204.5C 119.712,201.989 119.045,199.822 117.5,198C 120.548,196.27 121.214,193.77 119.5,190.5C 119.167,190.667 118.833,190.833 118.5,191C 119.816,192.978 119.316,194.478 117,195.5C 116.28,193.888 116.446,192.388 117.5,191C 115.606,189.899 114.939,188.566 115.5,187C 126.855,186.283 138.189,186.449 149.5,187.5C 149.083,192.068 151.083,193.568 155.5,192C 154.269,190.817 154.269,189.651 155.5,188.5C 160.976,191.423 166.309,191.923 171.5,190C 169.369,189.457 167.369,188.624 165.5,187.5C 166.5,187.167 167.5,186.833 168.5,186.5C 170.66,186.766 172.326,187.766 173.5,189.5C 181.992,189.593 190.659,189.426 199.5,189C 198.304,188.346 198.304,187.846 199.5,187.5C 202.109,188.23 204.776,188.73 207.5,189C 289.833,189.333 372.167,189.667 454.5,190C 453.179,191.545 453.512,192.711 455.5,193.5C 458.6,191.467 459.6,188.8 458.5,185.5C 466.5,185.5 474.5,185.5 482.5,185.5C 483.492,187.026 484.992,187.693 487,187.5C 490.26,186.378 493.593,185.378 497,184.5C 498.667,186.5 500.333,188.5 502,190.5C 501.923,189.262 502.089,188.262 502.5,187.5C 503.167,187.833 503.833,188.167 504.5,188.5C 506.776,187.787 509.109,187.287 511.5,187C 521.828,186.5 532.161,186.334 542.5,186.5C 542.5,187.5 542.5,188.5 542.5,189.5C 534.949,188.763 527.449,188.43 520,188.5C 514.552,189.146 509.052,189.812 503.5,190.5C 505.982,191.574 508.316,192.908 510.5,194.5C 509.738,194.911 508.738,195.077 507.5,195C 507.784,196.956 507.784,199.123 507.5,201.5C 503.116,201.826 498.783,201.492 494.5,200.5C 495.714,198.931 497.381,198.098 499.5,198C 498.833,197.667 498.167,197.333 497.5,197C 499.992,195.751 499.825,194.584 497,193.5C 489.4,193.054 481.734,193.721 474,195.5C 473.326,194.422 472.326,193.755 471,193.5C 468.746,194.239 466.579,195.239 464.5,196.5C 465.912,197.806 467.579,198.64 469.5,199C 468.833,199.333 468.167,199.667 467.5,200C 469.101,200.273 470.601,200.773 472,201.5C 471.513,203.044 471.013,204.71 470.5,206.5C 468.876,206.64 467.71,205.973 467,204.5C 466.667,205.167 466.333,205.833 466,206.5C 464.915,205.707 463.748,205.04 462.5,204.5C 460.059,206.528 459.892,208.862 462,211.5C 462.667,210.833 463.333,210.167 464,209.5C 464.667,212.5 464.667,215.5 464,218.5C 463.92,216.752 463.087,215.085 461.5,213.5C 460.281,214.263 459.281,215.263 458.5,216.5C 457.756,215.009 457.09,213.509 456.5,212C 457.687,210.981 458.687,209.814 459.5,208.5C 456.466,206.777 453.466,205.11 450.5,203.5 Z"></path></g>
<g><path style="opacity:1" fill="#f4f8f9" d="M 165.5,242.5 C 165.5,243.5 165.5,244.5 165.5,245.5C 161.563,245.793 157.73,245.46 154,244.5C 154.563,233.865 154.396,223.198 153.5,212.5C 149.5,212.5 145.5,212.5 141.5,212.5C 141.5,209.5 141.5,206.5 141.5,203.5C 143.5,203.5 145.5,203.5 147.5,203.5C 157.052,202.815 166.719,202.648 176.5,203C 178.344,205.804 179.011,208.97 178.5,212.5C 174.135,212.731 169.969,213.064 166,213.5C 165.5,223.161 165.334,232.828 165.5,242.5 Z"></path></g>
<g><path style="opacity:1" fill="#bed2de" d="M 309.5,202.5 C 309.5,203.5 309.5,204.5 309.5,205.5C 305.936,204.577 302.269,204.244 298.5,204.5C 298.5,208.833 298.5,213.167 298.5,217.5C 297.352,213.019 297.185,208.352 298,203.5C 301.793,203.473 305.626,203.14 309.5,202.5 Z"></path></g>
<g><path style="opacity:1" fill="#f4f8fa" d="M 413.5,213.5 C 407.131,213.653 400.797,213.32 394.5,212.5C 394.5,214.5 394.5,216.5 394.5,218.5C 400.842,218.334 407.175,218.5 413.5,219C 414.451,222.057 414.784,225.223 414.5,228.5C 407.833,228.5 401.167,228.5 394.5,228.5C 394.5,230.5 394.5,232.5 394.5,234.5C 401.508,234.334 408.508,234.5 415.5,235C 416.799,238.135 416.799,241.301 415.5,244.5C 404.52,245.499 393.52,245.832 382.5,245.5C 382.5,231.5 382.5,217.5 382.5,203.5C 393.053,203.054 403.72,202.887 414.5,203C 415.042,205.549 415.376,208.049 415.5,210.5C 415.547,212.038 414.88,213.038 413.5,213.5 Z"></path></g>
<g><path style="opacity:1" fill="#f7fbfb" d="M 476.5,202.5 C 484.181,202.723 491.847,203.223 499.5,204C 503.321,205.161 506.821,206.994 510,209.5C 517.097,221.652 515.597,232.486 505.5,242C 495.535,245.506 485.369,246.339 475,244.5C 474.833,237.667 474.667,230.833 474.5,224C 474.536,216.598 475.203,209.431 476.5,202.5 Z"></path></g>
<g><path style="opacity:1" fill="#f6f9fa" d="M 374.5,203.5 C 374.667,217.171 374.5,230.837 374,244.5C 370.606,245.456 367.106,245.789 363.5,245.5C 362.708,239.87 362.375,234.203 362.5,228.5C 359.833,228.5 357.167,228.5 354.5,228.5C 352.208,228.244 350.041,228.577 348,229.5C 347.888,234.76 347.721,239.927 347.5,245C 343.848,245.499 340.182,245.665 336.5,245.5C 336.5,231.5 336.5,217.5 336.5,203.5C 340.437,203.207 344.27,203.54 348,204.5C 347.774,209.123 347.607,213.79 347.5,218.5C 352.544,218.827 357.544,218.494 362.5,217.5C 363.448,212.565 363.781,207.565 363.5,202.5C 367.269,202.244 370.936,202.577 374.5,203.5 Z"></path></g>
<g><path style="opacity:1" fill="#f7fbfb" d="M 450.5,203.5 C 456.48,216.797 462.48,230.13 468.5,243.5C 467.995,244.919 466.995,245.585 465.5,245.5C 462.482,245.665 459.482,245.498 456.5,245C 455.944,242.763 454.944,240.763 453.5,239C 447.569,237.529 441.569,237.196 435.5,238C 434.009,240.097 433.009,242.43 432.5,245C 428.514,245.499 424.514,245.666 420.5,245.5C 422.027,238.796 424.36,232.463 427.5,226.5C 431.159,219.448 434.492,212.115 437.5,204.5C 441.68,202.197 446.014,201.864 450.5,203.5 Z"></path></g>
<g><path style="opacity:1" fill="#082a49" d="M 500.5,229.5 C 502.774,218.453 498.441,213.453 487.5,214.5C 487.5,220.833 487.5,227.167 487.5,233.5C 490.167,233.5 492.833,233.5 495.5,233.5C 492.713,234.477 489.713,234.81 486.5,234.5C 486.187,227.245 486.52,220.079 487.5,213C 499.879,212.21 504.213,217.71 500.5,229.5 Z"></path></g>
<g><path style="opacity:1" fill="#033d6b" d="M 500.5,229.5 C 499.735,231.929 498.069,233.262 495.5,233.5C 492.833,233.5 490.167,233.5 487.5,233.5C 487.5,227.167 487.5,220.833 487.5,214.5C 498.441,213.453 502.774,218.453 500.5,229.5 Z"></path></g>
<g><path style="opacity:1" fill="#0d345d" d="M 442.5,217.5 C 443.822,217.33 444.989,217.663 446,218.5C 446.269,221.352 447.103,224.018 448.5,226.5C 448.192,227.308 447.692,227.975 447,228.5C 444.527,227.88 442.027,227.214 439.5,226.5C 441.105,223.686 442.105,220.686 442.5,217.5 Z"></path></g>
<g><path style="opacity:1" fill="#043d69" d="M 309.5,202.5 C 305.626,203.14 301.793,203.473 298,203.5C 297.185,208.352 297.352,213.019 298.5,217.5C 298.063,226.884 298.063,236.05 298.5,245C 308.833,245.667 319.167,245.667 329.5,245C 330.266,241.582 330.266,238.082 329.5,234.5C 322.833,234.5 316.167,234.5 309.5,234.5C 309.5,233.167 309.5,231.833 309.5,230.5C 314.75,231.615 320.083,231.781 325.5,231C 326.641,230.259 326.641,229.425 325.5,228.5C 324.271,227.719 322.938,227.219 321.5,227C 325.065,221.603 328.065,221.603 330.5,227C 327.7,229.419 327.867,231.586 331,233.5C 331.349,236.968 332.182,240.302 333.5,243.5C 334.332,238.134 333.998,232.801 332.5,227.5C 332.808,226.692 333.308,226.025 334,225.5C 333.863,217.765 334.696,210.432 336.5,203.5C 336.5,217.5 336.5,231.5 336.5,245.5C 340.182,245.665 343.848,245.499 347.5,245C 347.721,239.927 347.888,234.76 348,229.5C 350.041,228.577 352.208,228.244 354.5,228.5C 355.263,229.268 356.263,229.768 357.5,230C 356.833,231 356.167,232 355.5,233C 357.333,234.167 359.167,235.333 361,236.5C 361.039,240.581 361.872,244.415 363.5,248C 360.96,249.813 359.96,252.313 360.5,255.5C 362.677,255.414 364.677,254.747 366.5,253.5C 369.105,254.036 371.772,254.202 374.5,254C 374.957,254.414 375.291,254.914 375.5,255.5C 367.855,256.665 360.188,256.831 352.5,256C 353.973,255.29 354.64,254.124 354.5,252.5C 350.5,251.833 348.833,253.5 349.5,257.5C 374.224,258.805 399.057,259.472 424,259.5C 448.208,259.495 472.375,259.162 496.5,258.5C 498.904,259.008 499.571,260.175 498.5,262C 499.737,262.232 500.737,262.732 501.5,263.5C 449.167,263.5 396.833,263.5 344.5,263.5C 340.167,263.5 335.833,263.5 331.5,263.5C 272.5,263.5 213.5,263.5 154.5,263.5C 151.833,263.5 149.167,263.5 146.5,263.5C 146.825,271.019 146.492,278.352 145.5,285.5C 144.501,296.752 144.168,308.752 144.5,321.5C 140.821,321.724 137.154,322.058 133.5,322.5C 133.829,308.99 133.496,295.656 132.5,282.5C 133.19,276.19 133.524,269.857 133.5,263.5C 126.167,263.5 118.833,263.5 111.5,263.5C 115.124,251.918 118.457,240.251 121.5,228.5C 122.793,229.842 123.626,231.509 124,233.5C 124.333,233.167 124.667,232.833 125,232.5C 127.488,240.739 128.322,249.072 127.5,257.5C 131.106,257.789 134.606,257.456 138,256.5C 140.024,258.358 142.191,260.025 144.5,261.5C 146.444,260.811 148.444,260.311 150.5,260C 150.384,258.732 150.051,257.398 149.5,256C 152.365,256.541 154.365,255.207 155.5,252C 160.039,251.747 164.539,251.247 169,250.5C 170.722,250.611 170.888,251.111 169.5,252C 166.377,252.206 163.377,252.873 160.5,254C 159.167,254.667 159.167,255.333 160.5,256C 165.167,256.667 169.833,256.667 174.5,256C 175.264,253.931 175.764,251.764 176,249.5C 176.49,250.793 176.657,252.127 176.5,253.5C 179.11,251.432 182.11,249.932 185.5,249C 183.913,248.138 182.246,247.471 180.5,247C 180.833,246.667 181.167,246.333 181.5,246C 179.98,243.404 179.147,240.571 179,237.5C 178.667,238.167 178.333,238.833 178,239.5C 177.955,236.666 177.121,234.166 175.5,232C 176.449,231.383 177.282,231.549 178,232.5C 178.909,237.73 180.075,237.73 181.5,232.5C 181.833,227.5 182.167,222.5 182.5,217.5C 182.645,211.998 182.145,206.664 181,201.5C 180.13,202.108 179.63,202.941 179.5,204C 180.723,207.503 180.723,211.003 179.5,214.5C 175.447,218.339 171.281,218.339 167,214.5C 166.83,224.009 166.33,233.342 165.5,242.5C 165.334,232.828 165.5,223.161 166,213.5C 169.969,213.064 174.135,212.731 178.5,212.5C 179.011,208.97 178.344,205.804 176.5,203C 166.719,202.648 157.052,202.815 147.5,203.5C 146.391,202.71 145.058,202.21 143.5,202C 147.167,201 150.833,200 154.5,199C 157.167,198.333 157.167,197.667 154.5,197C 155.872,196.598 157.205,196.098 158.5,195.5C 164.332,197.148 170.332,198.148 176.5,198.5C 177.167,197.833 177.833,197.167 178.5,196.5C 180.935,196.842 183.601,197.509 186.5,198.5C 188.801,197.604 191.134,197.438 193.5,198C 192.643,198.689 191.977,199.522 191.5,200.5C 197.229,201.12 202.229,201.786 206.5,202.5C 199.167,202.5 191.833,202.5 184.5,202.5C 183.812,213.338 183.812,224.005 184.5,234.5C 183.624,237.799 183.457,241.132 184,244.5C 187.73,245.46 191.563,245.793 195.5,245.5C 195.5,240.833 195.5,236.167 195.5,231.5C 197.288,231.215 198.955,231.548 200.5,232.5C 203.306,236.806 206.306,240.973 209.5,245C 213.821,245.499 218.154,245.666 222.5,245.5C 219.355,239.898 215.688,234.565 211.5,229.5C 212.689,228.571 214.022,228.238 215.5,228.5C 216.922,228.291 218.255,227.791 219.5,227C 220.305,225.028 221.639,223.528 223.5,222.5C 221.424,220.063 221.091,217.397 222.5,214.5C 224.5,216.167 226.5,217.833 228.5,219.5C 229.946,218.829 230.612,217.662 230.5,216C 228.527,213.069 229.194,212.069 232.5,213C 231.208,218.809 231.875,218.976 234.5,213.5C 233.477,211.997 232.477,210.497 231.5,209C 231.833,208.5 232.167,208 232.5,207.5C 233.386,208.325 233.719,209.325 233.5,210.5C 236.835,209.539 238.501,207.206 238.5,203.5C 239.5,203.5 240.5,203.5 241.5,203.5C 235.938,217.052 229.938,230.386 223.5,243.5C 223.709,244.086 224.043,244.586 224.5,245C 228.167,245.667 231.833,245.667 235.5,245C 236.399,242.808 237.399,240.642 238.5,238.5C 244.828,237.404 251.161,237.404 257.5,238.5C 257.586,240.677 258.253,242.677 259.5,244.5C 263.445,245.491 267.445,245.824 271.5,245.5C 271.66,243.801 271.494,242.134 271,240.5C 268.868,236.59 267.035,232.59 265.5,228.5C 267.794,232.24 270.46,235.74 273.5,239C 274.448,239.483 275.448,239.649 276.5,239.5C 276.667,227.495 276.5,215.495 276,203.5C 275.333,202.833 274.667,202.167 274,201.5C 273.911,204.849 272.744,205.349 270.5,203C 270.854,201.374 270.854,199.541 270.5,197.5C 273.214,197.75 275.881,197.917 278.5,198C 281.21,196.54 281.876,194.54 280.5,192C 285.115,190.686 286.115,191.686 283.5,195C 285.155,196.444 285.822,198.278 285.5,200.5C 287.635,200.853 288.968,200.02 289.5,198C 287.987,196.121 287.321,193.954 287.5,191.5C 288.833,191.5 290.167,191.5 291.5,191.5C 291.281,192.675 291.614,193.675 292.5,194.5C 294.578,192.014 297.245,191.014 300.5,191.5C 299.57,194.117 298.403,196.45 297,198.5C 301.093,200.392 305.26,201.725 309.5,202.5 Z"></path></g>
<g><path style="opacity:1" fill="#f6fafb" d="M 309.5,205.5 C 309.5,213.833 309.5,222.167 309.5,230.5C 309.5,231.833 309.5,233.167 309.5,234.5C 316.167,234.5 322.833,234.5 329.5,234.5C 330.266,238.082 330.266,241.582 329.5,245C 319.167,245.667 308.833,245.667 298.5,245C 298.063,236.05 298.063,226.884 298.5,217.5C 298.5,213.167 298.5,208.833 298.5,204.5C 302.269,204.244 305.936,204.577 309.5,205.5 Z"></path></g>
<g><path style="opacity:1" fill="#d4e2ec" d="M 206.5,202.5 C 206.5,202.833 206.5,203.167 206.5,203.5C 199.587,204.014 192.587,204.014 185.5,203.5C 185.19,209.758 185.524,215.924 186.5,222C 184.688,225.922 184.021,230.089 184.5,234.5C 183.812,224.005 183.812,213.338 184.5,202.5C 191.833,202.5 199.167,202.5 206.5,202.5 Z"></path></g>
<g><path style="opacity:1" fill="#f7fbfb" d="M 265.5,228.5 C 267.035,232.59 268.868,236.59 271,240.5C 271.494,242.134 271.66,243.801 271.5,245.5C 267.445,245.824 263.445,245.491 259.5,244.5C 258.253,242.677 257.586,240.677 257.5,238.5C 251.161,237.404 244.828,237.404 238.5,238.5C 237.399,240.642 236.399,242.808 235.5,245C 231.833,245.667 228.167,245.667 224.5,245C 224.043,244.586 223.709,244.086 223.5,243.5C 229.938,230.386 235.938,217.052 241.5,203.5C 245.833,202.167 250.167,202.167 254.5,203.5C 258.317,211.775 261.984,220.108 265.5,228.5 Z"></path></g>
<g><path style="opacity:1" fill="#0f345c" d="M 246.5,216.5 C 247.496,216.414 248.329,216.748 249,217.5C 249.975,220.76 251.142,223.927 252.5,227C 251.975,227.692 251.308,228.192 250.5,228.5C 248.253,227.626 245.92,227.292 243.5,227.5C 244.301,223.765 245.301,220.099 246.5,216.5 Z"></path></g>
<g><path style="opacity:1" fill="#f1f6f8" d="M 278.5,202.5 C 282.673,201.956 286.506,202.623 290,204.5C 290.815,217.879 290.648,231.212 289.5,244.5C 285.62,245.795 281.786,245.795 278,244.5C 277.186,230.425 277.352,216.425 278.5,202.5 Z"></path></g>
<g><path style="opacity:1" fill="#f9fcfc" d="M 206.5,203.5 C 208.927,203.523 211.26,204.023 213.5,205C 222.016,212.124 222.683,219.957 215.5,228.5C 214.022,228.238 212.689,228.571 211.5,229.5C 215.688,234.565 219.355,239.898 222.5,245.5C 218.154,245.666 213.821,245.499 209.5,245C 206.306,240.973 203.306,236.806 200.5,232.5C 198.955,231.548 197.288,231.215 195.5,231.5C 195.5,236.167 195.5,240.833 195.5,245.5C 191.563,245.793 187.73,245.46 184,244.5C 183.457,241.132 183.624,237.799 184.5,234.5C 184.021,230.089 184.688,225.922 186.5,222C 185.524,215.924 185.19,209.758 185.5,203.5C 192.587,204.014 199.587,204.014 206.5,203.5 Z"></path></g>
<g><path style="opacity:1" fill="#073865" d="M 195.5,212.5 C 199.182,212.335 202.848,212.501 206.5,213C 209.47,216.444 209.137,219.444 205.5,222C 202.5,222.667 199.5,222.667 196.5,222C 195.549,218.943 195.216,215.777 195.5,212.5 Z"></path></g>
<g><path style="opacity:1" fill="#fafdfb" d="M 154.5,263.5 C 154.5,266.167 154.5,268.833 154.5,271.5C 152.731,287.058 152.064,302.725 152.5,318.5C 159.997,321.671 167.664,324.671 175.5,327.5C 199.194,337.659 223.86,345.325 249.5,350.5C 258.392,352.712 267.558,354.046 277,354.5C 293.035,353.699 304.368,346.033 311,331.5C 311.808,327.973 311.641,324.64 310.5,321.5C 309.475,316.629 307.308,312.295 304,308.5C 298.306,303.473 292.973,298.14 288,292.5C 287.421,290.351 286.921,288.185 286.5,286C 287.056,282.691 288.39,279.857 290.5,277.5C 303.445,273.225 316.778,271.392 330.5,272C 336.565,270.015 336.899,267.515 331.5,264.5C 331.5,264.167 331.5,263.833 331.5,263.5C 335.833,263.5 340.167,263.5 344.5,263.5C 345.604,265.389 346.937,267.055 348.5,268.5C 350.6,273.476 349.267,277.309 344.5,280C 335.062,284.42 325.062,286.753 314.5,287C 310.072,288.299 309.405,290.633 312.5,294C 328.076,297.402 341.243,304.902 352,316.5C 360.952,329.105 362.786,342.605 357.5,357C 364.49,357.001 371.49,356.668 378.5,356C 410.798,351.677 442.131,343.677 472.5,332C 482.591,326.955 492.925,322.455 503.5,318.5C 503.707,300.461 503.04,282.461 501.5,264.5C 501.5,264.167 501.5,263.833 501.5,263.5C 503.833,263.5 506.167,263.5 508.5,263.5C 510.349,283.172 510.682,302.839 509.5,322.5C 433.478,360.527 353.145,373.36 268.5,361C 225.499,354.556 184.666,341.723 146,322.5C 145.5,310.171 145.333,297.838 145.5,285.5C 146.492,278.352 146.825,271.019 146.5,263.5C 149.167,263.5 151.833,263.5 154.5,263.5 Z"></path></g>
<g><path style="opacity:1" fill="#669771" d="M 344.5,263.5 C 396.833,263.5 449.167,263.5 501.5,263.5C 501.5,263.833 501.5,264.167 501.5,264.5C 450.166,264.333 398.832,264.5 347.5,265C 348.337,266.011 348.67,267.178 348.5,268.5C 346.937,267.055 345.604,265.389 344.5,263.5 Z"></path></g>
<g><path style="opacity:1" fill="#669771" d="M 154.5,263.5 C 213.5,263.5 272.5,263.5 331.5,263.5C 331.5,263.833 331.5,264.167 331.5,264.5C 272.833,264.5 214.167,264.5 155.5,264.5C 155.802,267.059 155.468,269.393 154.5,271.5C 154.5,268.833 154.5,266.167 154.5,263.5 Z"></path></g>
<g><path style="opacity:1" fill="#699b57" d="M 331.5,264.5 C 336.899,267.515 336.565,270.015 330.5,272C 316.778,271.392 303.445,273.225 290.5,277.5C 287.53,277.746 286.197,279.412 286.5,282.5C 285.167,282.5 283.833,282.5 282.5,282.5C 282.579,283.93 282.246,285.264 281.5,286.5C 282.914,287.624 284.414,288.624 286,289.5C 286.133,292.525 287.133,295.192 289,297.5C 297.587,304.342 304.754,312.342 310.5,321.5C 311.641,324.64 311.808,327.973 311,331.5C 304.368,346.033 293.035,353.699 277,354.5C 267.558,354.046 258.392,352.712 249.5,350.5C 248.547,348.39 246.881,347.223 244.5,347C 237.833,345.667 231.167,344.333 224.5,343C 224.167,342.667 223.833,342.333 223.5,342C 225.847,341.288 227.847,340.121 229.5,338.5C 226.833,337.167 224.167,335.833 221.5,334.5C 220.692,334.808 220.025,335.308 219.5,336C 221.002,336.583 222.335,337.416 223.5,338.5C 222.975,339.192 222.308,339.692 221.5,340C 216.707,340.651 212.04,340.151 207.5,338.5C 207.719,337.325 207.386,336.325 206.5,335.5C 205.228,336.046 203.894,336.379 202.5,336.5C 200.223,335.522 197.89,334.855 195.5,334.5C 195.5,333.5 195.5,332.5 195.5,331.5C 188.88,330.264 182.213,328.931 175.5,327.5C 167.664,324.671 159.997,321.671 152.5,318.5C 152.064,302.725 152.731,287.058 154.5,271.5C 155.468,269.393 155.802,267.059 155.5,264.5C 214.167,264.5 272.833,264.5 331.5,264.5 Z"></path></g>
<g><path style="opacity:1" fill="#699b57" d="M 501.5,264.5 C 503.04,282.461 503.707,300.461 503.5,318.5C 492.925,322.455 482.591,326.955 472.5,332C 442.131,343.677 410.798,351.677 378.5,356C 371.49,356.668 364.49,357.001 357.5,357C 362.786,342.605 360.952,329.105 352,316.5C 341.243,304.902 328.076,297.402 312.5,294C 309.405,290.633 310.072,288.299 314.5,287C 325.062,286.753 335.062,284.42 344.5,280C 349.267,277.309 350.6,273.476 348.5,268.5C 348.67,267.178 348.337,266.011 347.5,265C 398.832,264.5 450.166,264.333 501.5,264.5 Z"></path></g>
<g><path style="opacity:1" fill="#6a945d" d="M 290.5,277.5 C 288.39,279.857 287.056,282.691 286.5,286C 286.921,288.185 287.421,290.351 288,292.5C 292.973,298.14 298.306,303.473 304,308.5C 307.308,312.295 309.475,316.629 310.5,321.5C 304.754,312.342 297.587,304.342 289,297.5C 287.133,295.192 286.133,292.525 286,289.5C 284.414,288.624 282.914,287.624 281.5,286.5C 282.246,285.264 282.579,283.93 282.5,282.5C 283.833,282.5 285.167,282.5 286.5,282.5C 286.197,279.412 287.53,277.746 290.5,277.5 Z"></path></g>
<g><path style="opacity:1" fill="#053c69" d="M 374.5,203.5 C 376.198,216.326 377.198,229.493 377.5,243C 375.987,244.879 375.321,247.046 375.5,249.5C 379.738,249.712 381.405,251.712 380.5,255.5C 381.167,255.833 381.833,256.167 382.5,256.5C 391.886,255.863 402.553,255.697 414.5,256C 416.449,254.165 418.783,252.999 421.5,252.5C 422.902,251.158 422.569,250.324 420.5,250C 413.588,250.952 406.588,251.452 399.5,251.5C 399.5,250.5 399.5,249.5 399.5,248.5C 404.875,248.828 410.208,248.495 415.5,247.5C 403.852,246.501 392.186,246.168 380.5,246.5C 380.333,232.496 380.5,218.496 381,204.5C 381.383,203.944 381.883,203.611 382.5,203.5C 382.5,217.5 382.5,231.5 382.5,245.5C 393.52,245.832 404.52,245.499 415.5,244.5C 416.799,241.301 416.799,238.135 415.5,235C 408.508,234.5 401.508,234.334 394.5,234.5C 394.5,232.5 394.5,230.5 394.5,228.5C 401.167,228.5 407.833,228.5 414.5,228.5C 414.784,225.223 414.451,222.057 413.5,219C 407.175,218.5 400.842,218.334 394.5,218.5C 394.5,216.5 394.5,214.5 394.5,212.5C 400.797,213.32 407.131,213.653 413.5,213.5C 410.695,214.319 407.695,214.819 404.5,215C 406.847,215.436 409.181,215.936 411.5,216.5C 413.387,214.867 414.887,215.2 416,217.5C 416.333,221.167 416.667,224.833 417,228.5C 417.414,228.043 417.914,227.709 418.5,227.5C 419.432,229.766 420.766,231.766 422.5,233.5C 423.928,231.345 424.261,229.179 423.5,227C 424.793,226.51 426.127,226.343 427.5,226.5C 424.36,232.463 422.027,238.796 420.5,245.5C 424.514,245.666 428.514,245.499 432.5,245C 433.009,242.43 434.009,240.097 435.5,238C 441.569,237.196 447.569,237.529 453.5,239C 454.944,240.763 455.944,242.763 456.5,245C 459.482,245.498 462.482,245.665 465.5,245.5C 459.008,247.998 453.841,246.331 450,240.5C 448.477,242.569 447.643,244.903 447.5,247.5C 452.74,248.413 452.74,249.413 447.5,250.5C 458.167,251.167 468.833,251.833 479.5,252.5C 477.518,253.216 475.851,254.383 474.5,256C 483.522,256.525 492.522,256.858 501.5,257C 500.663,255.989 500.33,254.822 500.5,253.5C 502.857,253.337 505.19,253.503 507.5,254C 503.534,255.721 503.534,257.388 507.5,259C 505.382,259.26 503.716,260.26 502.5,262C 506.876,262.97 510.876,262.137 514.5,259.5C 516.441,259.804 518.107,260.637 519.5,262C 527.167,262.667 534.833,262.667 542.5,262C 539.213,261.999 537.047,260.499 536,257.5C 535.667,257.833 535.333,258.167 535,258.5C 534.517,257.552 534.351,256.552 534.5,255.5C 536.665,255.884 538.332,255.217 539.5,253.5C 536.947,251.643 534.447,250.31 532,249.5C 531.5,250.667 530.667,251.5 529.5,252C 530.136,254.394 530.136,256.894 529.5,259.5C 522.536,258.087 515.536,257.42 508.5,257.5C 513.577,254.063 518.411,253.73 523,256.5C 523.71,255.027 524.876,254.36 526.5,254.5C 526.5,253.167 526.5,251.833 526.5,250.5C 527.5,250.5 528.5,250.5 529.5,250.5C 529.198,245.348 530.865,241.014 534.5,237.5C 535.896,239.972 536.73,242.638 537,245.5C 537.494,243.866 537.66,242.199 537.5,240.5C 540.2,247.95 542.533,255.617 544.5,263.5C 536.826,263.334 529.159,263.5 521.5,264C 522.933,278.071 523.6,292.238 523.5,306.5C 523.493,315.075 523.16,323.575 522.5,332C 424.766,381.287 322.766,391.954 216.5,364C 197.44,358.647 178.773,352.314 160.5,345C 151.076,340.557 141.909,335.723 133,330.5C 131.262,314.511 131.096,298.511 132.5,282.5C 133.496,295.656 133.829,308.99 133.5,322.5C 137.154,322.058 140.821,321.724 144.5,321.5C 144.168,308.752 144.501,296.752 145.5,285.5C 145.333,297.838 145.5,310.171 146,322.5C 184.666,341.723 225.499,354.556 268.5,361C 353.145,373.36 433.478,360.527 509.5,322.5C 510.682,302.839 510.349,283.172 508.5,263.5C 506.167,263.5 503.833,263.5 501.5,263.5C 500.737,262.732 499.737,262.232 498.5,262C 499.571,260.175 498.904,259.008 496.5,258.5C 472.375,259.162 448.208,259.495 424,259.5C 399.057,259.472 374.224,258.805 349.5,257.5C 348.833,253.5 350.5,251.833 354.5,252.5C 354.64,254.124 353.973,255.29 352.5,256C 360.188,256.831 367.855,256.665 375.5,255.5C 375.291,254.914 374.957,254.414 374.5,254C 371.772,254.202 369.105,254.036 366.5,253.5C 364.677,254.747 362.677,255.414 360.5,255.5C 359.96,252.313 360.96,249.813 363.5,248C 361.872,244.415 361.039,240.581 361,236.5C 359.167,235.333 357.333,234.167 355.5,233C 356.167,232 356.833,231 357.5,230C 356.263,229.768 355.263,229.268 354.5,228.5C 357.167,228.5 359.833,228.5 362.5,228.5C 362.375,234.203 362.708,239.87 363.5,245.5C 367.106,245.789 370.606,245.456 374,244.5C 374.5,230.837 374.667,217.171 374.5,203.5 Z"></path></g>
<g><path style="opacity:1" fill="#6b975c" d="M 175.5,327.5 C 182.213,328.931 188.88,330.264 195.5,331.5C 195.5,332.5 195.5,333.5 195.5,334.5C 197.89,334.855 200.223,335.522 202.5,336.5C 203.894,336.379 205.228,336.046 206.5,335.5C 207.386,336.325 207.719,337.325 207.5,338.5C 212.04,340.151 216.707,340.651 221.5,340C 222.308,339.692 222.975,339.192 223.5,338.5C 222.335,337.416 221.002,336.583 219.5,336C 220.025,335.308 220.692,334.808 221.5,334.5C 224.167,335.833 226.833,337.167 229.5,338.5C 227.847,340.121 225.847,341.288 223.5,342C 223.833,342.333 224.167,342.667 224.5,343C 231.167,344.333 237.833,345.667 244.5,347C 246.881,347.223 248.547,348.39 249.5,350.5C 223.86,345.325 199.194,337.659 175.5,327.5 Z"></path></g>
</svg>